SplineFontDB: 3.0
FontName: Boon-500
FullName: Boon 500
FamilyName: Boon
Weight: 500
Copyright: Copyright 2013-2015, Sungsit Sawaiwan (https://fontuni.com | uni@fontuni.com). This Font Software is licensed under the SIL Open Font License, Version 1.1 (http://scripts.sil.org/OFL).
Version: 1.0-beta2
ItalicAngle: 0
UnderlinePosition: -120
UnderlineWidth: 60
Ascent: 960
Descent: 240
InvalidEm: 0
woffMajor: 1
woffMinor: 0
UFOAscent: 960
UFODescent: -240
LayerCount: 2
Layer: 0 0 "Back" 1
Layer: 1 0 "Fore" 0
StyleMap: 0x0000
FSType: 0
OS2Version: 0
OS2_WeightWidthSlopeOnly: 0
OS2_UseTypoMetrics: 0
CreationTime: 1369324892
ModificationTime: 1445514936
PfmFamily: 33
TTFWeight: 500
TTFWidth: 5
LineGap: 90
VLineGap: 0
OS2TypoAscent: 960
OS2TypoAOffset: 0
OS2TypoDescent: -240
OS2TypoDOffset: 0
OS2TypoLinegap: 90
OS2WinAscent: 1320
OS2WinAOffset: 0
OS2WinDescent: 480
OS2WinDOffset: 0
HheadAscent: 1320
HheadAOffset: 0
HheadDescent: -480
HheadDOffset: 0
OS2CapHeight: 780
OS2XHeight: 600
OS2Vendor: 'FUni'
Lookup: 1 0 0 "ThaiRC.rd" { "ThaiRC.rd subtable"  } ['ss01' ('thai' <'dflt' > ) 'salt' ('thai' <'dflt' > ) 'ccmp' ('thai' <'PAL ' 'SAN ' > ) 'locl' ('thai' <'PAL ' 'SAN ' > ) ]
Lookup: 6 0 0 "ThaiContextRC.rd" { "ThaiContextRC.rd subtable"  } ['ccmp' ('thai' <'dflt' > ) ]
Lookup: 2 0 0 "ThaiDecomp" { "ThaiDecomp subtable"  } ['ccmp' ('thai' <'dflt' > ) ]
Lookup: 1 0 0 "ThaiT.0E4D" { "ThaiT.0E4D subtable"  } []
Lookup: 1 0 0 "Thai0E4D.0E48" { "Thai0E4D.0E48 subtable"  } []
Lookup: 1 0 0 "Thai0E4D.0E49" { "Thai0E4D.0E49 subtable"  } []
Lookup: 1 0 0 "Thai0E4D.0E4A" { "Thai0E4D.0E4A subtable"  } []
Lookup: 1 0 0 "Thai0E4D.0E4B" { "Thai0E4D.0E4B subtable"  } []
Lookup: 6 0 0 "ThaiContext.ro" { "ThaiContext.ro contextual 0"  "ThaiContext.ro contextual 1"  "ThaiContext.ro contextual 2"  "ThaiContext.ro contextual 3"  } ['ccmp' ('thai' <'dflt' > ) ]
Lookup: 1 0 0 "Thai.sd" { "Thai.sd subtable"  } []
Lookup: 1 0 0 "ThaiBV.sd" { "ThaiBV.sd subtable"  } []

StartChar: .notdef
Encoding: 844 -1 0
GlifName: _notdef
Width: 660
VWidth: 0
Flags: MW
LayerCount: 2
Fore
SplineSet
95 0 m 1
 95 600 l 1
 330 600 l 1
 565 600 l 1
 565 0 l 1
 330 0 l 1
 95 0 l 1
330 86 m 1
 458 86 l 1
 458 514 l 1
 330 514 l 1
 202 514 l 1
 202 86 l 1
 330 86 l 1
EndSplineSet
PickledDataWithLists: "(dp0
Vcom.fontlab.hintData
p1
(dp2
Vvhints
p3
(lp4
(dp5
Vwidth
p6
L10L
sVposition
p7
L160L
sa(dp8
g6
L10L
sg7
L190L
sa(dp9
g6
L10L
sg7
L520L
sa(dp10
g6
L10L
sg7
L550L
sasVhhints
p11
(lp12
(dp13
g6
L10L
sg7
L0L
sa(dp14
g6
L10L
sg7
L30L
sa(dp15
g6
L10L
sg7
L560L
sa(dp16
g6
L10L
sg7
L590L
sass."
EndChar

StartChar: exclam
Encoding: 4 33 5
GlifName: exclam
Width: 330
VWidth: 0
Flags: HMW
LayerCount: 2
Fore
SplineSet
96 810 m 1
 234 810 l 1
 205 270 l 1
 125 270 l 1
 96 810 l 1
EndSplineSet
Refer: 18 46 S 1 0 0 1 0 0 2
PickledDataWithLists: "(dp0
Vcom.fontlab.hintData
p1
(dp2
Vvhints
p3
(lp4
(dp5
Vwidth
p6
L10L
sVposition
p7
L81L
sa(dp8
g6
L10L
sg7
L101L
sa(dp9
g6
L10L
sg7
L125L
sa(dp10
g6
L10L
sg7
L195L
sa(dp11
g6
L10L
sg7
L210L
sa(dp12
g6
L10L
sg7
L239L
sasVhhints
p13
(lp14
(dp15
g6
L10L
sg7
L-5L
sa(dp16
g6
L10L
sg7
L122L
sa(dp17
g6
L10L
sg7
L268L
sa(dp18
g6
L10L
sg7
L826L
sass."
EndChar

StartChar: numbersign
Encoding: 6 35 7
GlifName: numbersign
Width: 810
VWidth: 0
Flags: MW
LayerCount: 2
Fore
SplineSet
50 206 m 1
 50 284 l 1
 186 284 l 1
 244 496 l 1
 110 496 l 1
 110 574 l 1
 265 574 l 1
 320 780 l 1
 413 780 l 1
 358 574 l 1
 552 574 l 1
 607 780 l 1
 700 780 l 1
 645 574 l 1
 760 574 l 1
 760 496 l 1
 624 496 l 1
 566 284 l 1
 700 284 l 1
 700 206 l 1
 545 206 l 1
 490 0 l 1
 397 0 l 1
 452 206 l 1
 258 206 l 1
 203 0 l 1
 110 0 l 1
 165 206 l 1
 50 206 l 1
337 496 m 1
 279 284 l 1
 473 284 l 1
 531 496 l 1
 337 496 l 1
EndSplineSet
PickledDataWithLists: "(dp0
Vcom.fontlab.hintData
p1
(dp2
Vvhints
p3
(lp4
(dp5
Vwidth
p6
L10L
sVposition
p7
L111L
sa(dp8
g6
L10L
sg7
L329L
sa(dp9
g6
L10L
sg7
L381L
sa(dp10
g6
L10L
sg7
L599L
sa(dp11
g6
L10L
sg7
L649L
sa(dp12
g6
L10L
sg7
L689L
sasVhhints
p13
(lp14
(dp15
g6
L10L
sg7
L-29L
sa(dp16
g6
L10L
sg7
L-19L
sa(dp17
g6
L7L
sg7
L241L
sa(dp18
g6
L10L
sg7
L284L
sa(dp19
g6
L7L
sg7
L521L
sa(dp20
g6
L10L
sg7
L564L
sa(dp21
g6
L10L
sg7
L819L
sa(dp22
g6
L10L
sg7
L829L
sass."
EndChar

StartChar: dollar
Encoding: 7 36 8
GlifName: dollar
Width: 660
VWidth: 0
Flags: MW
LayerCount: 2
Fore
SplineSet
60 185 m 1
 177 192 l 1
 187 128 243 72 331 72 c 0
 425 72 483 115 483 203 c 0
 483 282 424 312 393 323 c 0
 342 339 269 368 219 388 c 0
 152 416 78 475 78 581 c 0
 78 686 152 778 292 792 c 1
 292 900 l 1
 378 900 l 1
 378 791 l 1
 517 771 573 666 583 600 c 1
 466 591 l 1
 456 656 408 708 331 708 c 0
 258 708 195 668 195 581 c 0
 195 514 249 487 288 471 c 0
 338 451 408 423 452 409 c 0
 528 384 600 323 600 203 c 0
 600 98 527 4 378 -12 c 1
 378 -120 l 1
 292 -120 l 1
 292 -12 l 1
 135 4 70 115 60 185 c 1
EndSplineSet
PickledDataWithLists: "(dp0
Vcom.fontlab.hintData
p1
(dp2
Vvhints
p3
(lp4
(dp5
Vwidth
p6
L10L
sVposition
p7
L70L
sa(dp8
g6
L10L
sg7
L78L
sa(dp9
g6
L10L
sg7
L169L
sa(dp10
g6
L10L
sg7
L319L
sa(dp11
g6
L10L
sg7
L323L
sa(dp12
g6
L10L
sg7
L382L
sa(dp13
g6
L10L
sg7
L392L
sa(dp14
g6
L10L
sg7
L504L
sa(dp15
g6
L10L
sg7
L565L
sa(dp16
g6
L10L
sg7
L604L
sa(dp17
g6
L10L
sg7
L664L
sasVhhints
p18
(lp19
(dp20
g6
L10L
sg7
L-127L
sa(dp21
g6
L10L
sg7
L46L
sa(dp22
g6
L10L
sg7
L192L
sa(dp23
g6
L10L
sg7
L584L
sa(dp24
g6
L10L
sg7
L812L
sa(dp25
g6
L10L
sg7
L916L
sass."
EndChar

StartChar: ampersand
Encoding: 9 38 10
GlifName: ampersand
Width: 810
VWidth: 0
Flags: MW
LayerCount: 2
Fore
SplineSet
648 153 m 1
 727 71 790 6 790 6 c 2
 790 0 l 1
 657 0 l 1
 657 0 626 33 581 81 c 1
 511 20 420 -19 313 -19 c 0
 145 -19 65 69 65 171 c 0
 65 284 167 364 264 426 c 1
 220 484 182 556 182 622 c 0
 182 735 258 799 363 799 c 0
 484 799 538 721 538 647 c 0
 538 553 483 476 396 415 c 1
 443 365 515 291 584 219 c 1
 617 275 635 341 642 410 c 1
 742 396 l 1
 734 311 702 225 648 153 c 1
523 143 m 1
 454 217 372 304 318 364 c 1
 230 301 182 237 182 171 c 0
 182 104 230 68 313 68 c 0
 402 68 471 97 523 143 c 1
363 722 m 0
 307 722 285 674 285 619 c 0
 285 576 309 524 343 478 c 1
 406 528 438 589 438 647 c 0
 438 695 408 722 363 722 c 0
EndSplineSet
PickledDataWithLists: "(dp0
Vcom.fontlab.hintData
p1
(dp2
Vvhints
p3
(lp4
(dp5
Vwidth
p6
L10L
sVposition
p7
L66L
sa(dp8
g6
L10L
sg7
L164L
sa(dp9
g6
L10L
sg7
L202L
sa(dp10
g6
L10L
sg7
L296L
sa(dp11
g6
L10L
sg7
L450L
sa(dp12
g6
L10L
sg7
L538L
sa(dp13
g6
L10L
sg7
L695L
sa(dp14
g6
L10L
sg7
L749L
sasVhhints
p15
(lp16
(dp17
g6
L10L
sg7
L-25L
sa(dp18
g6
L10L
sg7
L39L
sa(dp19
g6
L10L
sg7
L389L
sa(dp20
g6
L10L
sg7
L734L
sa(dp21
g6
L10L
sg7
L796L
sass."
EndChar

StartChar: quotesingle
Encoding: 10 39 11
GlifName: quotesingle
Width: 330
VWidth: 0
Flags: MW
LayerCount: 2
Fore
SplineSet
110 900 m 1
 220 900 l 1
 202 540 l 1
 129 540 l 1
 110 900 l 1
EndSplineSet
PickledDataWithLists: "(dp0
Vcom.fontlab.hintData
p1
(dp2
Vvhints
p3
(lp4
(dp5
Vwidth
p6
L10L
sVposition
p7
L110L
sa(dp8
g6
L10L
sg7
L209L
sasVhhints
p9
(lp10
(dp11
g6
L10L
sg7
L544L
sa(dp12
g6
L10L
sg7
L832L
sass."
EndChar

StartChar: parenleft
Encoding: 11 40 12
GlifName: parenleft
Width: 390
VWidth: 0
Flags: MW
LayerCount: 2
Fore
SplineSet
65 390 m 0
 65 611 140 785 249 911 c 1
 321 882 l 1
 224 764 169 599 169 390 c 0
 169 181 224 16 321 -102 c 1
 249 -131 l 1
 140 -5 65 169 65 390 c 0
EndSplineSet
PickledDataWithLists: "(dp0
Vcom.fontlab.hintData
p1
(dp2
Vvhints
p3
(lp4
(dp5
Vwidth
p6
L10L
sVposition
p7
L55L
sa(dp8
g6
L10L
sg7
L135L
sa(dp9
g6
L10L
sg7
L270L
sasVhhints
p10
(lp11
(dp12
g6
L10L
sg7
L-112L
sa(dp13
g6
L10L
sg7
L882L
sass."
Substitution2: "Latin.subs subtable" parenleft.subs
Substitution2: "Latin.subs subtable" parenleft.subs
Substitution2: "Latin.sups subtable" parenleft.sups
Substitution2: "Latin.sups subtable" parenleft.sups
EndChar

StartChar: asterisk
Encoding: 13 42 14
GlifName: asterisk
Width: 570
VWidth: 0
Flags: MW
LayerCount: 2
Fore
SplineSet
46 690 m 1
 76 785 l 1
 256 705 l 1
 235 900 l 1
 335 900 l 1
 314 705 l 1
 493 785 l 1
 524 690 l 1
 332 650 l 1
 464 504 l 1
 383 446 l 1
 285 616 l 1
 186 446 l 1
 106 504 l 1
 237 650 l 1
 46 690 l 1
EndSplineSet
PickledDataWithLists: "(dp0
Vcom.fontlab.hintData
p1
(dp2
Vvhints
p3
(lp4
(dp5
Vwidth
p6
L10L
sVposition
p7
L84L
sa(dp8
g6
L10L
sg7
L89L
sa(dp9
g6
L10L
sg7
L256L
sa(dp10
g6
L10L
sg7
L265L
sa(dp11
g6
L10L
sg7
L272L
sa(dp12
g6
L10L
sg7
L326L
sa(dp13
g6
L10L
sg7
L335L
sa(dp14
g6
L10L
sg7
L501L
sa(dp15
g6
L10L
sg7
L506L
sasVhhints
p16
(lp17
(dp18
g6
L10L
sg7
L392L
sa(dp19
g6
L10L
sg7
L488L
sa(dp20
g6
L10L
sg7
L495L
sa(dp21
g6
L10L
sg7
L735L
sa(dp22
g6
L10L
sg7
L742L
sa(dp23
g6
L10L
sg7
L839L
sass."
EndChar

StartChar: plus
Encoding: 14 43 15
GlifName: plus
Width: 600
VWidth: 0
Flags: MW
LayerCount: 2
Fore
SplineSet
90 320 m 1
 90 400 l 1
 246 400 l 1
 246 560 l 1
 353 560 l 1
 353 400 l 1
 510 400 l 1
 510 320 l 1
 353 320 l 1
 353 160 l 1
 246 160 l 1
 246 320 l 1
 90 320 l 1
EndSplineSet
PickledDataWithLists: "(dp0
Vcom.fontlab.hintData
p1
(dp2
Vvhints
p3
(lp4
(dp5
Vwidth
p6
L10L
sVposition
p7
L80L
sa(dp8
g6
L10L
sg7
L250L
sa(dp9
g6
L10L
sg7
L259L
sa(dp10
g6
L10L
sg7
L340L
sa(dp11
g6
L10L
sg7
L510L
sasVhhints
p12
(lp13
(dp14
g6
L10L
sg7
L145L
sa(dp15
g6
L10L
sg7
L302L
sa(dp16
g6
L10L
sg7
L362L
sa(dp17
g6
L10L
sg7
L370L
sa(dp18
g6
L10L
sg7
L525L
sass."
EndChar

StartChar: comma
Encoding: 15 44 16
GlifName: comma
Width: 330
VWidth: 0
Flags: MW
LayerCount: 2
Fore
SplineSet
85 68 m 0
 85 113 116 146 165 146 c 0
 233 146 260 89 260 32 c 0
 260 -78 187 -157 120 -200 c 1
 85 -153 l 1
 132 -123 172 -73 182 -2 c 1
 176 -3 169 -4 162 -4 c 0
 119 -4 85 24 85 68 c 0
EndSplineSet
PickledDataWithLists: "(dp0
Vcom.fontlab.hintData
p1
(dp2
Vvhints
p3
(lp4
(dp5
Vwidth
p6
L10L
sVposition
p7
L61L
sa(dp8
g6
L10L
sg7
L170L
sa(dp9
g6
L10L
sg7
L251L
sasVhhints
p10
(lp11
(dp12
g6
L10L
sg7
L-182L
sa(dp13
g6
L10L
sg7
L48L
sa(dp14
g6
L10L
sg7
L117L
sass."
EndChar

StartChar: hyphen
Encoding: 16 45 17
GlifName: hyphen
Width: 600
VWidth: 0
Flags: MW
LayerCount: 2
Fore
SplineSet
90 403 m 1
 510 403 l 1
 510 317 l 1
 90 317 l 1
 90 403 l 1
EndSplineSet
PickledDataWithLists: "(dp0
Vcom.fontlab.hintData
p1
(dp2
Vvhints
p3
(lp4
(dp5
Vwidth
p6
L10L
sVposition
p7
L75L
sa(dp8
g6
L10L
sg7
L514L
sasVhhints
p9
(lp10
(dp11
g6
L10L
sg7
L301L
sa(dp12
g6
L10L
sg7
L363L
sa(dp13
g6
L10L
sg7
L371L
sass."
EndChar

StartChar: period
Encoding: 17 46 18
GlifName: period
Width: 330
VWidth: 0
Flags: MW
LayerCount: 2
Fore
SplineSet
165 144 m 0
 210 144 245 116 245 70 c 0
 245 24 210 -4 165 -4 c 0
 120 -4 85 24 85 70 c 0
 85 116 120 144 165 144 c 0
EndSplineSet
PickledDataWithLists: "(dp0
Vcom.fontlab.hintData
p1
(dp2
Vvhints
p3
(lp4
(dp5
Vwidth
p6
L10L
sVposition
p7
L81L
sa(dp8
g6
L10L
sg7
L239L
sasVhhints
p9
(lp10
(dp11
g6
L10L
sg7
L-5L
sa(dp12
g6
L10L
sg7
L122L
sass."
EndChar

StartChar: slash
Encoding: 18 47 19
GlifName: slash
Width: 510
VWidth: 0
Flags: MW
LayerCount: 2
Fore
SplineSet
40 0 m 1
 40 6 l 1
 368 780 l 1
 470 780 l 1
 470 774 l 1
 143 0 l 1
 40 0 l 1
EndSplineSet
PickledDataWithLists: "(dp0
Vcom.fontlab.hintData
p1
(dp2
Vvhints
p3
(lp4
(dp5
Vwidth
p6
L10L
sVposition
p7
L41L
sa(dp8
g6
L10L
sg7
L429L
sasVhhints
p9
(lp10
(dp11
g6
L10L
sg7
L-29L
sa(dp12
g6
L10L
sg7
L818L
sass."
Substitution2: "LatinSlash.frac subtable" fraction
EndChar

StartChar: zero
Encoding: 19 48 20
GlifName: zero
Width: 660
VWidth: 0
Flags: MW
LayerCount: 2
Fore
SplineSet
60 373 m 2
 60 407 l 2
 60 581 108 799 330 799 c 0
 552 799 600 581 600 407 c 2
 600 373 l 2
 600 199 552 -19 330 -19 c 0
 108 -19 60 199 60 373 c 2
330 68 m 0
 422 68 482 180 482 373 c 2
 482 407 l 2
 482 600 422 712 330 712 c 0
 238 712 178 600 178 407 c 2
 178 373 l 2
 178 180 238 68 330 68 c 0
EndSplineSet
PickledDataWithLists: "(dp0
Vcom.fontlab.hintData
p1
(dp2
Vvhints
p3
(lp4
(dp5
Vwidth
p6
L10L
sVposition
p7
L66L
sa(dp8
g6
L10L
sg7
L164L
sa(dp9
g6
L10L
sg7
L456L
sa(dp10
g6
L10L
sg7
L546L
sa(dp11
g6
L10L
sg7
L564L
sa(dp12
g6
L10L
sg7
L644L
sasVhhints
p13
(lp14
(dp15
g6
L10L
sg7
L-24L
sa(dp16
g6
L10L
sg7
L46L
sa(dp17
g6
L10L
sg7
L742L
sa(dp18
g6
L10L
sg7
L811L
sass."
Substitution2: "Latin.dnom subtable" zero.dnom
Substitution2: "Latin.numr subtable" zero.numr
Substitution2: "Latin.subs subtable" zero.subs
Substitution2: "Latin.sups subtable" zero.sups
Substitution2: "Latin.pnum subtable" zero.pnum
EndChar

StartChar: one
Encoding: 20 49 21
GlifName: one
Width: 660
VWidth: 0
Flags: MW
LayerCount: 2
Fore
SplineSet
95 630 m 1
 358 786 l 1
 441 777 l 1
 441 93 l 1
 590 93 l 1
 590 0 l 1
 135 0 l 1
 135 93 l 1
 325 93 l 1
 325 656 l 1
 145 545 l 1
 95 630 l 1
EndSplineSet
PickledDataWithLists: "(dp0
Vcom.fontlab.hintData
p1
(dp2
Vvhints
p3
(lp4
(dp5
Vwidth
p6
L10L
sVposition
p7
L126L
sa(dp8
g6
L10L
sg7
L364L
sa(dp9
g6
L10L
sg7
L371L
sa(dp10
g6
L10L
sg7
L462L
sa(dp11
g6
L10L
sg7
L469L
sa(dp12
g6
L10L
sg7
L677L
sasVhhints
p13
(lp14
(dp15
g6
L10L
sg7
L-19L
sa(dp16
g6
L10L
sg7
L-9L
sa(dp17
g6
L10L
sg7
L49L
sa(dp18
g6
L10L
sg7
L57L
sa(dp19
g6
L10L
sg7
L591L
sa(dp20
g6
L10L
sg7
L802L
sass."
Substitution2: "Latin.dnom subtable" one.dnom
Substitution2: "Latin.numr subtable" one.numr
Substitution2: "Latin.subs subtable" one.subs
Substitution2: "Latin.sups subtable" one.sups
Substitution2: "Latin.pnum subtable" one.pnum
EndChar

StartChar: two
Encoding: 21 50 22
GlifName: two
Width: 660
VWidth: 0
Flags: MW
LayerCount: 2
Fore
SplineSet
70 44 m 0
 70 220 216 323 325 395 c 0
 402 446 468 496 468 577 c 0
 468 639 440 712 332 712 c 0
 258 712 209 654 198 599 c 1
 77 610 l 1
 91 681 164 799 330 799 c 0
 548 799 583 643 583 577 c 0
 583 450 473 370 398 320 c 0
 301 255 217 193 201 93 c 1
 590 93 l 1
 590 0 l 1
 76 0 l 1
 76 0 70 19 70 44 c 0
EndSplineSet
PickledDataWithLists: "(dp0
Vcom.fontlab.hintData
p1
(dp2
Vvhints
p3
(lp4
(dp5
Vwidth
p6
L10L
sVposition
p7
L71L
sa(dp8
g6
L10L
sg7
L81L
sa(dp9
g6
L10L
sg7
L501L
sa(dp10
g6
L10L
sg7
L599L
sa(dp11
g6
L10L
sg7
L639L
sasVhhints
p12
(lp13
(dp14
g6
L10L
sg7
L-13L
sa(dp15
g6
L10L
sg7
L61L
sa(dp16
g6
L10L
sg7
L74L
sa(dp17
g6
L10L
sg7
L620L
sa(dp18
g6
L10L
sg7
L740L
sa(dp19
g6
L10L
sg7
L809L
sass."
Substitution2: "Latin.dnom subtable" two.dnom
Substitution2: "Latin.numr subtable" two.numr
Substitution2: "Latin.subs subtable" two.subs
Substitution2: "Latin.sups subtable" two.sups
Substitution2: "Latin.pnum subtable" two.pnum
EndChar

StartChar: three
Encoding: 22 51 23
GlifName: three
Width: 660
VWidth: 0
Flags: MW
LayerCount: 2
Fore
SplineSet
40 131 m 1
 156 153 l 1
 167 122 201 67 303 67 c 0
 434 67 465 150 465 215 c 0
 465 282 429 347 312 347 c 2
 207 347 l 1
 207 433 l 1
 300 433 l 2
 375 433 441 488 441 577 c 0
 441 639 413 712 305 712 c 0
 231 712 182 654 171 599 c 1
 51 610 l 1
 65 681 137 799 303 799 c 0
 521 799 557 643 557 577 c 0
 557 490 507 435 452 402 c 1
 555 366 585 280 585 221 c 0
 585 142 543 -19 303 -19 c 0
 123 -19 56 87 40 131 c 1
EndSplineSet
PickledDataWithLists: "(dp0
Vcom.fontlab.hintData
p1
(dp2
Vvhints
p3
(lp4
(dp5
Vwidth
p6
L10L
sVposition
p7
L66L
sa(dp8
g6
L10L
sg7
L76L
sa(dp9
g6
L10L
sg7
L203L
sa(dp10
g6
L10L
sg7
L491L
sa(dp11
g6
L10L
sg7
L546L
sa(dp12
g6
L10L
sg7
L589L
sa(dp13
g6
L10L
sg7
L644L
sasVhhints
p14
(lp15
(dp16
g6
L10L
sg7
L-27L
sa(dp17
g6
L10L
sg7
L44L
sa(dp18
g6
L10L
sg7
L150L
sa(dp19
g6
L10L
sg7
L361L
sa(dp20
g6
L10L
sg7
L372L
sa(dp21
g6
L10L
sg7
L630L
sa(dp22
g6
L10L
sg7
L741L
sa(dp23
g6
L10L
sg7
L810L
sass."
Substitution2: "Latin.dnom subtable" three.dnom
Substitution2: "Latin.numr subtable" three.numr
Substitution2: "Latin.subs subtable" three.subs
Substitution2: "Latin.sups subtable" three.sups
Substitution2: "Latin.pnum subtable" three.pnum
EndChar

StartChar: four
Encoding: 23 52 24
GlifName: four
Width: 660
VWidth: 0
Flags: MW
LayerCount: 2
Fore
SplineSet
391 197 m 1
 39 197 l 1
 30 253 l 1
 407 786 l 1
 505 777 l 1
 505 283 l 1
 630 283 l 1
 630 197 l 1
 505 197 l 1
 505 0 l 1
 391 0 l 1
 391 197 l 1
395 283 m 1
 395 626 l 1
 157 283 l 1
 395 283 l 1
EndSplineSet
PickledDataWithLists: "(dp0
Vcom.fontlab.hintData
p1
(dp2
Vvhints
p3
(lp4
(dp5
Vwidth
p6
L10L
sVposition
p7
L31L
sa(dp8
g6
L10L
sg7
L276L
sa(dp9
g6
L10L
sg7
L374L
sa(dp10
g6
L10L
sg7
L455L
sa(dp11
g6
L10L
sg7
L554L
sa(dp12
g6
L10L
sg7
L679L
sasVhhints
p13
(lp14
(dp15
g6
L10L
sg7
L-30L
sa(dp16
g6
L10L
sg7
L174L
sa(dp17
g6
L10L
sg7
L243L
sa(dp18
g6
L10L
sg7
L259L
sa(dp19
g6
L10L
sg7
L609L
sa(dp20
g6
L10L
sg7
L819L
sass."
Substitution2: "Latin.dnom subtable" four.dnom
Substitution2: "Latin.numr subtable" four.numr
Substitution2: "Latin.subs subtable" four.subs
Substitution2: "Latin.sups subtable" four.sups
Substitution2: "Latin.pnum subtable" four.pnum
EndChar

StartChar: five
Encoding: 24 53 25
GlifName: five
Width: 660
VWidth: 0
Flags: MW
LayerCount: 2
Fore
SplineSet
60 131 m 1
 177 153 l 1
 188 122 221 67 323 67 c 0
 454 67 484 159 484 234 c 0
 484 313 456 402 340 402 c 0
 270 402 212 352 183 308 c 1
 182 310 l 1
 181 308 l 1
 94 354 l 1
 108 780 l 1
 558 780 l 1
 558 694 l 1
 218 694 l 1
 210 436 l 1
 246 461 296 484 362 484 c 0
 566 484 605 315 605 241 c 0
 605 157 563 -19 323 -19 c 0
 143 -19 76 87 60 131 c 1
EndSplineSet
PickledDataWithLists: "(dp0
Vcom.fontlab.hintData
p1
(dp2
Vvhints
p3
(lp4
(dp5
Vwidth
p6
L10L
sVposition
p7
L76L
sa(dp8
g6
L10L
sg7
L106L
sa(dp9
g6
L10L
sg7
L125L
sa(dp10
g6
L10L
sg7
L226L
sa(dp11
g6
L10L
sg7
L541L
sa(dp12
g6
L10L
sg7
L614L
sa(dp13
g6
L10L
sg7
L639L
sasVhhints
p14
(lp15
(dp16
g6
L10L
sg7
L-26L
sa(dp17
g6
L10L
sg7
L43L
sa(dp18
g6
L10L
sg7
L150L
sa(dp19
g6
L10L
sg7
L334L
sa(dp20
g6
L10L
sg7
L409L
sa(dp21
g6
L10L
sg7
L477L
sa(dp22
g6
L10L
sg7
L716L
sa(dp23
g6
L10L
sg7
L784L
sa(dp24
g6
L10L
sg7
L795L
sass."
Substitution2: "Latin.dnom subtable" five.dnom
Substitution2: "Latin.numr subtable" five.numr
Substitution2: "Latin.subs subtable" five.subs
Substitution2: "Latin.sups subtable" five.sups
Substitution2: "Latin.pnum subtable" five.pnum
EndChar

StartChar: six
Encoding: 25 54 26
GlifName: six
Width: 660
VWidth: 0
Flags: MW
LayerCount: 2
Fore
SplineSet
80 297 m 2
 80 436 l 2
 80 562 103 799 343 799 c 0
 518 799 572 682 585 639 c 1
 470 620 l 1
 458 658 428 712 343 712 c 0
 232 712 197 590 197 436 c 2
 197 425 l 1
 236 461 291 483 360 483 c 0
 535 483 605 351 605 233 c 0
 605 98 515 -19 343 -19 c 0
 165 -19 80 103 80 297 c 2
198 269 m 1
 205 106 273 68 343 68 c 0
 423 68 488 118 488 233 c 0
 488 330 440 401 340 401 c 0
 267 401 212 352 198 269 c 1
EndSplineSet
PickledDataWithLists: "(dp0
Vcom.fontlab.hintData
p1
(dp2
Vvhints
p3
(lp4
(dp5
Vwidth
p6
L10L
sVposition
p7
L32L
sa(dp8
g6
L10L
sg7
L90L
sa(dp9
g6
L10L
sg7
L188L
sa(dp10
g6
L10L
sg7
L464L
sa(dp11
g6
L10L
sg7
L560L
sa(dp12
g6
L10L
sg7
L658L
sasVhhints
p13
(lp14
(dp15
g6
L10L
sg7
L-29L
sa(dp16
g6
L10L
sg7
L39L
sa(dp17
g6
L10L
sg7
L251L
sa(dp18
g6
L10L
sg7
L397L
sa(dp19
g6
L10L
sg7
L466L
sa(dp20
g6
L10L
sg7
L819L
sass."
Substitution2: "Latin.dnom subtable" six.dnom
Substitution2: "Latin.numr subtable" six.numr
Substitution2: "Latin.subs subtable" six.subs
Substitution2: "Latin.sups subtable" six.sups
Substitution2: "Latin.pnum subtable" six.pnum
EndChar

StartChar: seven
Encoding: 26 55 27
GlifName: seven
Width: 660
VWidth: 0
Flags: MW
LayerCount: 2
Fore
SplineSet
65 687 m 1
 65 780 l 1
 576 780 l 1
 585 715 l 1
 477 568 349 285 349 50 c 2
 349 0 l 1
 225 0 l 1
 225 50 l 2
 225 266 341 523 445 687 c 1
 65 687 l 1
EndSplineSet
PickledDataWithLists: "(dp0
Vcom.fontlab.hintData
p1
(dp2
Vvhints
p3
(lp4
(dp5
Vwidth
p6
L10L
sVposition
p7
L69L
sa(dp8
g6
L10L
sg7
L199L
sa(dp9
g6
L10L
sg7
L274L
sa(dp10
g6
L10L
sg7
L648L
sasVhhints
p11
(lp12
(dp13
g6
L10L
sg7
L-19L
sa(dp14
g6
L10L
sg7
L554L
sa(dp15
g6
L10L
sg7
L716L
sa(dp16
g6
L10L
sg7
L784L
sa(dp17
g6
L10L
sg7
L795L
sass."
Substitution2: "Latin.dnom subtable" seven.dnom
Substitution2: "Latin.numr subtable" seven.numr
Substitution2: "Latin.subs subtable" seven.subs
Substitution2: "Latin.sups subtable" seven.sups
Substitution2: "Latin.pnum subtable" seven.pnum
EndChar

StartChar: eight
Encoding: 27 56 28
GlifName: eight
Width: 660
VWidth: 0
Flags: MW
LayerCount: 2
Fore
SplineSet
330 -19 m 0
 157 -19 50 79 50 201 c 0
 50 326 143 378 209 401 c 1
 144 430 85 483 85 581 c 0
 85 699 179 799 330 799 c 0
 481 799 575 699 575 581 c 0
 575 483 516 430 451 401 c 1
 517 378 610 326 610 201 c 0
 610 79 503 -19 330 -19 c 0
330 66 m 0
 428 66 490 114 490 201 c 0
 490 291 434 327 381 343 c 0
 367 348 349 354 330 360 c 1
 311 354 293 348 279 343 c 0
 226 327 170 291 170 201 c 0
 170 114 232 66 330 66 c 0
330 713 m 0
 263 713 202 672 202 581 c 0
 202 505 249 465 293 452 c 0
 304 449 316 444 330 440 c 1
 344 444 356 449 367 452 c 0
 411 465 458 505 458 581 c 0
 458 672 397 713 330 713 c 0
EndSplineSet
PickledDataWithLists: "(dp0
Vcom.fontlab.hintData
p1
(dp2
Vvhints
p3
(lp4
(dp5
Vwidth
p6
L10L
sVposition
p7
L76L
sa(dp8
g6
L10L
sg7
L87L
sa(dp9
g6
L10L
sg7
L174L
sa(dp10
g6
L10L
sg7
L185L
sa(dp11
g6
L10L
sg7
L549L
sa(dp12
g6
L10L
sg7
L584L
sa(dp13
g6
L10L
sg7
L594L
sa(dp14
g6
L10L
sg7
L649L
sasVhhints
p15
(lp16
(dp17
g6
L10L
sg7
L-24L
sa(dp18
g6
L10L
sg7
L44L
sa(dp19
g6
L9L
sg7
L394L
sa(dp20
g6
L10L
sg7
L610L
sa(dp21
g6
L10L
sg7
L651L
sa(dp22
g6
L10L
sg7
L741L
sa(dp23
g6
L10L
sg7
L809L
sass."
Substitution2: "Latin.dnom subtable" eight.dnom
Substitution2: "Latin.numr subtable" eight.numr
Substitution2: "Latin.subs subtable" eight.subs
Substitution2: "Latin.sups subtable" eight.sups
Substitution2: "Latin.pnum subtable" eight.pnum
EndChar

StartChar: less
Encoding: 31 60 32
GlifName: less
Width: 600
VWidth: 0
Flags: HMW
LayerCount: 2
Fore
SplineSet
90 328 m 1
 90 360 l 1
 90 392 l 1
 488 632 l 1
 510 543 l 1
 197 360 l 1
 510 177 l 1
 488 88 l 1
 90 328 l 1
EndSplineSet
PickledDataWithLists: "(dp0
Vcom.fontlab.hintData
p1
(dp2
Vvhints
p3
(lp4
(dp5
Vwidth
p6
L10L
sVposition
p7
L63L
sa(dp8
g6
L10L
sg7
L514L
sa(dp9
g6
L10L
sg7
L524L
sasVhhints
p10
(lp11
(dp12
g6
L10L
sg7
L65L
sa(dp13
g6
L10L
sg7
L606L
sass."
EndChar

StartChar: equal
Encoding: 32 61 33
GlifName: equal
Width: 600
VWidth: 0
Flags: MW
LayerCount: 2
Fore
SplineSet
90 421 m 1
 90 504 l 1
 510 504 l 1
 510 421 l 1
 90 421 l 1
90 216 m 1
 90 299 l 1
 510 299 l 1
 510 216 l 1
 90 216 l 1
EndSplineSet
PickledDataWithLists: "(dp0
Vcom.fontlab.hintData
p1
(dp2
Vvhints
p3
(lp4
(dp5
Vwidth
p6
L10L
sVposition
p7
L75L
sa(dp8
g6
L10L
sg7
L514L
sasVhhints
p9
(lp10
(dp11
g6
L10L
sg7
L201L
sa(dp12
g6
L10L
sg7
L263L
sa(dp13
g6
L10L
sg7
L271L
sa(dp14
g6
L10L
sg7
L401L
sa(dp15
g6
L10L
sg7
L463L
sa(dp16
g6
L10L
sg7
L471L
sass."
EndChar

StartChar: question
Encoding: 34 63 35
GlifName: question
Width: 570
VWidth: 0
Flags: MW
LayerCount: 2
Fore
SplineSet
55 647 m 0
 55 750 143 829 285 829 c 0
 419 829 505 754 505 634 c 0
 505 470 305 430 305 316 c 0
 305 297 309 279 317 262 c 1
 224 251 l 1
 211 275 205 298 205 323 c 0
 205 478 384 504 384 631 c 0
 384 716 332 741 281 741 c 0
 219 741 175 710 175 647 c 0
 175 627 178 605 187 587 c 1
 74 558 l 1
 61 586 55 617 55 647 c 0
EndSplineSet
Refer: 18 46 S 1 0 0 1 120 0 2
PickledDataWithLists: "(dp0
Vcom.fontlab.hintData
p1
(dp2
Vvhints
p3
(lp4
(dp5
Vwidth
p6
L10L
sVposition
p7
L11L
sa(dp8
g6
L10L
sg7
L98L
sa(dp9
g6
L10L
sg7
L120L
sa(dp10
g6
L10L
sg7
L152L
sa(dp11
g6
L10L
sg7
L161L
sa(dp12
g6
L10L
sg7
L241L
sa(dp13
g6
L10L
sg7
L254L
sa(dp14
g6
L10L
sg7
L310L
sa(dp15
g6
L10L
sg7
L351L
sa(dp16
g6
L10L
sg7
L439L
sasVhhints
p17
(lp18
(dp19
g6
L10L
sg7
L-5L
sa(dp20
g6
L10L
sg7
L122L
sa(dp21
g6
L10L
sg7
L255L
sa(dp22
g6
L10L
sg7
L594L
sa(dp23
g6
L10L
sg7
L784L
sa(dp24
g6
L10L
sg7
L846L
sass."
EndChar

StartChar: at
Encoding: 35 64 36
GlifName: at
Width: 1020
VWidth: 0
Flags: MW
LayerCount: 2
Fore
SplineSet
80 237 m 0
 80 491 251 780 558 780 c 0
 814 780 940 597 940 397 c 0
 940 233 846 37 699 37 c 0
 640 37 616 70 607 107 c 1
 573 63 529 32 472 32 c 0
 336 32 289 139 289 230 c 0
 289 366 385 563 583 563 c 0
 677 563 711 494 711 437 c 0
 711 393 695 324 688 296 c 0
 676 233 671 186 671 154 c 0
 671 111 679 95 699 95 c 0
 775 95 874 237 874 397 c 0
 874 577 770 721 558 721 c 0
 306 721 146 475 146 237 c 0
 146 40 254 -131 502 -131 c 0
 570 -131 653 -95 679 -80 c 1
 715 -128 l 1
 681 -149 592 -190 502 -190 c 0
 207 -190 80 21 80 237 c 0
472 97 m 0
 544 97 585 178 609 307 c 0
 615 334 631 407 631 437 c 0
 631 481 610 498 583 498 c 0
 474 498 376 362 376 230 c 0
 376 144 418 97 472 97 c 0
EndSplineSet
PickledDataWithLists: "(dp0
Vcom.fontlab.hintData
p1
(dp2
Vvhints
p3
(lp4
(dp5
Vwidth
p6
L10L
sVposition
p7
L74L
sa(dp8
g6
L10L
sg7
L143L
sa(dp9
g6
L10L
sg7
L293L
sa(dp10
g6
L10L
sg7
L372L
sa(dp11
g6
L10L
sg7
L622L
sa(dp12
g6
L10L
sg7
L670L
sa(dp13
g6
L10L
sg7
L702L
sa(dp14
g6
L10L
sg7
L726L
sa(dp15
g6
L10L
sg7
L865L
sa(dp16
g6
L10L
sg7
L935L
sasVhhints
p17
(lp18
(dp19
g6
L10L
sg7
L-179L
sa(dp20
g6
L10L
sg7
L-131L
sa(dp21
g6
L10L
sg7
L-76L
sa(dp22
g6
L10L
sg7
L38L
sa(dp23
g6
L10L
sg7
L92L
sa(dp24
g6
L10L
sg7
L352L
sa(dp25
g6
L10L
sg7
L399L
sa(dp26
g6
L10L
sg7
L490L
sa(dp27
g6
L10L
sg7
L544L
sa(dp28
g6
L10L
sg7
L711L
sa(dp29
g6
L10L
sg7
L759L
sass."
EndChar

StartChar: A
Encoding: 36 65 37
GlifName: A_
Width: 750
VWidth: 0
Flags: MW
AnchorPoint: "LatinOgonek.mark" 670 0 basechar 0
AnchorPoint: "LatinBelow.mark" 375 0 basechar 0
AnchorPoint: "LatinAbove.mark" 375 150 basechar 0
LayerCount: 2
Fore
SplineSet
735 0 m 1
 599 0 l 1
 540 167 l 1
 210 167 l 1
 151 0 l 1
 15 0 l 1
 15 8 l 1
 325 780 l 1
 425 780 l 1
 735 8 l 1
 735 0 l 1
510 253 m 1
 375 638 l 1
 240 253 l 1
 510 253 l 1
EndSplineSet
PickledDataWithLists: "(dp0
Vcom.fontlab.hintData
p1
(dp2
Vvhints
p3
(lp4
(dp5
Vwidth
p6
L10L
sVposition
p7
L33L
sa(dp8
g6
L10L
sg7
L39L
sa(dp9
g6
L10L
sg7
L763L
sasVhhints
p10
(lp11
(dp12
g6
L10L
sg7
L-16L
sa(dp13
g6
L10L
sg7
L3L
sa(dp14
g6
L10L
sg7
L179L
sa(dp15
g6
L10L
sg7
L209L
sa(dp16
g6
L10L
sg7
L271L
sa(dp17
g6
L10L
sg7
L810L
sass."
EndChar

StartChar: B
Encoding: 37 66 38
GlifName: B_
Width: 745
VWidth: 0
Flags: MW
AnchorPoint: "LatinBelow.mark" 320 0 basechar 0
AnchorPoint: "LatinAbove.mark" 320 150 basechar 0
LayerCount: 2
Fore
SplineSet
510 433 m 1
 620 403 690 334 690 226 c 0
 690 77 557 -9 370 -9 c 0
 249 -9 108 -1 90 0 c 1
 90 780 l 1
 106 781 232 789 340 789 c 0
 491 789 615 721 615 593 c 0
 615 514 570 463 510 433 c 1
370 450 m 1
 435 457 498 499 498 583 c 0
 498 668 429 704 326 704 c 0
 275 704 225 700 203 699 c 1
 203 446 l 1
 252 448 312 450 370 450 c 1
203 81 m 1
 240 79 302 77 356 77 c 0
 475 77 572 115 572 226 c 0
 572 337 475 371 356 371 c 0
 302 371 240 369 203 367 c 1
 203 81 l 1
EndSplineSet
PickledDataWithLists: "(dp0
Vcom.fontlab.hintData
p1
(dp2
Vvhints
p3
(lp4
(dp5
Vwidth
p6
L10L
sVposition
p7
L26L
sa(dp8
g6
L10L
sg7
L116L
sa(dp9
g6
L10L
sg7
L121L
sa(dp10
g6
L10L
sg7
L223L
sa(dp11
g6
L10L
sg7
L537L
sa(dp12
g6
L10L
sg7
L636L
sa(dp13
g6
L10L
sg7
L735L
sasVhhints
p14
(lp15
(dp16
g6
L10L
sg7
L-22L
sa(dp17
g6
L10L
sg7
L49L
sa(dp18
g6
L10L
sg7
L395L
sa(dp19
g6
L10L
sg7
L634L
sa(dp20
g6
L10L
sg7
L661L
sa(dp21
g6
L10L
sg7
L742L
sa(dp22
g6
L10L
sg7
L809L
sass."
Colour: ff00
EndChar

StartChar: C
Encoding: 38 67 39
GlifName: C_
Width: 755
VWidth: 0
Flags: MW
AnchorPoint: "LatinCedilla.mark" 412 0 basechar 0
AnchorPoint: "LatinBelow.mark" 410 0 basechar 0
AnchorPoint: "LatinAbove.mark" 410 150 basechar 0
LayerCount: 2
Fore
SplineSet
60 406 m 2
 60 590 140 799 412 799 c 0
 612 799 700 670 715 589 c 1
 592 577 l 1
 581 634 522 708 412 708 c 0
 261 708 186 590 186 406 c 2
 186 374 l 2
 186 190 261 72 412 72 c 0
 522 72 581 146 592 203 c 1
 715 191 l 1
 700 110 612 -19 412 -19 c 0
 140 -19 60 190 60 374 c 2
 60 406 l 2
EndSplineSet
PickledDataWithLists: "(dp0
Vcom.fontlab.hintData
p1
(dp2
Vvhints
p3
(lp4
(dp5
Vwidth
p6
L10L
sVposition
p7
L68L
sa(dp8
g6
L10L
sg7
L172L
sa(dp9
g6
L10L
sg7
L569L
sa(dp10
g6
L10L
sg7
L673L
sa(dp11
g6
L10L
sg7
L707L
sasVhhints
p12
(lp13
(dp14
g6
L10L
sg7
L-20L
sa(dp15
g6
L10L
sg7
L52L
sa(dp16
g6
L10L
sg7
L169L
sa(dp17
g6
L10L
sg7
L586L
sa(dp18
g6
L10L
sg7
L739L
sa(dp19
g6
L10L
sg7
L811L
sass."
Colour: ff00
EndChar

StartChar: D
Encoding: 39 68 40
GlifName: D_
Width: 770
VWidth: 0
Flags: MW
AnchorPoint: "LatinBelow.mark" 320 0 basechar 0
AnchorPoint: "LatinAbove.mark" 320 150 basechar 0
LayerCount: 2
Fore
SplineSet
210 80 m 1
 237 79 269 78 293 78 c 0
 511 78 590 202 590 376 c 2
 590 404 l 2
 590 578 511 702 293 702 c 0
 269 702 237 701 210 700 c 1
 210 80 l 1
90 780 m 1
 90 780 200 789 293 789 c 0
 606 789 710 592 710 404 c 2
 710 376 l 2
 710 188 606 -9 293 -9 c 0
 200 -9 90 0 90 0 c 1
 90 780 l 1
EndSplineSet
PickledDataWithLists: "(dp0
Vcom.fontlab.hintData
p1
(dp2
Vvhints
p3
(lp4
(dp5
Vwidth
p6
L10L
sVposition
p7
L26L
sa(dp8
g6
L10L
sg7
L116L
sa(dp9
g6
L10L
sg7
L121L
sa(dp10
g6
L10L
sg7
L223L
sa(dp11
g6
L10L
sg7
L630L
sa(dp12
g6
L10L
sg7
L729L
sasVhhints
p13
(lp14
(dp15
g6
L10L
sg7
L-21L
sa(dp16
g6
L10L
sg7
L49L
sa(dp17
g6
L10L
sg7
L634L
sa(dp18
g6
L10L
sg7
L661L
sa(dp19
g6
L10L
sg7
L742L
sa(dp20
g6
L10L
sg7
L810L
sass."
EndChar

StartChar: E
Encoding: 40 69 41
GlifName: E_
Width: 675
VWidth: 0
Flags: MW
AnchorPoint: "LatinOgonek.mark" 545 0 basechar 0
AnchorPoint: "LatinBelow.mark" 350 0 basechar 0
AnchorPoint: "LatinAbove.mark" 350 150 basechar 0
LayerCount: 2
Fore
SplineSet
90 0 m 1
 90 780 l 1
 605 780 l 1
 605 687 l 1
 210 687 l 1
 210 428 l 1
 569 428 l 1
 569 342 l 1
 210 342 l 1
 210 93 l 1
 620 93 l 1
 620 0 l 1
 90 0 l 1
EndSplineSet
PickledDataWithLists: "(dp0
Vcom.fontlab.hintData
p1
(dp2
Vvhints
p3
(lp4
(dp5
Vwidth
p6
L10L
sVposition
p7
L66L
sa(dp8
g6
L10L
sg7
L106L
sa(dp9
g6
L10L
sg7
L121L
sa(dp10
g6
L10L
sg7
L204L
sa(dp11
g6
L10L
sg7
L220L
sa(dp12
g6
L10L
sg7
L564L
sa(dp13
g6
L10L
sg7
L644L
sa(dp14
g6
L10L
sg7
L674L
sasVhhints
p15
(lp16
(dp17
g6
L10L
sg7
L-24L
sa(dp18
g6
L10L
sg7
L-9L
sa(dp19
g6
L10L
sg7
L46L
sa(dp20
g6
L10L
sg7
L59L
sa(dp21
g6
L10L
sg7
L361L
sa(dp22
g6
L10L
sg7
L423L
sa(dp23
g6
L10L
sg7
L726L
sa(dp24
g6
L10L
sg7
L794L
sa(dp25
g6
L10L
sg7
L799L
sa(dp26
g6
L10L
sg7
L804L
sass."
Colour: ff00
EndChar

StartChar: F
Encoding: 41 70 42
GlifName: F_
Width: 640
VWidth: 0
Flags: MW
AnchorPoint: "LatinBelow.mark" 160 0 basechar 0
AnchorPoint: "LatinAbove.mark" 340 150 basechar 0
LayerCount: 2
Fore
SplineSet
90 0 m 1
 90 780 l 1
 595 780 l 1
 595 687 l 1
 212 687 l 1
 212 431 l 1
 559 431 l 1
 559 339 l 1
 212 339 l 1
 212 0 l 1
 90 0 l 1
EndSplineSet
PickledDataWithLists: "(dp0
Vcom.fontlab.hintData
p1
(dp2
Vvhints
p3
(lp4
(dp5
Vwidth
p6
L10L
sVposition
p7
L59L
sa(dp8
g6
L10L
sg7
L66L
sa(dp9
g6
L10L
sg7
L116L
sa(dp10
g6
L10L
sg7
L124L
sa(dp11
g6
L10L
sg7
L214L
sa(dp12
g6
L10L
sg7
L222L
sa(dp13
g6
L10L
sg7
L564L
sa(dp14
g6
L10L
sg7
L644L
sasVhhints
p15
(lp16
(dp17
g6
L10L
sg7
L-14L
sa(dp18
g6
L10L
sg7
L355L
sa(dp19
g6
L10L
sg7
L360L
sa(dp20
g6
L10L
sg7
L423L
sa(dp21
g6
L10L
sg7
L726L
sa(dp22
g6
L10L
sg7
L794L
sa(dp23
g6
L10L
sg7
L799L
sa(dp24
g6
L10L
sg7
L804L
sass."
Colour: ff00
EndChar

StartChar: G
Encoding: 42 71 43
GlifName: G_
Width: 770
VWidth: 0
Flags: MW
AnchorPoint: "LatinBelow.mark" 410 0 basechar 0
AnchorPoint: "LatinAbove.mark" 410 150 basechar 0
LayerCount: 2
Fore
SplineSet
419 302 m 1
 419 388 l 1
 710 388 l 1
 710 137 l 1
 677 71 585 -19 412 -19 c 0
 140 -19 60 190 60 374 c 2
 60 406 l 2
 60 590 140 799 412 799 c 0
 612 799 700 670 715 589 c 1
 593 577 l 1
 582 634 524 709 412 709 c 0
 259 709 183 592 183 406 c 2
 183 374 l 2
 183 188 259 71 412 71 c 0
 519 71 572 112 600 151 c 1
 600 302 l 1
 419 302 l 1
EndSplineSet
PickledDataWithLists: "(dp0
Vcom.fontlab.hintData
p1
(dp2
Vvhints
p3
(lp4
(dp5
Vwidth
p6
L10L
sVposition
p7
L71L
sa(dp8
g6
L10L
sg7
L169L
sa(dp9
g6
L10L
sg7
L386L
sa(dp10
g6
L10L
sg7
L572L
sa(dp11
g6
L10L
sg7
L615L
sa(dp12
g6
L10L
sg7
L670L
sa(dp13
g6
L10L
sg7
L715L
sasVhhints
p14
(lp15
(dp16
g6
L10L
sg7
L-24L
sa(dp17
g6
L10L
sg7
L44L
sa(dp18
g6
L10L
sg7
L290L
sa(dp19
g6
L10L
sg7
L390L
sa(dp20
g6
L10L
sg7
L587L
sa(dp21
g6
L10L
sg7
L741L
sa(dp22
g6
L10L
sg7
L810L
sass."
Colour: ff00
EndChar

StartChar: H
Encoding: 43 72 44
GlifName: H_
Width: 790
VWidth: 0
Flags: MW
AnchorPoint: "LatinBelow.mark" 395 0 basechar 0
AnchorPoint: "LatinAbove.mark" 395 150 basechar 0
LayerCount: 2
Fore
SplineSet
90 0 m 1
 90 780 l 1
 210 780 l 1
 210 436 l 1
 580 436 l 1
 580 780 l 1
 700 780 l 1
 700 0 l 1
 580 0 l 1
 580 344 l 1
 210 344 l 1
 210 0 l 1
 90 0 l 1
EndSplineSet
PickledDataWithLists: "(dp0
Vcom.fontlab.hintData
p1
(dp2
Vvhints
p3
(lp4
(dp5
Vwidth
p6
L10L
sVposition
p7
L66L
sa(dp8
g6
L10L
sg7
L101L
sa(dp9
g6
L10L
sg7
L111L
sa(dp10
g6
L10L
sg7
L211L
sa(dp11
g6
L10L
sg7
L605L
sa(dp12
g6
L10L
sg7
L704L
sa(dp13
g6
L10L
sg7
L744L
sasVhhints
p14
(lp15
(dp16
g6
L10L
sg7
L-14L
sa(dp17
g6
L10L
sg7
L355L
sa(dp18
g6
L10L
sg7
L423L
sa(dp19
g6
L10L
sg7
L794L
sa(dp20
g6
L10L
sg7
L799L
sass."
Colour: ff00
EndChar

StartChar: I
Encoding: 44 73 45
GlifName: I_
Width: 320
VWidth: 0
Flags: MW
AnchorPoint: "LatinOgonek.mark" 165 0 basechar 0
AnchorPoint: "LatinBelow.mark" 160 0 basechar 0
AnchorPoint: "LatinAbove.mark" 160 150 basechar 0
LayerCount: 2
Fore
SplineSet
100 0 m 1
 100 780 l 1
 220 780 l 1
 220 0 l 1
 100 0 l 1
EndSplineSet
PickledDataWithLists: "(dp0
Vcom.fontlab.hintData
p1
(dp2
Vvhints
p3
(lp4
(dp5
Vwidth
p6
L10L
sVposition
p7
L53L
sa(dp8
g6
L10L
sg7
L77L
sa(dp9
g6
L10L
sg7
L188L
sa(dp10
g6
L10L
sg7
L194L
sa(dp11
g6
L10L
sg7
L282L
sa(dp12
g6
L10L
sg7
L288L
sa(dp13
g6
L10L
sg7
L414L
sasVhhints
p14
(lp15
(dp16
g6
L10L
sg7
L-3L
sa(dp17
g6
L10L
sg7
L3L
sa(dp18
g6
L10L
sg7
L59L
sa(dp19
g6
L10L
sg7
L67L
sa(dp20
g6
L10L
sg7
L729L
sa(dp21
g6
L10L
sg7
L788L
sass."
Colour: ff00
EndChar

StartChar: J
Encoding: 45 74 46
GlifName: J_
Width: 520
VWidth: 0
Flags: MW
AnchorPoint: "LatinBelow.mark" 230 0 basechar 0
AnchorPoint: "LatinAbove.mark" 360 150 basechar 0
LayerCount: 2
Fore
SplineSet
20 138 m 1
 141 147 l 1
 149 93 181 67 225 67 c 0
 269 67 309 91 309 164 c 2
 309 780 l 1
 430 780 l 1
 430 164 l 2
 430 66 356 -19 225 -19 c 0
 94 -19 31 64 20 138 c 1
EndSplineSet
PickledDataWithLists: "(dp0
Vcom.fontlab.hintData
p1
(dp2
Vvhints
p3
(lp4
(dp5
Vwidth
p6
L10L
sVposition
p7
L16L
sa(dp8
g6
L10L
sg7
L152L
sa(dp9
g6
L10L
sg7
L318L
sa(dp10
g6
L10L
sg7
L412L
sa(dp11
g6
L10L
sg7
L492L
sasVhhints
p12
(lp13
(dp14
g6
L10L
sg7
L-14L
sa(dp15
g6
L9L
sg7
L55L
sa(dp16
g6
L10L
sg7
L129L
sa(dp17
g6
L10L
sg7
L730L
sa(dp18
g6
L10L
sg7
L788L
sass."
Colour: ff00
EndChar

StartChar: K
Encoding: 46 75 47
GlifName: K_
Width: 715
VWidth: 0
Flags: MW
AnchorPoint: "LatinBelow.mark" 360 0 basechar 0
AnchorPoint: "LatinAbove.mark" 360 150 basechar 0
LayerCount: 2
Fore
SplineSet
90 0 m 1
 90 780 l 1
 206 780 l 1
 206 408 l 1
 534 780 l 1
 668 771 l 1
 668 765 l 1
 367 450 l 1
 710 6 l 1
 710 0 l 1
 569 0 l 1
 291 369 l 1
 206 281 l 1
 206 0 l 1
 90 0 l 1
EndSplineSet
PickledDataWithLists: "(dp0
Vcom.fontlab.hintData
p1
(dp2
Vvhints
p3
(lp4
(dp5
Vwidth
p6
L10L
sVposition
p7
L64L
sa(dp8
g6
L10L
sg7
L86L
sa(dp9
g6
L10L
sg7
L116L
sa(dp10
g6
L10L
sg7
L211L
sa(dp11
g6
L10L
sg7
L219L
sa(dp12
g6
L10L
sg7
L679L
sa(dp13
g6
L10L
sg7
L734L
sasVhhints
p14
(lp15
(dp16
g6
L10L
sg7
L-14L
sa(dp17
g6
L10L
sg7
L-9L
sa(dp18
g6
L10L
sg7
L799L
sass."
Colour: ff00
EndChar

StartChar: L
Encoding: 47 76 48
GlifName: L_
Width: 570
VWidth: 0
Flags: MW
AnchorPoint: "LatinBelow.mark" 320 0 basechar 0
AnchorPoint: "LatinAbove.mark" 160 150 basechar 0
LayerCount: 2
Fore
SplineSet
90 0 m 1
 90 780 l 1
 212 780 l 1
 212 93 l 1
 545 93 l 1
 545 0 l 1
 90 0 l 1
EndSplineSet
PickledDataWithLists: "(dp0
Vcom.fontlab.hintData
p1
(dp2
Vvhints
p3
(lp4
(dp5
Vwidth
p6
L10L
sVposition
p7
L126L
sa(dp8
g6
L10L
sg7
L131L
sa(dp9
g6
L10L
sg7
L144L
sa(dp10
g6
L10L
sg7
L224L
sa(dp11
g6
L10L
sg7
L242L
sa(dp12
g6
L10L
sg7
L624L
sasVhhints
p13
(lp14
(dp15
g6
L10L
sg7
L-23L
sa(dp16
g6
L10L
sg7
L-9L
sa(dp17
g6
L10L
sg7
L45L
sa(dp18
g6
L10L
sg7
L59L
sa(dp19
g6
L10L
sg7
L794L
sass."
Colour: ff00
EndChar

StartChar: M
Encoding: 48 77 49
GlifName: M_
Width: 880
VWidth: 0
Flags: MW
AnchorPoint: "LatinBelow.mark" 440 0 basechar 0
AnchorPoint: "LatinAbove.mark" 440 150 basechar 0
LayerCount: 2
Fore
SplineSet
790 0 m 1
 671 0 l 1
 671 554 l 1
 469 195 l 1
 411 195 l 1
 209 554 l 1
 209 0 l 1
 90 0 l 1
 90 769 l 1
 190 780 l 1
 440 318 l 1
 690 780 l 1
 790 769 l 1
 790 0 l 1
EndSplineSet
PickledDataWithLists: "(dp0
Vcom.fontlab.hintData
p1
(dp2
Vvhints
p3
(lp4
(dp5
Vwidth
p6
L10L
sVposition
p7
L66L
sa(dp8
g6
L10L
sg7
L102L
sa(dp9
g6
L10L
sg7
L197L
sa(dp10
g6
L10L
sg7
L691L
sa(dp11
g6
L10L
sg7
L785L
sa(dp12
g6
L10L
sg7
L824L
sasVhhints
p13
(lp14
(dp15
g6
L10L
sg7
L-19L
sa(dp16
g6
L10L
sg7
L-9L
sa(dp17
g6
L10L
sg7
L137L
sa(dp18
g6
L20L
sg7
L604L
sa(dp19
g6
L10L
sg7
L783L
sa(dp20
g6
L10L
sg7
L795L
sass."
Colour: ff00
EndChar

StartChar: N
Encoding: 49 78 50
GlifName: N_
Width: 790
VWidth: 0
Flags: MW
AnchorPoint: "LatinBelow.mark" 395 0 basechar 0
AnchorPoint: "LatinAbove.mark" 395 150 basechar 0
LayerCount: 2
Fore
SplineSet
90 0 m 1
 90 769 l 1
 193 780 l 1
 583 193 l 1
 583 780 l 1
 700 780 l 1
 700 0 l 1
 597 0 l 1
 207 587 l 1
 207 0 l 1
 90 0 l 1
EndSplineSet
PickledDataWithLists: "(dp0
Vcom.fontlab.hintData
p1
(dp2
Vvhints
p3
(lp4
(dp5
Vwidth
p6
L10L
sVposition
p7
L97L
sa(dp8
g6
L10L
sg7
L111L
sa(dp9
g6
L10L
sg7
L209L
sa(dp10
g6
L10L
sg7
L601L
sa(dp11
g6
L10L
sg7
L613L
sa(dp12
g6
L10L
sg7
L699L
sa(dp13
g6
L10L
sg7
L711L
sasVhhints
p14
(lp15
(dp16
g6
L10L
sg7
L-14L
sa(dp17
g6
L10L
sg7
L-8L
sa(dp18
g6
L10L
sg7
L794L
sass."
Colour: ff00
EndChar

StartChar: O
Encoding: 50 79 51
GlifName: O_
Width: 820
VWidth: 0
Flags: MW
AnchorPoint: "LatinOgonek.mark" 480 0 basechar 0
AnchorPoint: "LatinBelow.mark" 410 0 basechar 0
AnchorPoint: "LatinAbove.mark" 410 150 basechar 0
LayerCount: 2
Fore
SplineSet
60 372 m 2
 60 408 l 2
 60 590 138 799 410 799 c 0
 682 799 760 590 760 408 c 2
 760 372 l 2
 760 190 682 -19 410 -19 c 0
 138 -19 60 190 60 372 c 2
410 71 m 0
 563 71 637 189 637 372 c 2
 637 408 l 2
 637 591 563 709 410 709 c 0
 257 709 183 591 183 408 c 2
 183 372 l 2
 183 189 257 71 410 71 c 0
EndSplineSet
PickledDataWithLists: "(dp0
Vcom.fontlab.hintData
p1
(dp2
Vvhints
p3
(lp4
(dp5
Vwidth
p6
L10L
sVposition
p7
L66L
sa(dp8
g6
L10L
sg7
L164L
sa(dp9
g6
L10L
sg7
L572L
sa(dp10
g6
L10L
sg7
L659L
sa(dp11
g6
L10L
sg7
L690L
sa(dp12
g6
L10L
sg7
L757L
sasVhhints
p13
(lp14
(dp15
g6
L10L
sg7
L-22L
sa(dp16
g6
L10L
sg7
L47L
sa(dp17
g6
L10L
sg7
L742L
sa(dp18
g6
L10L
sg7
L811L
sass."
Colour: ff00
EndChar

StartChar: P
Encoding: 51 80 52
GlifName: P_
Width: 710
VWidth: 0
Flags: MW
AnchorPoint: "LatinBelow.mark" 160 0 basechar 0
AnchorPoint: "LatinAbove.mark" 360 150 basechar 0
LayerCount: 2
Fore
SplineSet
209 410 m 1
 241 408 288 406 336 406 c 0
 455 406 551 443 551 554 c 0
 551 665 455 703 336 703 c 0
 288 703 241 701 209 699 c 1
 209 410 l 1
209 323 m 1
 209 0 l 1
 90 0 l 1
 90 329 l 1
 90 780 l 1
 108 781 229 789 350 789 c 0
 537 789 670 703 670 554 c 0
 670 405 537 320 350 320 c 0
 301 320 251 321 209 323 c 1
EndSplineSet
PickledDataWithLists: "(dp0
Vcom.fontlab.hintData
p1
(dp2
Vvhints
p3
(lp4
(dp5
Vwidth
p6
L10L
sVposition
p7
L26L
sa(dp8
g6
L10L
sg7
L36L
sa(dp9
g6
L10L
sg7
L116L
sa(dp10
g6
L10L
sg7
L130L
sa(dp11
g6
L10L
sg7
L228L
sa(dp12
g6
L10L
sg7
L592L
sa(dp13
g6
L10L
sg7
L693L
sasVhhints
p14
(lp15
(dp16
g6
L10L
sg7
L-24L
sa(dp17
g6
L10L
sg7
L302L
sa(dp18
g6
L10L
sg7
L369L
sa(dp19
g6
L10L
sg7
L429L
sa(dp20
g6
L10L
sg7
L634L
sa(dp21
g6
L10L
sg7
L661L
sa(dp22
g6
L10L
sg7
L744L
sa(dp23
g6
L10L
sg7
L813L
sass."
Colour: ff00
EndChar

StartChar: Q
Encoding: 52 81 53
GlifName: Q_
Width: 820
VWidth: 0
Flags: MW
AnchorPoint: "LatinBelow.mark" 410 0 basechar 0
AnchorPoint: "LatinAbove.mark" 410 150 basechar 0
LayerCount: 2
Fore
SplineSet
60 372 m 2
 60 408 l 2
 60 590 138 799 410 799 c 0
 682 799 760 590 760 408 c 2
 760 372 l 2
 760 285 742 192 694 119 c 1
 800 36 l 1
 749 -32 l 1
 640 56 l 1
 586 10 512 -19 410 -19 c 0
 138 -19 60 190 60 372 c 2
385 263 m 1
 432 325 l 1
 603 191 l 1
 626 239 637 301 637 372 c 2
 637 408 l 2
 637 591 563 709 410 709 c 0
 257 709 183 591 183 408 c 2
 183 372 l 2
 183 189 257 71 410 71 c 0
 471 71 520 90 556 124 c 1
 385 263 l 1
EndSplineSet
PickledDataWithLists: "(dp0
Vcom.fontlab.hintData
p1
(dp2
Vvhints
p3
(lp4
(dp5
Vwidth
p6
L10L
sVposition
p7
L66L
sa(dp8
g6
L10L
sg7
L164L
sa(dp9
g6
L10L
sg7
L407L
sa(dp10
g6
L10L
sg7
L491L
sa(dp11
g6
L10L
sg7
L675L
sa(dp12
g6
L10L
sg7
L690L
sa(dp13
g6
L10L
sg7
L760L
sa(dp14
g6
L10L
sg7
L769L
sasVhhints
p15
(lp16
(dp17
g6
L10L
sg7
L-206L
sa(dp18
g6
L10L
sg7
L-17L
sa(dp19
g6
L10L
sg7
L46L
sa(dp20
g6
L10L
sg7
L514L
sa(dp21
g6
L10L
sg7
L576L
sa(dp22
g6
L10L
sg7
L598L
sa(dp23
g6
L10L
sg7
L742L
sa(dp24
g6
L10L
sg7
L811L
sass."
Colour: ff00
EndChar

StartChar: R
Encoding: 53 82 54
GlifName: R_
Width: 730
VWidth: 0
Flags: MW
AnchorPoint: "LatinBelow.mark" 360 0 basechar 0
AnchorPoint: "LatinAbove.mark" 360 150 basechar 0
LayerCount: 2
Fore
SplineSet
304 320 m 1
 271 321 238 322 209 323 c 1
 209 0 l 1
 90 0 l 1
 90 329 l 1
 90 780 l 1
 108 781 229 789 350 789 c 0
 537 789 670 703 670 554 c 0
 670 428 576 348 434 326 c 1
 700 6 l 1
 700 0 l 1
 564 0 l 1
 304 320 l 1
209 410 m 1
 241 408 288 406 336 406 c 0
 455 406 551 443 551 554 c 0
 551 665 455 703 336 703 c 0
 288 703 241 701 209 699 c 1
 209 410 l 1
EndSplineSet
PickledDataWithLists: "(dp0
Vcom.fontlab.hintData
p1
(dp2
Vvhints
p3
(lp4
(dp5
Vwidth
p6
L10L
sVposition
p7
L26L
sa(dp8
g6
L10L
sg7
L116L
sa(dp9
g6
L10L
sg7
L126L
sa(dp10
g6
L10L
sg7
L228L
sa(dp11
g6
L10L
sg7
L605L
sa(dp12
g6
L10L
sg7
L705L
sa(dp13
g6
L10L
sg7
L734L
sasVhhints
p14
(lp15
(dp16
g6
L10L
sg7
L-29L
sa(dp17
g6
L10L
sg7
L-24L
sa(dp18
g6
L10L
sg7
L332L
sa(dp19
g6
L10L
sg7
L401L
sa(dp20
g6
L10L
sg7
L430L
sa(dp21
g6
L10L
sg7
L634L
sa(dp22
g6
L10L
sg7
L661L
sa(dp23
g6
L10L
sg7
L745L
sa(dp24
g6
L10L
sg7
L812L
sass."
Colour: ff00
EndChar

StartChar: S
Encoding: 54 83 55
GlifName: S_
Width: 710
VWidth: 0
Flags: MW
AnchorPoint: "LatinCedilla.mark" 380 0 basechar 0
AnchorPoint: "LatinBelow.mark" 355 0 basechar 0
AnchorPoint: "LatinAbove.mark" 355 150 basechar 0
LayerCount: 2
Fore
SplineSet
55 179 m 1
 174 196 l 1
 184 137 242 68 355 68 c 0
 475 68 538 118 538 200 c 0
 538 276 483 305 441 317 c 0
 384 333 297 360 239 381 c 0
 168 407 73 466 73 579 c 0
 73 706 187 799 355 799 c 0
 533 799 620 683 635 605 c 1
 516 588 l 1
 505 646 449 712 355 712 c 0
 254 712 190 661 190 584 c 0
 190 521 242 497 291 478 c 0
 346 458 431 432 483 416 c 0
 564 391 655 331 655 206 c 0
 655 78 542 -19 355 -19 c 0
 161 -19 70 99 55 179 c 1
EndSplineSet
PickledDataWithLists: "(dp0
Vcom.fontlab.hintData
p1
(dp2
Vvhints
p3
(lp4
(dp5
Vwidth
p6
L10L
sVposition
p7
L60L
sa(dp8
g6
L10L
sg7
L68L
sa(dp9
g6
L10L
sg7
L159L
sa(dp10
g6
L10L
sg7
L494L
sa(dp11
g6
L10L
sg7
L555L
sa(dp12
g6
L10L
sg7
L594L
sa(dp13
g6
L10L
sg7
L654L
sasVhhints
p14
(lp15
(dp16
g6
L10L
sg7
L-22L
sa(dp17
g6
L10L
sg7
L46L
sa(dp18
g6
L10L
sg7
L192L
sa(dp19
g6
L10L
sg7
L584L
sa(dp20
g6
L10L
sg7
L744L
sa(dp21
g6
L10L
sg7
L812L
sass."
Colour: ff00
EndChar

StartChar: T
Encoding: 55 84 56
GlifName: T_
Width: 620
VWidth: 0
Flags: MW
AnchorPoint: "LatinCedilla.mark" 320 0 basechar 0
AnchorPoint: "LatinBelow.mark" 310 0 basechar 0
AnchorPoint: "LatinAbove.mark" 310 150 basechar 0
LayerCount: 2
Fore
SplineSet
30 691 m 1
 30 780 l 1
 590 780 l 1
 590 691 l 1
 370 691 l 1
 370 0 l 1
 250 0 l 1
 250 691 l 1
 30 691 l 1
EndSplineSet
PickledDataWithLists: "(dp0
Vcom.fontlab.hintData
p1
(dp2
Vvhints
p3
(lp4
(dp5
Vwidth
p6
L10L
sVposition
p7
L25L
sa(dp8
g6
L10L
sg7
L301L
sa(dp9
g6
L10L
sg7
L306L
sa(dp10
g6
L10L
sg7
L407L
sa(dp11
g6
L10L
sg7
L674L
sasVhhints
p12
(lp13
(dp14
g6
L10L
sg7
L-19L
sa(dp15
g6
L10L
sg7
L722L
sa(dp16
g6
L10L
sg7
L731L
sa(dp17
g6
L10L
sg7
L790L
sa(dp18
g6
L10L
sg7
L800L
sass."
Colour: ff00
EndChar

StartChar: U
Encoding: 56 85 57
GlifName: U_
Width: 770
VWidth: 0
Flags: MW
AnchorPoint: "LatinOgonek.mark" 480 0 basechar 0
AnchorPoint: "LatinBelow.mark" 385 0 basechar 0
AnchorPoint: "LatinAbove.mark" 385 150 basechar 0
LayerCount: 2
Fore
SplineSet
80 240 m 2
 80 780 l 1
 202 780 l 1
 202 240 l 2
 202 127 279 71 385 71 c 0
 491 71 568 127 568 240 c 2
 568 780 l 1
 690 780 l 1
 690 240 l 2
 690 93 571 -18 385 -18 c 0
 199 -18 80 93 80 240 c 2
EndSplineSet
PickledDataWithLists: "(dp0
Vcom.fontlab.hintData
p1
(dp2
Vvhints
p3
(lp4
(dp5
Vwidth
p6
L10L
sVposition
p7
L96L
sa(dp8
g6
L10L
sg7
L107L
sa(dp9
g6
L10L
sg7
L194L
sa(dp10
g6
L10L
sg7
L205L
sa(dp11
g6
L10L
sg7
L603L
sa(dp12
g6
L10L
sg7
L616L
sa(dp13
g6
L10L
sg7
L704L
sa(dp14
g6
L10L
sg7
L714L
sasVhhints
p15
(lp16
(dp17
g6
L10L
sg7
L-24L
sa(dp18
g6
L10L
sg7
L44L
sa(dp19
g6
L10L
sg7
L789L
sass."
EndChar

StartChar: V
Encoding: 57 86 58
GlifName: V_
Width: 750
VWidth: 0
Flags: MW
AnchorPoint: "LatinBelow.mark" 375 0 basechar 0
AnchorPoint: "LatinAbove.mark" 375 150 basechar 0
LayerCount: 2
Fore
SplineSet
20 761 m 1
 20 769 l 1
 161 780 l 1
 375 148 l 1
 589 780 l 1
 730 769 l 1
 730 761 l 1
 425 0 l 1
 325 0 l 1
 20 761 l 1
EndSplineSet
PickledDataWithLists: "(dp0
Vcom.fontlab.hintData
p1
(dp2
Vvhints
p3
(lp4
(dp5
Vwidth
p6
L10L
sVposition
p7
L41L
sa(dp8
g6
L10L
sg7
L759L
sasVhhints
p9
(lp10
(dp11
g6
L10L
sg7
L-21L
sa(dp12
g6
L10L
sg7
L781L
sa(dp13
g6
L10L
sg7
L794L
sass."
EndChar

StartChar: W
Encoding: 58 87 59
GlifName: W_
Width: 1060
VWidth: 0
Flags: MW
AnchorPoint: "LatinBelow.mark" 530 0 basechar 0
AnchorPoint: "LatinAbove.mark" 530 150 basechar 0
LayerCount: 2
Fore
SplineSet
1035 761 m 1
 807 0 l 1
 703 0 l 1
 530 590 l 1
 357 0 l 1
 253 0 l 1
 25 761 l 1
 25 769 l 1
 156 780 l 1
 314 168 l 1
 480 760 l 1
 580 760 l 1
 746 168 l 1
 904 780 l 1
 1035 769 l 1
 1035 761 l 1
EndSplineSet
PickledDataWithLists: "(dp0
Vcom.fontlab.hintData
p1
(dp2
Vvhints
p3
(lp4
(dp5
Vwidth
p6
L10L
sVposition
p7
L46L
sa(dp8
g6
L10L
sg7
L1045L
sasVhhints
p9
(lp10
(dp11
g6
L10L
sg7
L-10L
sa(dp12
g6
L10L
sg7
L762L
sa(dp13
g6
L10L
sg7
L790L
sass."
Colour: ff00
EndChar

StartChar: X
Encoding: 59 88 60
GlifName: X_
Width: 740
VWidth: 0
Flags: MW
AnchorPoint: "LatinBelow.mark" 370 0 basechar 0
AnchorPoint: "LatinAbove.mark" 370 150 basechar 0
LayerCount: 2
Fore
SplineSet
55 761 m 1
 55 768 l 1
 188 780 l 1
 370 490 l 1
 552 780 l 1
 685 768 l 1
 685 761 l 1
 438 415 l 1
 735 6 l 1
 735 0 l 1
 596 0 l 1
 370 319 l 1
 144 0 l 1
 5 0 l 1
 5 6 l 1
 302 415 l 1
 55 761 l 1
EndSplineSet
PickledDataWithLists: "(dp0
Vcom.fontlab.hintData
p1
(dp2
Vvhints
p3
(lp4
(dp5
Vwidth
p6
L10L
sVposition
p7
L31L
sa(dp8
g6
L10L
sg7
L91L
sa(dp9
g6
L10L
sg7
L687L
sa(dp10
g6
L10L
sg7
L734L
sasVhhints
p11
(lp12
(dp13
g6
L10L
sg7
L-9L
sa(dp14
g6
L10L
sg7
L4L
sa(dp15
g6
L10L
sg7
L789L
sass."
Colour: ff00
EndChar

StartChar: Y
Encoding: 60 89 61
GlifName: Y_
Width: 670
VWidth: 0
Flags: MW
AnchorPoint: "LatinBelow.mark" 335 0 basechar 0
AnchorPoint: "LatinAbove.mark" 335 150 basechar 0
LayerCount: 2
Fore
SplineSet
10 761 m 1
 10 769 l 1
 145 780 l 1
 335 412 l 1
 525 780 l 1
 660 769 l 1
 660 761 l 1
 395 295 l 1
 395 0 l 1
 275 0 l 1
 275 295 l 1
 10 761 l 1
EndSplineSet
PickledDataWithLists: "(dp0
Vcom.fontlab.hintData
p1
(dp2
Vvhints
p3
(lp4
(dp5
Vwidth
p6
L10L
sVposition
p7
L35L
sa(dp8
g6
L10L
sg7
L310L
sa(dp9
g6
L10L
sg7
L408L
sa(dp10
g6
L10L
sg7
L414L
sa(dp11
g6
L10L
sg7
L675L
sasVhhints
p12
(lp13
(dp14
g6
L10L
sg7
L-20L
sa(dp15
g6
L10L
sg7
L789L
sa(dp16
g6
L10L
sg7
L800L
sass."
EndChar

StartChar: Z
Encoding: 61 90 62
GlifName: Z_
Width: 670
VWidth: 0
Flags: MW
AnchorPoint: "LatinBelow.mark" 335 0 basechar 0
AnchorPoint: "LatinAbove.mark" 335 150 basechar 0
LayerCount: 2
Fore
SplineSet
35 69 m 1
 464 687 l 1
 61 687 l 1
 61 780 l 1
 616 780 l 1
 625 711 l 1
 197 93 l 1
 635 93 l 1
 635 0 l 1
 44 0 l 1
 35 69 l 1
EndSplineSet
PickledDataWithLists: "(dp0
Vcom.fontlab.hintData
p1
(dp2
Vvhints
p3
(lp4
(dp5
Vwidth
p6
L10L
sVposition
p7
L46L
sa(dp8
g6
L10L
sg7
L66L
sa(dp9
g6
L10L
sg7
L679L
sa(dp10
g6
L10L
sg7
L699L
sasVhhints
p11
(lp12
(dp13
g6
L10L
sg7
L-13L
sa(dp14
g6
L10L
sg7
L64L
sa(dp15
g6
L10L
sg7
L75L
sa(dp16
g6
L10L
sg7
L709L
sa(dp17
g6
L10L
sg7
L779L
sa(dp18
g6
L10L
sg7
L785L
sa(dp19
g6
L10L
sg7
L790L
sass."
Colour: ff00
EndChar

StartChar: bracketleft
Encoding: 62 91 63
GlifName: bracketleft
Width: 435
VWidth: 0
Flags: MW
LayerCount: 2
Fore
SplineSet
120 -120 m 1
 120 900 l 1
 345 900 l 1
 345 831 l 1
 217 831 l 1
 217 -51 l 1
 343 -51 l 1
 343 -120 l 1
 120 -120 l 1
EndSplineSet
PickledDataWithLists: "(dp0
Vcom.fontlab.hintData
p1
(dp2
Vvhints
p3
(lp4
(dp5
Vwidth
p6
L10L
sVposition
p7
L71L
sa(dp8
g6
L10L
sg7
L92L
sa(dp9
g6
L10L
sg7
L161L
sa(dp10
g6
L10L
sg7
L289L
sasVhhints
p11
(lp12
(dp13
g6
L10L
sg7
L-91L
sa(dp14
g6
L10L
sg7
L-44L
sa(dp15
g6
L10L
sg7
L830L
sa(dp16
g6
L10L
sg7
L877L
sass."
EndChar

StartChar: backslash
Encoding: 63 92 64
GlifName: backslash
Width: 510
VWidth: 0
Flags: MW
LayerCount: 2
Fore
SplineSet
470 0 m 1
 367 0 l 1
 40 774 l 1
 40 780 l 1
 142 780 l 1
 470 6 l 1
 470 0 l 1
EndSplineSet
PickledDataWithLists: "(dp0
Vcom.fontlab.hintData
p1
(dp2
Vvhints
p3
(lp4
(dp5
Vwidth
p6
L10L
sVposition
p7
L40L
sa(dp8
g6
L10L
sg7
L430L
sasVhhints
p9
(lp10
(dp11
g6
L10L
sg7
L-29L
sa(dp12
g6
L10L
sg7
L819L
sass."
EndChar

StartChar: asciicircum
Encoding: 65 94 66
GlifName: asciicircum
Width: 630
VWidth: 0
Flags: MW
LayerCount: 2
Fore
SplineSet
30 589 m 1
 293 889 l 1
 337 889 l 1
 600 589 l 1
 542 549 l 1
 315 768 l 1
 88 549 l 1
 30 589 l 1
EndSplineSet
PickledDataWithLists: "(dp0
Vcom.fontlab.hintData
p1
(dp2
Vvhints
p3
(lp4
(dp5
Vwidth
p6
L10L
sVposition
p7
L23L
sasVhhints
p8
(lp9
(dp10
g6
L10L
sg7
L532L
sa(dp11
g6
L10L
sg7
L839L
sass."
EndChar

StartChar: underscore
Encoding: 66 95 67
GlifName: underscore
Width: 600
VWidth: 0
Flags: MW
LayerCount: 2
Fore
SplineSet
0 0 m 25
 600 0 l 25
 600 -86 l 25
 0 -86 l 25
 0 0 l 25
EndSplineSet
PickledDataWithLists: "(dp0
Vcom.fontlab.hintData
p1
(dp2
Vvhints
p3
(lp4
(dp5
Vwidth
p6
L10L
sVposition
p7
L30L
sa(dp8
g6
L10L
sg7
L559L
sasVhhints
p9
(lp10
(dp11
g6
L10L
sg7
L-69L
sa(dp12
g6
L10L
sg7
L-6L
sa(dp13
g6
L10L
sg7
L1L
sass."
EndChar

StartChar: grave
Encoding: 67 96 68
GlifName: grave
Width: 390
VWidth: 0
Flags: MW
LayerCount: 2
Fore
SplineSet
0 824 m 1
 86 888 l 1
 360 589 l 1
 302 549 l 1
 0 824 l 1
EndSplineSet
PickledDataWithLists: "(dp0
Vcom.fontlab.hintData
p1
(dp2
Vvhints
p3
(lp4
(dp5
Vwidth
p6
L10L
sVposition
p7
L20L
sasVhhints
p8
(lp9
(dp10
g6
L10L
sg7
L541L
sa(dp11
g6
L10L
sg7
L838L
sass."
EndChar

StartChar: a
Encoding: 68 97 69
GlifName: a
Width: 625
VWidth: 0
Flags: MW
AnchorPoint: "LatinOgonek.mark" 515 0 basechar 0
AnchorPoint: "LatinBelow.mark" 330 0 basechar 0
AnchorPoint: "LatinAbove.mark" 310 0 basechar 0
LayerCount: 2
Fore
SplineSet
55 173 m 0
 55 249 118 323 252 323 c 0
 317 323 381 318 430 313 c 1
 430 419 l 2
 430 503 373 537 300 537 c 0
 231 537 183 497 173 424 c 1
 60 433 l 1
 73 526 149 619 300 619 c 0
 447 619 540 534 540 419 c 2
 540 143 l 2
 540 87 554 66 605 60 c 1
 577 -14 l 1
 536 -9 473 9 453 75 c 1
 418 26 362 -14 273 -14 c 0
 138 -14 55 58 55 173 c 0
436 245 m 1
 392 251 328 257 258 257 c 0
 210 257 165 228 165 171 c 0
 165 88 224 55 287 55 c 0
 385 55 424 135 436 210 c 1
 436 245 l 1
EndSplineSet
PickledDataWithLists: "(dp0
Vcom.fontlab.hintData
p1
(dp2
Vvhints
p3
(lp4
(dp5
Vwidth
p6
L10L
sVposition
p7
L60L
sa(dp8
g6
L10L
sg7
L149L
sa(dp9
g6
L10L
sg7
L441L
sa(dp10
g6
L10L
sg7
L529L
sa(dp11
g6
L10L
sg7
L649L
sasVhhints
p12
(lp13
(dp14
g6
L10L
sg7
L-21L
sa(dp15
g6
L10L
sg7
L-11L
sa(dp16
g6
L10L
sg7
L41L
sa(dp17
g6
L10L
sg7
L362L
sa(dp18
g6
L10L
sg7
L432L
sa(dp19
g6
L10L
sg7
L549L
sa(dp20
g6
L10L
sg7
L611L
sass."
Substitution2: "Latin.ss20 subtable" uni0251
Substitution2: "Latin.ss19 subtable" uni0251
Colour: ff00
EndChar

StartChar: b
Encoding: 69 98 70
GlifName: b
Width: 675
VWidth: 0
Flags: MW
AnchorPoint: "LatinBelow.mark" 360 0 basechar 0
AnchorPoint: "LatinAbove.mark" 135 180 basechar 0
LayerCount: 2
Fore
SplineSet
620 311 m 2
 620 289 l 2
 620 151 555 -14 368 -14 c 0
 284 -14 227 33 190 92 c 1
 181 0 l 1
 85 0 l 1
 85 810 l 1
 195 810 l 1
 195 518 l 1
 233 572 289 614 368 614 c 0
 555 614 620 449 620 311 c 2
195 374 m 1
 195 226 l 1
 215 145 265 69 355 69 c 0
 452 69 507 148 507 289 c 2
 507 311 l 2
 507 452 452 531 355 531 c 0
 265 531 215 455 195 374 c 1
EndSplineSet
PickledDataWithLists: "(dp0
Vcom.fontlab.hintData
p1
(dp2
Vvhints
p3
(lp4
(dp5
Vwidth
p6
L10L
sVposition
p7
L81L
sa(dp8
g6
L10L
sg7
L91L
sa(dp9
g6
L10L
sg7
L179L
sa(dp10
g6
L10L
sg7
L211L
sa(dp11
g6
L10L
sg7
L504L
sa(dp12
g6
L10L
sg7
L593L
sasVhhints
p13
(lp14
(dp15
g6
L10L
sg7
L-21L
sa(dp16
g6
L10L
sg7
L41L
sa(dp17
g6
L10L
sg7
L524L
sa(dp18
g6
L10L
sg7
L546L
sa(dp19
g6
L10L
sg7
L607L
sa(dp20
g6
L10L
sg7
L836L
sass."
Colour: ff00
EndChar

StartChar: c
Encoding: 70 99 71
GlifName: c
Width: 605
VWidth: 0
Flags: MW
AnchorPoint: "LatinCedilla.mark" 330 0 basechar 0
AnchorPoint: "LatinBelow.mark" 330 0 basechar 0
AnchorPoint: "LatinAbove.mark" 330 0 basechar 0
LayerCount: 2
Fore
SplineSet
55 287 m 2
 55 313 l 2
 55 451 113 619 331 619 c 0
 491 619 559 515 570 452 c 1
 456 442 l 1
 448 484 405 536 331 536 c 0
 230 536 171 453 171 313 c 2
 171 287 l 2
 171 147 230 64 331 64 c 0
 405 64 448 116 456 158 c 1
 570 148 l 1
 559 85 491 -19 331 -19 c 0
 113 -19 55 149 55 287 c 2
EndSplineSet
PickledDataWithLists: "(dp0
Vcom.fontlab.hintData
p1
(dp2
Vvhints
p3
(lp4
(dp5
Vwidth
p6
L10L
sVposition
p7
L58L
sa(dp8
g6
L10L
sg7
L152L
sa(dp9
g6
L10L
sg7
L433L
sa(dp10
g6
L10L
sg7
L527L
sa(dp11
g6
L10L
sg7
L552L
sasVhhints
p12
(lp13
(dp14
g6
L10L
sg7
L-22L
sa(dp15
g6
L10L
sg7
L44L
sa(dp16
g6
L10L
sg7
L133L
sa(dp17
g6
L10L
sg7
L433L
sa(dp18
g6
L10L
sg7
L548L
sa(dp19
g6
L10L
sg7
L614L
sass."
Colour: ff00
EndChar

StartChar: d
Encoding: 71 100 72
GlifName: d
Width: 680
VWidth: 0
Flags: MW
AnchorPoint: "LatinBelow.mark" 360 0 basechar 0
AnchorPoint: "LatinAbove.mark" 525 180 basechar 0
LayerCount: 2
Fore
SplineSet
55 289 m 2
 55 311 l 2
 55 449 120 614 307 614 c 0
 387 614 443 570 480 515 c 1
 480 810 l 1
 590 810 l 1
 590 143 l 2
 590 87 604 66 655 60 c 1
 627 -14 l 1
 579 -8 503 15 497 110 c 1
 459 44 399 -14 307 -14 c 0
 120 -14 55 151 55 289 c 2
480 374 m 1
 460 455 410 531 320 531 c 0
 223 531 168 452 168 311 c 2
 168 289 l 2
 168 148 223 69 320 69 c 0
 410 69 460 145 480 226 c 1
 480 374 l 1
EndSplineSet
PickledDataWithLists: "(dp0
Vcom.fontlab.hintData
p1
(dp2
Vvhints
p3
(lp4
(dp5
Vwidth
p6
L10L
sVposition
p7
L61L
sa(dp8
g6
L10L
sg7
L149L
sa(dp9
g6
L10L
sg7
L476L
sa(dp10
g6
L10L
sg7
L564L
sa(dp11
g6
L10L
sg7
L679L
sasVhhints
p12
(lp13
(dp14
g6
L10L
sg7
L-21L
sa(dp15
g6
L10L
sg7
L41L
sa(dp16
g6
L10L
sg7
L544L
sa(dp17
g6
L10L
sg7
L606L
sa(dp18
g6
L10L
sg7
L836L
sass."
Colour: ff00
EndChar

StartChar: e
Encoding: 72 101 73
GlifName: e
Width: 640
VWidth: 0
Flags: MW
AnchorPoint: "LatinOgonek.mark" 410 0 basechar 0
AnchorPoint: "LatinBelow.mark" 330 0 basechar 0
AnchorPoint: "LatinAbove.mark" 330 0 basechar 0
LayerCount: 2
Fore
SplineSet
55 286 m 2
 55 314 l 2
 55 452 116 619 327 619 c 0
 500 619 585 492 585 360 c 0
 585 333 582 306 577 279 c 1
 166 279 l 1
 168 144 224 61 327 61 c 0
 407 61 452 115 459 158 c 1
 568 148 l 1
 557 83 485 -19 327 -19 c 0
 112 -19 55 147 55 286 c 2
167 351 m 1
 479 351 l 2
 479 354 479 358 479 361 c 0
 479 481 415 539 327 539 c 0
 232 539 176 468 167 351 c 1
EndSplineSet
PickledDataWithLists: "(dp0
Vcom.fontlab.hintData
p1
(dp2
Vvhints
p3
(lp4
(dp5
Vwidth
p6
L10L
sVposition
p7
L45L
sa(dp8
g6
L10L
sg7
L71L
sa(dp9
g6
L10L
sg7
L159L
sa(dp10
g6
L10L
sg7
L471L
sa(dp11
g6
L10L
sg7
L559L
sa(dp12
g6
L10L
sg7
L570L
sasVhhints
p13
(lp14
(dp15
g6
L10L
sg7
L-20L
sa(dp16
g6
L10L
sg7
L42L
sa(dp17
g6
L10L
sg7
L131L
sa(dp18
g6
L10L
sg7
L552L
sa(dp19
g6
L10L
sg7
L613L
sass."
Colour: ff00
EndChar

StartChar: f
Encoding: 73 102 74
GlifName: f
Width: 400
VWidth: 0
Flags: MW
AnchorPoint: "LatinBelow.mark" 180 0 basechar 0
AnchorPoint: "LatinAbove.mark" 270 180 basechar 0
LayerCount: 2
Fore
SplineSet
30 528 m 1
 30 600 l 1
 120 600 l 1
 120 677 l 2
 120 736 157 829 283 829 c 0
 362 829 411 794 425 783 c 1
 377 722 l 1
 364 731 334 750 291 750 c 0
 251 750 230 719 230 677 c 2
 230 600 l 1
 380 600 l 1
 380 528 l 1
 233 528 l 1
 233 0 l 1
 120 0 l 1
 120 528 l 1
 30 528 l 1
EndSplineSet
PickledDataWithLists: "(dp0
Vcom.fontlab.hintData
p1
(dp2
Vvhints
p3
(lp4
(dp5
Vwidth
p6
L10L
sVposition
p7
L20L
sa(dp8
g6
L10L
sg7
L132L
sa(dp9
g6
L10L
sg7
L166L
sa(dp10
g6
L9L
sg7
L219L
sa(dp11
g6
L10L
sg7
L255L
sa(dp12
g6
L10L
sg7
L399L
sa(dp13
g6
L10L
sg7
L469L
sasVhhints
p14
(lp15
(dp16
g6
L10L
sg7
L-20L
sa(dp17
g6
L10L
sg7
L521L
sa(dp18
g6
L10L
sg7
L586L
sa(dp19
g6
L10L
sg7
L591L
sa(dp20
g6
L10L
sg7
L759L
sa(dp21
g6
L10L
sg7
L803L
sa(dp22
g6
L10L
sg7
L864L
sass."
Colour: ff00
EndChar

StartChar: h
Encoding: 75 104 76
GlifName: h
Width: 665
VWidth: 0
Flags: MW
AnchorPoint: "LatinBelow.mark" 360 0 basechar 0
AnchorPoint: "LatinAbove.mark" 135 180 basechar 0
LayerCount: 2
Fore
SplineSet
85 0 m 1
 85 810 l 1
 195 810 l 1
 195 448 l 1
 237 534 309 614 422 614 c 0
 541 614 595 520 595 416 c 2
 595 0 l 1
 482 0 l 1
 482 412 l 2
 482 497 439 524 392 524 c 0
 296 524 215 407 198 298 c 1
 198 0 l 1
 85 0 l 1
EndSplineSet
PickledDataWithLists: "(dp0
Vcom.fontlab.hintData
p1
(dp2
Vvhints
p3
(lp4
(dp5
Vwidth
p6
L10L
sVposition
p7
L65L
sa(dp8
g6
L10L
sg7
L106L
sa(dp9
g6
L10L
sg7
L187L
sa(dp10
g6
L10L
sg7
L491L
sa(dp11
g6
L10L
sg7
L496L
sa(dp12
g6
L10L
sg7
L579L
sa(dp13
g6
L10L
sg7
L584L
sasVhhints
p14
(lp15
(dp16
g6
L10L
sg7
L-14L
sa(dp17
g6
L10L
sg7
L549L
sa(dp18
g6
L10L
sg7
L611L
sa(dp19
g6
L10L
sg7
L836L
sass."
Colour: ff00
EndChar

StartChar: i
Encoding: 76 105 77
GlifName: i
Width: 300
VWidth: 0
GlyphClass: 3
Flags: MW
AnchorPoint: "LatinOgonek.mark" 155 0 basechar 0
AnchorPoint: "LatinBelow.mark" 150 0 basechar 0
AnchorPoint: "LatinAbove.mark" 150 180 basechar 0
LayerCount: 2
Fore
SplineSet
93 0 m 1
 93 600 l 1
 207 600 l 1
 207 0 l 1
 93 0 l 1
150 854 m 0
 195 854 230 826 230 780 c 0
 230 734 195 706 150 706 c 0
 105 706 70 734 70 780 c 0
 70 826 105 854 150 854 c 0
EndSplineSet
PickledDataWithLists: "(dp0
Vcom.fontlab.hintData
p1
(dp2
Vvhints
p3
(lp4
(dp5
Vwidth
p6
L10L
sVposition
p7
L86L
sa(dp8
g6
L10L
sg7
L116L
sa(dp9
g6
L10L
sg7
L204L
sa(dp10
g6
L10L
sg7
L234L
sa(dp11
g6
L10L
sg7
L244L
sasVhhints
p12
(lp13
(dp14
g6
L10L
sg7
L-21L
sa(dp15
g6
L10L
sg7
L595L
sa(dp16
g6
L10L
sg7
L725L
sa(dp17
g6
L20L
sg7
L826L
sa(dp18
g6
L10L
sg7
L852L
sass."
Substitution2: "Latin.ij.dotless subtable" dotlessi
Ligature2: "Latin.ij subtable" dotlessi uni0307
EndChar

StartChar: j
Encoding: 77 106 78
GlifName: j
Width: 310
VWidth: 0
GlyphClass: 3
Flags: MW
AnchorPoint: "LatinBelow.mark" 150 -180 basechar 0
AnchorPoint: "LatinAbove.mark" 150 180 basechar 0
LayerCount: 2
Fore
SplineSet
-5 -151 m 1
 63 -129 103 -95 103 -14 c 2
 103 600 l 1
 217 600 l 1
 217 -21 l 2
 217 -134 128 -198 31 -224 c 1
 -5 -151 l 1
160 854 m 0
 205 854 240 826 240 780 c 0
 240 734 205 706 160 706 c 0
 115 706 80 734 80 780 c 0
 80 826 115 854 160 854 c 0
EndSplineSet
PickledDataWithLists: "(dp0
Vcom.fontlab.hintData
p1
(dp2
Vvhints
p3
(lp4
(dp5
Vwidth
p6
L10L
sVposition
p7
L31L
sa(dp8
g6
L10L
sg7
L86L
sa(dp9
g6
L10L
sg7
L126L
sa(dp10
g6
L10L
sg7
L146L
sa(dp11
g6
L10L
sg7
L234L
sa(dp12
g6
L10L
sg7
L244L
sasVhhints
p13
(lp14
(dp15
g6
L10L
sg7
L-246L
sa(dp16
g6
L10L
sg7
L596L
sa(dp17
g6
L10L
sg7
L725L
sa(dp18
g6
L20L
sg7
L826L
sa(dp19
g6
L10L
sg7
L852L
sass."
Substitution2: "Latin.ij.dotless subtable" uni0237
Ligature2: "Latin.ij subtable" uni0237 uni200D uni0307
Ligature2: "Latin.ij subtable" uni0237 uni0307
Ligature2: "Latin.ij subtable" dotlessi uni200D uni0307
EndChar

StartChar: k
Encoding: 78 107 79
GlifName: k
Width: 605
VWidth: 0
Flags: MW
AnchorPoint: "LatinBelow.mark" 360 0 basechar 0
AnchorPoint: "LatinAbove.mark" 135 180 basechar 0
LayerCount: 2
Fore
SplineSet
95 0 m 1
 95 810 l 1
 203 810 l 1
 203 329 l 1
 446 600 l 1
 570 593 l 1
 570 588 l 1
 333 344 l 1
 600 5 l 1
 600 0 l 1
 470 0 l 1
 262 271 l 1
 203 211 l 1
 203 0 l 1
 95 0 l 1
EndSplineSet
PickledDataWithLists: "(dp0
Vcom.fontlab.hintData
p1
(dp2
Vvhints
p3
(lp4
(dp5
Vwidth
p6
L10L
sVposition
p7
L75L
sa(dp8
g6
L10L
sg7
L105L
sa(dp9
g6
L10L
sg7
L194L
sa(dp10
g6
L10L
sg7
L539L
sa(dp11
g6
L10L
sg7
L580L
sasVhhints
p12
(lp13
(dp14
g6
L10L
sg7
L-11L
sa(dp15
g6
L10L
sg7
L596L
sa(dp16
g6
L10L
sg7
L836L
sass."
Colour: ff00
EndChar

StartChar: l
Encoding: 79 108 80
GlifName: l
Width: 315
VWidth: 0
Flags: MW
AnchorPoint: "LatinBelow.mark" 190 0 basechar 0
AnchorPoint: "LatinAbove.mark" 140 180 basechar 0
LayerCount: 2
Fore
SplineSet
90 128 m 2
 90 810 l 1
 203 810 l 1
 203 138 l 2
 203 83 239 66 305 60 c 1
 283 -14 l 1
 202 -8 90 15 90 128 c 2
EndSplineSet
PickledDataWithLists: "(dp0
Vcom.fontlab.hintData
p1
(dp2
Vvhints
p3
(lp4
(dp5
Vwidth
p6
L10L
sVposition
p7
L106L
sa(dp8
g6
L10L
sg7
L111L
sa(dp9
g6
L10L
sg7
L194L
sa(dp10
g6
L10L
sg7
L199L
sa(dp11
g6
L10L
sg7
L315L
sasVhhints
p12
(lp13
(dp14
g6
L10L
sg7
L-23L
sa(dp15
g6
L10L
sg7
L830L
sass."
EndChar

StartChar: m
Encoding: 80 109 81
GlifName: m
Width: 945
VWidth: 0
Flags: MW
AnchorPoint: "LatinBelow.mark" 480 0 basechar 0
AnchorPoint: "LatinAbove.mark" 480 0 basechar 0
LayerCount: 2
Fore
SplineSet
75 594 m 1
 178 603 l 1
 192 479 l 1
 225 550 280 610 372 610 c 0
 461 610 512 554 530 480 c 1
 563 551 618 610 710 610 c 0
 824 610 875 518 875 416 c 2
 875 0 l 1
 762 0 l 1
 762 412 l 2
 762 496 724 521 680 521 c 0
 601 521 553 421 537 322 c 1
 537 0 l 1
 423 0 l 1
 423 412 l 2
 423 496 386 521 342 521 c 0
 263 521 214 420 198 321 c 1
 198 0 l 1
 85 0 l 1
 85 420 l 1
 75 594 l 1
EndSplineSet
PickledDataWithLists: "(dp0
Vcom.fontlab.hintData
p1
(dp2
Vvhints
p3
(lp4
(dp5
Vwidth
p6
L10L
sVposition
p7
L76L
sa(dp8
g6
L10L
sg7
L96L
sa(dp9
g6
L10L
sg7
L167L
sa(dp10
g6
L10L
sg7
L436L
sa(dp11
g6
L10L
sg7
L441L
sa(dp12
g6
L10L
sg7
L776L
sa(dp13
g6
L10L
sg7
L781L
sa(dp14
g6
L10L
sg7
L864L
sa(dp15
g6
L10L
sg7
L869L
sasVhhints
p16
(lp17
(dp18
g6
L10L
sg7
L-19L
sa(dp19
g6
L10L
sg7
L-10L
sa(dp20
g6
L10L
sg7
L549L
sa(dp21
g6
L10L
sg7
L606L
sa(dp22
g6
L10L
sg7
L611L
sass."
Colour: ff00
EndChar

StartChar: n
Encoding: 81 110 82
GlifName: n
Width: 655
VWidth: 0
Flags: MW
AnchorPoint: "LatinBelow.mark" 360 0 basechar 0
AnchorPoint: "LatinAbove.mark" 330 0 basechar 0
LayerCount: 2
Fore
SplineSet
85 0 m 1
 85 420 l 1
 75 594 l 1
 178 603 l 1
 194 453 l 1
 234 537 303 614 413 614 c 0
 530 614 585 520 585 416 c 2
 585 0 l 1
 472 0 l 1
 472 412 l 2
 472 497 429 524 383 524 c 0
 289 524 214 408 198 299 c 1
 198 0 l 1
 85 0 l 1
EndSplineSet
PickledDataWithLists: "(dp0
Vcom.fontlab.hintData
p1
(dp2
Vvhints
p3
(lp4
(dp5
Vwidth
p6
L10L
sVposition
p7
L55L
sa(dp8
g6
L10L
sg7
L96L
sa(dp9
g6
L10L
sg7
L481L
sa(dp10
g6
L10L
sg7
L486L
sa(dp11
g6
L10L
sg7
L569L
sa(dp12
g6
L10L
sg7
L574L
sasVhhints
p13
(lp14
(dp15
g6
L10L
sg7
L-15L
sa(dp16
g6
L10L
sg7
L-10L
sa(dp17
g6
L10L
sg7
L549L
sa(dp18
g6
L10L
sg7
L606L
sa(dp19
g6
L10L
sg7
L611L
sass."
Substitution2: "Latin.sups subtable" n.sups
Substitution2: "Latin.sups subtable" n.sups
Colour: ff00
EndChar

StartChar: o
Encoding: 82 111 83
GlifName: o
Width: 660
VWidth: 0
Flags: MW
AnchorPoint: "LatinOgonek.mark" 400 0 basechar 0
AnchorPoint: "LatinBelow.mark" 330 0 basechar 0
AnchorPoint: "LatinAbove.mark" 330 0 basechar 0
LayerCount: 2
Fore
SplineSet
55 286 m 2
 55 314 l 2
 55 452 113 619 330 619 c 0
 547 619 605 452 605 314 c 2
 605 286 l 2
 605 148 547 -19 330 -19 c 0
 113 -19 55 148 55 286 c 2
330 63 m 0
 435 63 492 146 492 286 c 2
 492 314 l 2
 492 454 435 537 330 537 c 0
 225 537 168 454 168 314 c 2
 168 286 l 2
 168 146 225 63 330 63 c 0
EndSplineSet
PickledDataWithLists: "(dp0
Vcom.fontlab.hintData
p1
(dp2
Vvhints
p3
(lp4
(dp5
Vwidth
p6
L10L
sVposition
p7
L61L
sa(dp8
g6
L10L
sg7
L149L
sa(dp9
g6
L10L
sg7
L441L
sa(dp10
g6
L10L
sg7
L506L
sa(dp11
g6
L10L
sg7
L594L
sasVhhints
p12
(lp13
(dp14
g6
L10L
sg7
L-21L
sa(dp15
g6
L9L
sg7
L42L
sa(dp16
g6
L10L
sg7
L552L
sa(dp17
g6
L10L
sg7
L614L
sass."
Colour: ff00
EndChar

StartChar: p
Encoding: 83 112 84
GlifName: p
Width: 675
VWidth: 0
Flags: MW
AnchorPoint: "LatinBelow.mark" 150 -180 basechar 0
AnchorPoint: "LatinAbove.mark" 330 0 basechar 0
LayerCount: 2
Fore
SplineSet
620 311 m 2
 620 289 l 2
 620 151 555 -14 368 -14 c 0
 290 -14 235 27 198 80 c 1
 198 -210 l 1
 85 -210 l 1
 85 420 l 1
 75 594 l 1
 178 603 l 1
 188 508 l 1
 226 566 285 614 368 614 c 0
 555 614 620 449 620 311 c 2
198 215 m 1
 219 138 269 69 355 69 c 0
 452 69 507 148 507 289 c 2
 507 311 l 2
 507 452 452 531 355 531 c 0
 269 531 219 462 198 385 c 1
 198 215 l 1
EndSplineSet
PickledDataWithLists: "(dp0
Vcom.fontlab.hintData
p1
(dp2
Vvhints
p3
(lp4
(dp5
Vwidth
p6
L10L
sVposition
p7
L41L
sa(dp8
g6
L10L
sg7
L101L
sa(dp9
g6
L10L
sg7
L108L
sa(dp10
g6
L10L
sg7
L193L
sa(dp11
g6
L10L
sg7
L523L
sa(dp12
g6
L10L
sg7
L612L
sasVhhints
p13
(lp14
(dp15
g6
L10L
sg7
L-246L
sa(dp16
g6
L10L
sg7
L-16L
sa(dp17
g6
L10L
sg7
L46L
sa(dp18
g6
L10L
sg7
L549L
sa(dp19
g6
L10L
sg7
L610L
sass."
Colour: ff00
EndChar

StartChar: q
Encoding: 84 113 85
GlifName: q
Width: 675
VWidth: 0
Flags: MW
AnchorPoint: "LatinBelow.mark" 535 -240 basechar 0
AnchorPoint: "LatinAbove.mark" 360 0 basechar 0
LayerCount: 2
Fore
SplineSet
55 289 m 2
 55 311 l 2
 55 449 120 614 307 614 c 0
 391 614 448 567 485 508 c 1
 494 600 l 1
 590 600 l 1
 590 -210 l 1
 480 -210 l 1
 480 82 l 1
 442 28 386 -14 307 -14 c 0
 120 -14 55 151 55 289 c 2
480 226 m 1
 480 374 l 1
 460 455 410 531 320 531 c 0
 223 531 168 452 168 311 c 2
 168 289 l 2
 168 148 223 69 320 69 c 0
 410 69 460 145 480 226 c 1
EndSplineSet
PickledDataWithLists: "(dp0
Vcom.fontlab.hintData
p1
(dp2
Vvhints
p3
(lp4
(dp5
Vwidth
p6
L10L
sVposition
p7
L59L
sa(dp8
g6
L10L
sg7
L149L
sa(dp9
g6
L10L
sg7
L444L
sa(dp10
g6
L10L
sg7
L459L
sa(dp11
g6
L10L
sg7
L471L
sa(dp12
g6
L10L
sg7
L547L
sa(dp13
g6
L10L
sg7
L559L
sa(dp14
g6
L10L
sg7
L649L
sasVhhints
p15
(lp16
(dp17
g6
L10L
sg7
L-261L
sa(dp18
g6
L10L
sg7
L-184L
sa(dp19
g6
L10L
sg7
L-17L
sa(dp20
g6
L10L
sg7
L44L
sa(dp21
g6
L10L
sg7
L66L
sa(dp22
g6
L10L
sg7
L549L
sa(dp23
g6
L10L
sg7
L611L
sass."
Colour: ff00
EndChar

StartChar: r
Encoding: 85 114 86
GlifName: r
Width: 435
VWidth: 0
Flags: MW
AnchorPoint: "LatinBelow.mark" 170 0 basechar 0
AnchorPoint: "LatinAbove.mark" 240 0 basechar 0
LayerCount: 2
Fore
SplineSet
70 592 m 1
 165 603 l 1
 199 465 l 1
 224 543 271 614 364 614 c 0
 392 614 415 608 435 599 c 1
 392 505 l 1
 379 512 365 517 346 517 c 0
 271 517 230 418 218 318 c 1
 218 0 l 1
 105 0 l 1
 105 435 l 1
 70 592 l 1
EndSplineSet
PickledDataWithLists: "(dp0
Vcom.fontlab.hintData
p1
(dp2
Vvhints
p3
(lp4
(dp5
Vwidth
p6
L10L
sVposition
p7
L20L
sa(dp8
g6
L10L
sg7
L171L
sa(dp9
g6
L10L
sg7
L261L
sa(dp10
g6
L10L
sg7
L479L
sasVhhints
p11
(lp12
(dp13
g6
L10L
sg7
L-13L
sa(dp14
g6
L10L
sg7
L524L
sa(dp15
g6
L10L
sg7
L549L
sa(dp16
g6
L10L
sg7
L596L
sa(dp17
g6
L10L
sg7
L611L
sass."
Colour: ff00
EndChar

StartChar: s
Encoding: 86 115 87
GlifName: s
Width: 570
VWidth: 0
Flags: MW
AnchorPoint: "LatinCedilla.mark" 310 0 basechar 0
AnchorPoint: "LatinBelow.mark" 285 0 basechar 0
AnchorPoint: "LatinAbove.mark" 285 0 basechar 0
LayerCount: 2
Fore
SplineSet
45 139 m 1
 155 153 l 1
 162 109 206 61 289 61 c 0
 371 61 417 99 417 156 c 0
 417 210 374 232 345 241 c 0
 300 254 237 272 193 288 c 0
 136 309 61 350 61 444 c 0
 61 544 149 619 285 619 c 0
 431 619 498 528 509 465 c 1
 399 450 l 1
 392 494 356 539 285 539 c 0
 214 539 169 504 169 448 c 0
 169 403 210 381 242 370 c 0
 285 356 350 337 387 326 c 0
 453 306 525 264 525 160 c 0
 525 59 434 -19 285 -19 c 0
 128 -19 57 74 45 139 c 1
EndSplineSet
PickledDataWithLists: "(dp0
Vcom.fontlab.hintData
p1
(dp2
Vvhints
p3
(lp4
(dp5
Vwidth
p6
L10L
sVposition
p7
L60L
sa(dp8
g6
L10L
sg7
L139L
sa(dp9
g6
L10L
sg7
L381L
sa(dp10
g6
L10L
sg7
L431L
sa(dp11
g6
L10L
sg7
L470L
sa(dp12
g6
L10L
sg7
L516L
sasVhhints
p13
(lp14
(dp15
g6
L10L
sg7
L-20L
sa(dp16
g6
L10L
sg7
L42L
sa(dp17
g6
L10L
sg7
L151L
sa(dp18
g6
L10L
sg7
L434L
sa(dp19
g6
L10L
sg7
L554L
sa(dp20
g6
L10L
sg7
L616L
sass."
Colour: ff00
EndChar

StartChar: t
Encoding: 87 116 88
GlifName: t
Width: 415
VWidth: 0
Flags: MW
AnchorPoint: "LatinCedilla.mark" 270 0 basechar 0
AnchorPoint: "LatinBelow.mark" 280 0 basechar 0
AnchorPoint: "LatinAbove.mark" 180 120 basechar 0
LayerCount: 2
Fore
SplineSet
30 528 m 1
 30 600 l 1
 124 600 l 1
 124 726 l 1
 231 735 l 1
 231 600 l 1
 380 600 l 1
 380 528 l 1
 233 528 l 1
 233 144 l 2
 233 83 251 67 288 67 c 0
 329 67 368 82 383 92 c 1
 410 18 l 1
 381 2 334 -14 274 -14 c 0
 182 -14 120 26 120 128 c 2
 120 528 l 1
 30 528 l 1
EndSplineSet
PickledDataWithLists: "(dp0
Vcom.fontlab.hintData
p1
(dp2
Vvhints
p3
(lp4
(dp5
Vwidth
p6
L10L
sVposition
p7
L20L
sa(dp8
g6
L10L
sg7
L131L
sa(dp9
g6
L10L
sg7
L136L
sa(dp10
g6
L10L
sg7
L141L
sa(dp11
g6
L10L
sg7
L219L
sa(dp12
g6
L10L
sg7
L225L
sa(dp13
g6
L10L
sg7
L399L
sa(dp14
g6
L10L
sg7
L439L
sasVhhints
p15
(lp16
(dp17
g6
L10L
sg7
L-18L
sa(dp18
g6
L10L
sg7
L41L
sa(dp19
g6
L10L
sg7
L86L
sa(dp20
g6
L10L
sg7
L524L
sa(dp21
g6
L10L
sg7
L586L
sa(dp22
g6
L10L
sg7
L741L
sass."
Colour: ff00
EndChar

StartChar: u
Encoding: 88 117 89
GlifName: u
Width: 620
VWidth: 0
Flags: MW
AnchorPoint: "LatinOgonek.mark" 380 0 basechar 0
AnchorPoint: "LatinBelow.mark" 310 0 basechar 0
AnchorPoint: "LatinAbove.mark" 310 0 basechar 0
LayerCount: 2
Fore
SplineSet
65 187 m 2
 65 600 l 1
 178 600 l 1
 178 187 l 2
 178 101 235 63 310 63 c 0
 385 63 442 101 442 187 c 2
 442 600 l 1
 555 600 l 1
 555 187 l 2
 555 72 461 -19 310 -19 c 0
 159 -19 65 72 65 187 c 2
EndSplineSet
PickledDataWithLists: "(dp0
Vcom.fontlab.hintData
p1
(dp2
Vvhints
p3
(lp4
(dp5
Vwidth
p6
L10L
sVposition
p7
L81L
sa(dp8
g6
L10L
sg7
L86L
sa(dp9
g6
L10L
sg7
L174L
sa(dp10
g6
L10L
sg7
L471L
sa(dp11
g6
L10L
sg7
L649L
sasVhhints
p12
(lp13
(dp14
g6
L10L
sg7
L-21L
sa(dp15
g6
L10L
sg7
L-16L
sa(dp16
g6
L10L
sg7
L41L
sa(dp17
g6
L10L
sg7
L601L
sass."
EndChar

StartChar: v
Encoding: 89 118 90
GlifName: v
Width: 600
VWidth: 0
Flags: MW
AnchorPoint: "LatinBelow.mark" 300 0 basechar 0
AnchorPoint: "LatinAbove.mark" 300 0 basechar 0
LayerCount: 2
Fore
SplineSet
15 585 m 1
 15 591 l 1
 138 600 l 1
 300 133 l 1
 462 600 l 1
 585 591 l 1
 585 585 l 1
 346 0 l 1
 254 0 l 1
 15 585 l 1
EndSplineSet
PickledDataWithLists: "(dp0
Vcom.fontlab.hintData
p1
(dp2
Vvhints
p3
(lp4
(dp5
Vwidth
p6
L10L
sVposition
p7
L35L
sa(dp8
g6
L10L
sg7
L584L
sasVhhints
p9
(lp10
(dp11
g6
L10L
sg7
L-18L
sa(dp12
g6
L10L
sg7
L581L
sa(dp13
g6
L10L
sg7
L591L
sass."
Colour: ff00
EndChar

StartChar: w
Encoding: 90 119 91
GlifName: w
Width: 830
VWidth: 0
Flags: MW
AnchorPoint: "LatinBelow.mark" 415 0 basechar 0
AnchorPoint: "LatinAbove.mark" 415 0 basechar 0
LayerCount: 2
Fore
SplineSet
810 585 m 1
 635 0 l 1
 538 0 l 1
 415 428 l 1
 292 0 l 1
 195 0 l 1
 20 585 l 1
 20 591 l 1
 141 600 l 1
 252 159 l 1
 370 585 l 1
 460 585 l 1
 578 159 l 1
 689 600 l 1
 810 591 l 1
 810 585 l 1
EndSplineSet
PickledDataWithLists: "(dp0
Vcom.fontlab.hintData
p1
(dp2
Vvhints
p3
(lp4
(dp5
Vwidth
p6
L10L
sVposition
p7
L41L
sa(dp8
g6
L10L
sg7
L790L
sasVhhints
p9
(lp10
(dp11
g6
L10L
sg7
L-11L
sa(dp12
g6
L10L
sg7
L568L
sa(dp13
g6
L10L
sg7
L590L
sass."
Colour: ff00
EndChar

StartChar: x
Encoding: 91 120 92
GlifName: x
Width: 600
VWidth: 0
Flags: MW
AnchorPoint: "LatinBelow.mark" 300 0 basechar 0
AnchorPoint: "LatinAbove.mark" 300 0 basechar 0
LayerCount: 2
Fore
SplineSet
50 585 m 1
 50 591 l 1
 170 600 l 1
 300 394 l 1
 430 600 l 1
 550 591 l 1
 550 585 l 1
 362 323 l 1
 590 5 l 1
 590 0 l 1
 463 0 l 1
 300 234 l 1
 137 0 l 1
 10 0 l 1
 10 5 l 1
 238 323 l 1
 50 585 l 1
EndSplineSet
PickledDataWithLists: "(dp0
Vcom.fontlab.hintData
p1
(dp2
Vvhints
p3
(lp4
(dp5
Vwidth
p6
L10L
sVposition
p7
L26L
sa(dp8
g6
L10L
sg7
L71L
sa(dp9
g6
L10L
sg7
L524L
sa(dp10
g6
L10L
sg7
L559L
sasVhhints
p11
(lp12
(dp13
g6
L10L
sg7
L-6L
sa(dp14
g6
L10L
sg7
L5L
sa(dp15
g6
L10L
sg7
L591L
sass."
Colour: ff00
EndChar

StartChar: y
Encoding: 92 121 93
GlifName: y
Width: 600
VWidth: 0
Flags: MW
AnchorPoint: "LatinBelow.mark" 300 -180 basechar 0
AnchorPoint: "LatinAbove.mark" 300 0 basechar 0
LayerCount: 2
Fore
SplineSet
15 585 m 1
 15 591 l 1
 138 600 l 1
 300 132 l 1
 462 600 l 1
 585 591 l 1
 585 585 l 1
 340 -24 l 1
 298 -117 257 -229 139 -229 c 0
 86 -229 50 -207 25 -187 c 1
 80 -119 l 1
 97 -134 113 -150 135 -150 c 0
 180 -150 210 -90 248 -3 c 2
 252 6 l 1
 15 585 l 1
EndSplineSet
PickledDataWithLists: "(dp0
Vcom.fontlab.hintData
p1
(dp2
Vvhints
p3
(lp4
(dp5
Vwidth
p6
L10L
sVposition
p7
L56L
sa(dp8
g6
L10L
sg7
L130L
sasVhhints
p9
(lp10
(dp11
g6
L10L
sg7
L-257L
sa(dp12
g6
L10L
sg7
L-195L
sa(dp13
g6
L10L
sg7
L-164L
sa(dp14
g6
L10L
sg7
L4L
sa(dp15
g6
L10L
sg7
L584L
sa(dp16
g6
L10L
sg7
L595L
sass."
Colour: ff00
EndChar

StartChar: z
Encoding: 93 122 94
GlifName: z
Width: 530
VWidth: 0
Flags: MW
AnchorPoint: "LatinBelow.mark" 265 0 basechar 0
AnchorPoint: "LatinAbove.mark" 265 0 basechar 0
LayerCount: 2
Fore
SplineSet
30 57 m 1
 345 521 l 1
 52 521 l 1
 52 600 l 1
 487 600 l 1
 494 543 l 1
 179 79 l 1
 500 79 l 1
 500 0 l 1
 37 0 l 1
 30 57 l 1
EndSplineSet
PickledDataWithLists: "(dp0
Vcom.fontlab.hintData
p1
(dp2
Vvhints
p3
(lp4
(dp5
Vwidth
p6
L10L
sVposition
p7
L46L
sa(dp8
g6
L10L
sg7
L61L
sa(dp9
g6
L10L
sg7
L531L
sa(dp10
g6
L10L
sg7
L544L
sasVhhints
p11
(lp12
(dp13
g6
L10L
sg7
L-17L
sa(dp14
g6
L10L
sg7
L51L
sa(dp15
g6
L10L
sg7
L59L
sa(dp16
g6
L15L
sg7
L525L
sa(dp17
g6
L10L
sg7
L587L
sa(dp18
g6
L10L
sg7
L592L
sass."
Colour: ff00
EndChar

StartChar: braceleft
Encoding: 94 123 95
GlifName: braceleft
Width: 390
VWidth: 0
Flags: MW
LayerCount: 2
Fore
SplineSet
45 370 m 1
 45 390 l 1
 45 410 l 1
 89 419 142 453 142 538 c 0
 142 577 108 675 108 735 c 0
 108 828 164 900 265 900 c 2
 315 900 l 1
 315 841 l 1
 278 841 l 2
 248 841 208 823 208 728 c 0
 208 678 238 579 238 528 c 0
 238 454 201 410 152 390 c 1
 201 370 238 326 238 252 c 0
 238 201 208 102 208 52 c 0
 208 -43 248 -61 278 -61 c 2
 315 -61 l 1
 315 -120 l 1
 265 -120 l 2
 164 -120 108 -48 108 45 c 0
 108 105 142 203 142 242 c 0
 142 327 89 361 45 370 c 1
EndSplineSet
PickledDataWithLists: "(dp0
Vcom.fontlab.hintData
p1
(dp2
Vvhints
p3
(lp4
(dp5
Vwidth
p6
L10L
sVposition
p7
L22L
sa(dp8
g6
L10L
sg7
L112L
sa(dp9
g6
L10L
sg7
L128L
sa(dp10
g6
L10L
sg7
L182L
sa(dp11
g6
L10L
sg7
L197L
sa(dp12
g6
L10L
sg7
L205L
sa(dp13
g6
L10L
sg7
L289L
sasVhhints
p14
(lp15
(dp16
g6
L10L
sg7
L-89L
sa(dp17
g6
L10L
sg7
L-41L
sa(dp18
g6
L10L
sg7
L830L
sa(dp19
g6
L10L
sg7
L879L
sass."
EndChar

StartChar: bar
Encoding: 95 124 96
GlifName: bar
Width: 360
VWidth: 0
Flags: MW
LayerCount: 2
Fore
SplineSet
130 -120 m 1
 130 900 l 1
 230 900 l 1
 230 -120 l 1
 130 -120 l 1
EndSplineSet
PickledDataWithLists: "(dp0
Vcom.fontlab.hintData
p1
(dp2
Vvhints
p3
(lp4
(dp5
Vwidth
p6
L10L
sVposition
p7
L131L
sa(dp8
g6
L10L
sg7
L209L
sa(dp9
g6
L10L
sg7
L216L
sasVhhints
p10
(lp11
(dp12
g6
L10L
sg7
L-92L
sa(dp13
g6
L10L
sg7
L882L
sass."
EndChar

StartChar: asciitilde
Encoding: 97 126 98
GlifName: asciitilde
Width: 600
VWidth: 0
Flags: MW
LayerCount: 2
Fore
SplineSet
45 324 m 1
 71 399 109 489 202 489 c 0
 264 489 304 447 331 420 c 0
 361 390 381 373 402 373 c 0
 440 373 468 426 482 478 c 1
 555 456 l 1
 529 380 490 291 398 291 c 0
 336 291 296 333 269 360 c 0
 239 390 219 407 198 407 c 0
 160 407 133 355 118 302 c 1
 45 324 l 1
EndSplineSet
PickledDataWithLists: "(dp0
Vcom.fontlab.hintData
p1
(dp2
Vvhints
p3
(lp4
(dp5
Vwidth
p6
L10L
sVposition
p7
L51L
sa(dp8
g6
L10L
sg7
L539L
sasVhhints
p9
(lp10
(dp11
g6
L10L
sg7
L249L
sa(dp12
g6
L10L
sg7
L260L
sa(dp13
g6
L10L
sg7
L311L
sa(dp14
g6
L10L
sg7
L359L
sa(dp15
g6
L10L
sg7
L411L
sa(dp16
g6
L10L
sg7
L421L
sass."
EndChar

StartChar: copyright
Encoding: 107 169 100
GlifName: copyright
Width: 1020
VWidth: 0
Flags: MW
LayerCount: 2
Fore
SplineSet
337 411 m 2
 337 501 377 608 517 608 c 0
 620 608 664 541 672 501 c 1
 597 494 l 1
 592 521 566 553 517 553 c 0
 450 553 413 501 413 411 c 2
 413 395 l 2
 413 305 450 253 517 253 c 0
 566 253 592 285 597 312 c 1
 672 305 l 1
 664 265 620 198 517 198 c 0
 377 198 337 305 337 395 c 2
 337 411 l 2
510 -9 m 0
 252 -9 87 169 87 405 c 0
 87 641 252 819 510 819 c 0
 768 819 933 641 933 405 c 0
 933 169 768 -9 510 -9 c 0
510 49 m 0
 726 49 867 193 867 405 c 0
 867 617 726 761 510 761 c 0
 294 761 153 617 153 405 c 0
 153 193 294 49 510 49 c 0
EndSplineSet
PickledDataWithLists: "(dp0
Vcom.fontlab.hintData
p1
(dp2
Vvhints
p3
(lp4
(dp5
Vwidth
p6
L10L
sVposition
p7
L83L
sa(dp8
g6
L10L
sg7
L147L
sa(dp9
g6
L10L
sg7
L315L
sa(dp10
g6
L10L
sg7
L395L
sa(dp11
g6
L10L
sg7
L565L
sa(dp12
g6
L10L
sg7
L645L
sa(dp13
g6
L10L
sg7
L661L
sa(dp14
g6
L10L
sg7
L798L
sa(dp15
g6
L10L
sg7
L863L
sa(dp16
g6
L10L
sg7
L927L
sasVhhints
p17
(lp18
(dp19
g6
L10L
sg7
L-27L
sa(dp20
g6
L10L
sg7
L17L
sa(dp21
g6
L10L
sg7
L170L
sa(dp22
g6
L10L
sg7
L224L
sa(dp23
g6
L10L
sg7
L283L
sa(dp24
g6
L10L
sg7
L472L
sa(dp25
g6
L10L
sg7
L549L
sa(dp26
g6
L10L
sg7
L603L
sa(dp27
g6
L10L
sg7
L773L
sa(dp28
g6
L10L
sg7
L817L
sass."
EndChar

StartChar: registered
Encoding: 112 174 101
GlifName: registered
Width: 870
VWidth: 0
Flags: MW
LayerCount: 2
Fore
SplineSet
435 266 m 0
 226 266 93 411 93 600 c 0
 93 789 226 934 435 934 c 0
 644 934 777 789 777 600 c 0
 777 411 644 266 435 266 c 0
435 312 m 0
 608 312 723 427 723 600 c 0
 723 773 608 888 435 888 c 0
 262 888 147 773 147 600 c 0
 147 427 262 312 435 312 c 0
406 555 m 1
 395 555 383 556 373 556 c 1
 373 400 l 1
 301 400 l 1
 301 560 l 1
 301 790 l 1
 305 790 371 794 435 794 c 0
 532 794 599 750 599 675 c 0
 599 614 554 572 484 559 c 1
 613 404 l 1
 613 400 l 1
 531 400 l 1
 406 555 l 1
373 608 m 1
 387 607 407 606 427 606 c 0
 483 606 527 623 527 675 c 0
 527 727 483 743 427 743 c 0
 407 743 387 742 373 741 c 1
 373 608 l 1
EndSplineSet
PickledDataWithLists: "(dp0
Vcom.fontlab.hintData
p1
(dp2
Vvhints
p3
(lp4
(dp5
Vwidth
p6
L10L
sVposition
p7
L90L
sa(dp8
g6
L10L
sg7
L140L
sa(dp9
g6
L10L
sg7
L263L
sa(dp10
g6
L10L
sg7
L301L
sa(dp11
g6
L10L
sg7
L303L
sa(dp12
g6
L10L
sg7
L363L
sa(dp13
g6
L10L
sg7
L480L
sa(dp14
g6
L10L
sg7
L544L
sa(dp15
g6
L10L
sg7
L557L
sa(dp16
g6
L10L
sg7
L628L
sa(dp17
g6
L10L
sg7
L677L
sa(dp18
g6
L10L
sg7
L727L
sasVhhints
p19
(lp20
(dp21
g6
L10L
sg7
L319L
sa(dp22
g6
L10L
sg7
L351L
sa(dp23
g6
L10L
sg7
L469L
sa(dp24
g6
L20L
sg7
L596L
sa(dp25
g6
L10L
sg7
L644L
sa(dp26
g6
L10L
sg7
L654L
sa(dp27
g6
L11L
sg7
L725L
sa(dp28
g6
L10L
sg7
L757L
sa(dp29
g6
L10L
sg7
L799L
sa(dp30
g6
L10L
sg7
L919L
sa(dp31
g6
L10L
sg7
L951L
sass."
EndChar

StartChar: guillemotleft
Encoding: 109 171 102
GlifName: guillemotleft
Width: 780
VWidth: 0
Flags: HMW
LayerCount: 2
Fore
SplineSet
75 338 m 1
 75 382 l 1
 375 645 l 1
 415 588 l 1
 195 360 l 1
 415 132 l 1
 375 75 l 1
 75 338 l 1
365 338 m 1
 365 382 l 1
 665 645 l 1
 705 588 l 1
 485 360 l 1
 705 132 l 1
 665 75 l 1
 365 338 l 1
EndSplineSet
PickledDataWithLists: "(dp0
Vcom.fontlab.hintData
p1
(dp2
Vvhints
p3
(lp4
(dp5
Vwidth
p6
L10L
sVposition
p7
L66L
sa(dp8
g6
L10L
sg7
L336L
sa(dp9
g6
L10L
sg7
L356L
sa(dp10
g6
L10L
sg7
L368L
sa(dp11
g6
L10L
sg7
L626L
sa(dp12
g6
L10L
sg7
L638L
sasVhhints
p13
(lp14
(dp15
g6
L10L
sg7
L65L
sa(dp16
g6
L10L
sg7
L605L
sass."
EndChar

StartChar: figuredash
Encoding: 706 8210 113
GlifName: figuredash
Width: 660
VWidth: 0
Flags: MW
LayerCount: 2
Fore
SplineSet
90 403 m 1
 570 403 l 1
 570 317 l 1
 90 317 l 1
 90 403 l 1
EndSplineSet
PickledDataWithLists: "(dp0
Vcom.fontlab.hintData
p1
(dp2
Vvhints
p3
(lp4
(dp5
Vwidth
p6
L10L
sVposition
p7
L105L
sa(dp8
g6
L10L
sg7
L604L
sasVhhints
p9
(lp10
(dp11
g6
L10L
sg7
L301L
sa(dp12
g6
L10L
sg7
L364L
sa(dp13
g6
L10L
sg7
L371L
sass."
EndChar

StartChar: emdash
Encoding: 708 8212 116
GlifName: emdash
Width: 1200
VWidth: 0
Flags: MW
LayerCount: 2
Fore
SplineSet
90 403 m 1
 1110 403 l 1
 1110 317 l 1
 90 317 l 1
 90 403 l 1
EndSplineSet
PickledDataWithLists: "(dp0
Vcom.fontlab.hintData
p1
(dp2
Vvhints
p3
(lp4
(dp5
Vwidth
p6
L10L
sVposition
p7
L90L
sa(dp8
g6
L10L
sg7
L1099L
sasVhhints
p9
(lp10
(dp11
g6
L10L
sg7
L299L
sa(dp12
g6
L10L
sg7
L304L
sa(dp13
g6
L10L
sg7
L309L
sa(dp14
g6
L10L
sg7
L361L
sa(dp15
g6
L10L
sg7
L366L
sa(dp16
g6
L10L
sg7
L371L
sass."
EndChar

StartChar: bullet
Encoding: 718 8226 121
GlifName: bullet
Width: 660
VWidth: 0
Flags: MW
LayerCount: 2
Fore
SplineSet
200 360 m 0
 200 434 256 481 330 481 c 0
 404 481 460 434 460 360 c 0
 460 286 404 239 330 239 c 0
 256 239 200 286 200 360 c 0
EndSplineSet
PickledDataWithLists: "(dp0
Vcom.fontlab.hintData
p1
(dp2
Vvhints
p3
(lp4
(dp5
Vwidth
p6
L10L
sVposition
p7
L231L
sa(dp8
g6
L10L
sg7
L479L
sasVhhints
p9
(lp10
(dp11
g6
L10L
sg7
L234L
sa(dp12
g6
L10L
sg7
L456L
sass."
EndChar

StartChar: Euro
Encoding: 756 8364 124
GlifName: E_uro
Width: 660
VWidth: 0
Flags: MW
LayerCount: 2
Fore
SplineSet
15 432 m 1
 15 498 l 1
 94 498 l 1
 112 650 181 799 372 799 c 0
 543 799 608 662 619 589 c 1
 506 579 l 1
 496 644 448 712 372 712 c 0
 284 712 225 634 207 498 c 1
 475 498 l 1
 475 432 l 1
 202 432 l 1
 202 424 202 415 202 407 c 2
 202 373 l 2
 202 365 202 356 202 348 c 1
 475 348 l 1
 475 282 l 1
 207 282 l 1
 225 146 284 68 372 68 c 0
 448 68 496 136 506 201 c 1
 619 191 l 1
 608 118 543 -19 372 -19 c 0
 181 -19 112 130 94 282 c 1
 15 282 l 1
 15 348 l 1
 89 348 l 1
 89 356 89 365 89 373 c 2
 89 407 l 2
 89 415 89 424 89 432 c 1
 15 432 l 1
EndSplineSet
PickledDataWithLists: "(dp0
Vcom.fontlab.hintData
p1
(dp2
Vvhints
p3
(lp4
(dp5
Vwidth
p6
L10L
sVposition
p7
L21L
sa(dp8
g6
L10L
sg7
L115L
sa(dp9
g6
L10L
sg7
L203L
sa(dp10
g6
L10L
sg7
L484L
sa(dp11
g6
L10L
sg7
L659L
sasVhhints
p12
(lp13
(dp14
g6
L10L
sg7
L-15L
sa(dp15
g6
L9L
sg7
L48L
sa(dp16
g6
L10L
sg7
L165L
sa(dp17
g6
L10L
sg7
L268L
sa(dp18
g6
L10L
sg7
L323L
sa(dp19
g6
L10L
sg7
L448L
sa(dp20
g6
L10L
sg7
L453L
sa(dp21
g6
L10L
sg7
L503L
sa(dp22
g6
L10L
sg7
L590L
sa(dp23
g6
L10L
sg7
L745L
sa(dp24
g6
L10L
sg7
L806L
sass."
EndChar

StartChar: trademark
Encoding: 767 8482 125
GlifName: trademark
Width: 765
VWidth: 0
Flags: MW
LayerCount: 2
Fore
SplineSet
14 846 m 1
 14 900 l 1
 302 900 l 1
 302 846 l 1
 194 846 l 1
 194 510 l 1
 121 510 l 1
 121 846 l 1
 14 846 l 1
719 510 m 1
 648 510 l 1
 648 766 l 1
 557 608 l 1
 523 608 l 1
 432 766 l 1
 432 510 l 1
 361 510 l 1
 361 894 l 1
 421 900 l 1
 540 680 l 1
 659 900 l 1
 719 894 l 1
 719 510 l 1
EndSplineSet
PickledDataWithLists: "(dp0
Vcom.fontlab.hintData
p1
(dp2
Vvhints
p3
(lp4
(dp5
Vwidth
p6
L10L
sVposition
p7
L39L
sa(dp8
g6
L10L
sg7
L180L
sa(dp9
g6
L10L
sg7
L251L
sa(dp10
g6
L10L
sg7
L383L
sa(dp11
g6
L10L
sg7
L421L
sa(dp12
g6
L10L
sg7
L440L
sa(dp13
g6
L10L
sg7
L504L
sa(dp14
g6
L10L
sg7
L735L
sa(dp15
g6
L10L
sg7
L800L
sa(dp16
g6
L10L
sg7
L819L
sasVhhints
p17
(lp18
(dp19
g6
L10L
sg7
L381L
sa(dp20
g6
L10L
sg7
L390L
sa(dp21
g6
L10L
sg7
L395L
sa(dp22
g6
L10L
sg7
L473L
sa(dp23
g6
L10L
sg7
L745L
sa(dp24
g6
L10L
sg7
L751L
sa(dp25
g6
L10L
sg7
L803L
sass."
EndChar

StartChar: uni25CC
Encoding: 806 9676 126
GlifName: uni25C_C_
Width: 720
VWidth: 0
GlyphClass: 2
Flags: MW
AnchorPoint: "LatinCedilla.mark" 380 0 basechar 0
AnchorPoint: "LatinBelow.mark" 360 0 basechar 0
AnchorPoint: "LatinAbove.mark" 360 0 basechar 0
LayerCount: 2
Fore
SplineSet
390 15 m 0
 390 -2 377 -15 360 -15 c 0
 343 -15 330 -2 330 15 c 0
 330 32 343 45 360 45 c 0
 377 45 390 32 390 15 c 0
390 585 m 0
 390 568 377 555 360 555 c 0
 343 555 330 568 330 585 c 0
 330 602 343 615 360 615 c 0
 377 615 390 602 390 585 c 0
645 330 m 0
 662 330 675 317 675 300 c 0
 675 283 662 270 645 270 c 0
 628 270 615 283 615 300 c 0
 615 317 628 330 645 330 c 0
75 330 m 0
 92 330 105 317 105 300 c 0
 105 283 92 270 75 270 c 0
 58 270 45 283 45 300 c 0
 45 317 58 330 75 330 c 0
97 439 m 0
 114 439 127 426 127 409 c 0
 127 392 114 379 97 379 c 0
 80 379 67 392 67 409 c 0
 67 426 80 439 97 439 c 0
97 221 m 0
 114 221 127 208 127 191 c 0
 127 174 114 161 97 161 c 0
 80 161 67 174 67 191 c 0
 67 208 80 221 97 221 c 0
623 439 m 0
 640 439 653 426 653 409 c 0
 653 392 640 379 623 379 c 0
 606 379 593 392 593 409 c 0
 593 426 606 439 623 439 c 0
623 221 m 0
 640 221 653 208 653 191 c 0
 653 174 640 161 623 161 c 0
 606 161 593 174 593 191 c 0
 593 208 606 221 623 221 c 0
158 531 m 0
 175 531 188 518 188 501 c 0
 188 484 175 471 158 471 c 0
 141 471 128 484 128 501 c 0
 128 518 141 531 158 531 c 0
561 531 m 0
 578 531 591 518 591 501 c 0
 591 484 578 471 561 471 c 0
 544 471 531 484 531 501 c 0
 531 518 544 531 561 531 c 0
158 128 m 0
 175 128 188 115 188 98 c 0
 188 81 175 68 158 68 c 0
 141 68 128 81 128 98 c 0
 128 115 141 128 158 128 c 0
561 128 m 0
 578 128 591 115 591 98 c 0
 591 81 578 68 561 68 c 0
 544 68 531 81 531 98 c 0
 531 115 544 128 561 128 c 0
469 67 m 0
 486 67 499 54 499 37 c 0
 499 20 486 7 469 7 c 0
 452 7 439 20 439 37 c 0
 439 54 452 67 469 67 c 0
251 67 m 0
 268 67 281 54 281 37 c 0
 281 20 268 7 251 7 c 0
 234 7 221 20 221 37 c 0
 221 54 234 67 251 67 c 0
469 593 m 0
 486 593 499 580 499 563 c 0
 499 546 486 533 469 533 c 0
 452 533 439 546 439 563 c 0
 439 580 452 593 469 593 c 0
251 593 m 0
 268 593 281 580 281 563 c 0
 281 546 268 533 251 533 c 0
 234 533 221 546 221 563 c 0
 221 580 234 593 251 593 c 0
EndSplineSet
PickledDataWithLists: "(dp0
Vcom.fontlab.hintData
p1
(dp2
Vvhints
p3
(lp4
(dp5
Vwidth
p6
L10L
sVposition
p7
L40L
sa(dp8
g6
L10L
sg7
L76L
sa(dp9
g6
L10L
sg7
L90L
sa(dp10
g6
L10L
sg7
L132L
sa(dp11
g6
L10L
sg7
L180L
sa(dp12
g6
L10L
sg7
L238L
sa(dp13
g6
L10L
sg7
L325L
sa(dp14
g6
L10L
sg7
L385L
sa(dp15
g6
L10L
sg7
L472L
sa(dp16
g6
L10L
sg7
L528L
sa(dp17
g6
L10L
sg7
L581L
sa(dp18
g6
L10L
sg7
L620L
sa(dp19
g6
L10L
sg7
L631L
sa(dp20
g6
L10L
sg7
L670L
sasVhhints
p21
(lp22
(dp23
g6
L10L
sg7
L-20L
sa(dp24
g6
L10L
sg7
L16L
sa(dp25
g6
L10L
sg7
L30L
sa(dp26
g6
L10L
sg7
L69L
sa(dp27
g6
L10L
sg7
L122L
sa(dp28
g6
L10L
sg7
L178L
sa(dp29
g6
L10L
sg7
L265L
sa(dp30
g6
L10L
sg7
L325L
sa(dp31
g6
L10L
sg7
L410L
sa(dp32
g6
L10L
sg7
L468L
sa(dp33
g6
L10L
sg7
L518L
sa(dp34
g6
L10L
sg7
L560L
sa(dp35
g6
L10L
sg7
L574L
sa(dp36
g6
L10L
sg7
L610L
sass."
Colour: ff00
EndChar

StartChar: uni0E01
Encoding: 401 3585 127
GlifName: uni0E_01
Width: 655
VWidth: 0
GlyphClass: 2
Flags: MW
LayerCount: 2
Fore
SplineSet
101 0 m 9
 101 294 l 2
 101 344 127 378 170 392 c 1
 50 416 l 1
 65 520 152 619 315 619 c 0
 475 619 580 527 580 399 c 2
 580 0 l 1
 473 0 l 1
 473 399 l 2
 473 494 409 540 315 540 c 0
 237 540 186 502 165 440 c 1
 308 410 l 1
 297 366 l 2
 295 366 277 369 265 369 c 0
 225 369 208 344 208 304 c 2
 208 0 l 17
 101 0 l 9
EndSplineSet
PickledDataWithLists: "(dp0
Vcom.fontlab.hintData
p1
(dp2
Vvhints
p3
(lp4
(dp5
Vwidth
p6
L10L
sVposition
p7
L91L
sa(dp8
g6
L10L
sg7
L105L
sa(dp9
g6
L10L
sg7
L179L
sa(dp10
g6
L10L
sg7
L193L
sa(dp11
g6
L10L
sg7
L467L
sa(dp12
g6
L10L
sg7
L476L
sa(dp13
g6
L10L
sg7
L559L
sa(dp14
g6
L10L
sg7
L564L
sasVhhints
p15
(lp16
(dp17
g6
L10L
sg7
L-16L
sa(dp18
g6
L10L
sg7
L4L
sa(dp19
g6
L10L
sg7
L544L
sa(dp20
g6
L10L
sg7
L606L
sass."
EndChar

StartChar: uni0E02
Encoding: 402 3586 128
GlifName: uni0E_02
Width: 635
VWidth: 0
GlyphClass: 2
Flags: MW
LayerCount: 2
Fore
SplineSet
122 520 m 0
 95 520 77 501 77 474 c 0
 77 447 95 428 122 428 c 0
 149 428 167 447 167 474 c 0
 167 501 149 520 122 520 c 0
15 474 m 0
 15 547 79 613 194 613 c 0
 308 613 375 552 375 464 c 0
 375 321 221 285 221 158 c 0
 221 94 271 60 335 60 c 0
 398 60 448 94 448 177 c 2
 448 600 l 1
 555 600 l 1
 555 177 l 2
 555 68 472 -19 335 -19 c 0
 199 -19 115 53 115 150 c 0
 115 321 295 345 295 470 c 0
 295 527 254 557 184 557 c 2
 183 557 l 1
 211 540 229 511 229 474 c 0
 229 414 183 375 122 375 c 0
 61 375 15 414 15 474 c 0
EndSplineSet
PickledDataWithLists: "(dp0
Vcom.fontlab.hintData
p1
(dp2
Vvhints
p3
(lp4
(dp5
Vwidth
p6
L10L
sVposition
p7
L14L
sa(dp8
g6
L10L
sg7
L547L
sasVhhints
p9
(lp10
(dp11
g6
L10L
sg7
L-19L
sa(dp12
g6
L10L
sg7
L432L
sa(dp13
g6
L10L
sg7
L584L
sa(dp14
g6
L10L
sg7
L594L
sass."
EndChar

StartChar: uni0E03
Encoding: 403 3587 129
GlifName: uni0E_03
Width: 635
VWidth: 0
GlyphClass: 2
Flags: MW
LayerCount: 2
Fore
SplineSet
122 556 m 0
 95 556 77 537 77 510 c 0
 77 483 95 464 122 464 c 0
 149 464 167 483 167 510 c 0
 167 537 149 556 122 556 c 0
122 609 m 0
 183 609 229 570 229 510 c 0
 229 495 226 482 221 470 c 1
 258 500 282 549 293 599 c 1
 331 604 l 1
 351 579 375 539 375 477 c 0
 375 334 221 286 221 159 c 0
 221 95 271 61 335 61 c 0
 398 61 448 94 448 177 c 2
 448 600 l 1
 555 600 l 1
 555 177 l 2
 555 68 472 -19 335 -19 c 0
 199 -19 115 54 115 151 c 0
 115 322 298 351 299 489 c 1
 271 438 224 400 142 400 c 0
 60 400 15 446 15 510 c 0
 15 570 61 609 122 609 c 0
EndSplineSet
PickledDataWithLists: "(dp0
Vcom.fontlab.hintData
p1
(dp2
Vvhints
p3
(lp4
(dp5
Vwidth
p6
L10L
sVposition
p7
L11L
sa(dp8
g6
L10L
sg7
L224L
sa(dp9
g6
L10L
sg7
L230L
sa(dp10
g6
L10L
sg7
L297L
sasVhhints
p11
(lp12
(dp13
g6
L10L
sg7
L-24L
sa(dp14
g6
L10L
sg7
L400L
sa(dp15
g6
L10L
sg7
L584L
sa(dp16
g6
L10L
sg7
L603L
sass."
EndChar

StartChar: uni0E04
Encoding: 404 3588 130
GlifName: uni0E_04
Width: 665
VWidth: 0
GlyphClass: 2
Flags: MW
LayerCount: 2
Fore
SplineSet
330 365 m 0
 303 365 285 346 285 319 c 0
 285 292 303 273 330 273 c 0
 357 273 375 292 375 319 c 0
 375 346 357 365 330 365 c 0
330 418 m 0
 391 418 437 379 437 319 c 0
 437 259 391 220 330 220 c 0
 292 220 260 235 241 261 c 1
 222 224 207 172 203 100 c 2
 200 0 l 1
 85 0 l 1
 85 0 95 71 95 118 c 0
 95 219 70 246 70 399 c 0
 70 526 172 619 330 619 c 0
 488 619 590 526 590 399 c 2
 590 0 l 1
 483 0 l 1
 483 100 l 2
 483 153 487 271 487 399 c 0
 487 495 424 540 330 540 c 0
 236 540 173 495 173 399 c 0
 173 326 176 277 179 241 c 1
 193 301 217 357 255 390 c 0
 274 407 300 418 330 418 c 0
EndSplineSet
PickledDataWithLists: "(dp0
Vcom.fontlab.hintData
p1
(dp2
Vvhints
p3
(lp4
(dp5
Vwidth
p6
L10L
sVposition
p7
L59L
sa(dp8
g6
L10L
sg7
L142L
sa(dp9
g6
L10L
sg7
L381L
sa(dp10
g6
L10L
sg7
L439L
sa(dp11
g6
L10L
sg7
L508L
sa(dp12
g6
L10L
sg7
L590L
sasVhhints
p13
(lp14
(dp15
g6
L10L
sg7
L-19L
sa(dp16
g6
L10L
sg7
L-4L
sa(dp17
g6
L10L
sg7
L363L
sa(dp18
g6
L10L
sg7
L551L
sa(dp19
g6
L10L
sg7
L608L
sass."
EndChar

StartChar: uni0E05
Encoding: 405 3589 131
GlifName: uni0E_05
Width: 665
VWidth: 0
GlyphClass: 2
Flags: MW
LayerCount: 2
Fore
SplineSet
330 365 m 0
 303 365 285 346 285 319 c 0
 285 292 303 273 330 273 c 0
 357 273 375 292 375 319 c 0
 375 346 357 365 330 365 c 0
330 418 m 0
 391 418 437 379 437 319 c 0
 437 259 391 220 330 220 c 0
 292 220 260 235 241 261 c 1
 222 224 207 172 203 100 c 2
 200 0 l 1
 85 0 l 1
 85 0 95 71 95 118 c 0
 95 219 70 246 70 399 c 0
 70 480 95 613 239 613 c 1
 330 533 l 1
 421 613 l 1
 565 613 590 480 590 399 c 2
 590 0 l 1
 483 0 l 1
 483 100 l 2
 483 153 487 271 487 399 c 0
 487 488 466 531 427 537 c 1
 342 468 l 1
 330 468 l 1
 318 468 l 1
 233 537 l 1
 194 532 169 488 169 399 c 0
 169 322 174 273 178 236 c 1
 192 298 216 356 255 390 c 0
 274 407 300 418 330 418 c 0
EndSplineSet
PickledDataWithLists: "(dp0
Vcom.fontlab.hintData
p1
(dp2
Vvhints
p3
(lp4
(dp5
Vwidth
p6
L10L
sVposition
p7
L60L
sa(dp8
g6
L10L
sg7
L142L
sa(dp9
g6
L10L
sg7
L444L
sa(dp10
g6
L10L
sg7
L508L
sa(dp11
g6
L10L
sg7
L590L
sasVhhints
p12
(lp13
(dp14
g6
L10L
sg7
L-18L
sa(dp15
g6
L10L
sg7
L-4L
sa(dp16
g6
L10L
sg7
L363L
sa(dp17
g6
L10L
sg7
L469L
sa(dp18
g6
L10L
sg7
L549L
sa(dp19
g6
L10L
sg7
L606L
sass."
EndChar

StartChar: uni0E06
Encoding: 406 3590 132
GlifName: uni0E_06
Width: 650
VWidth: 0
GlyphClass: 2
Flags: MW
LayerCount: 2
Fore
SplineSet
162 136 m 0
 135 136 117 117 117 90 c 0
 117 63 135 44 162 44 c 0
 189 44 207 63 207 90 c 0
 207 117 189 136 162 136 c 0
132 556 m 0
 105 556 87 537 87 510 c 0
 87 483 105 464 132 464 c 0
 159 464 177 483 177 510 c 0
 177 537 159 556 132 556 c 0
132 609 m 0
 193 609 239 570 239 510 c 0
 239 495 236 482 231 470 c 1
 268 500 292 549 303 599 c 1
 342 604 l 1
 362 579 385 539 385 477 c 0
 385 346 256 293 235 189 c 1
 338 179 410 138 461 93 c 1
 459 124 458 159 458 190 c 2
 458 600 l 1
 565 600 l 1
 565 0 l 1
 467 0 l 1
 424 54 357 107 264 124 c 1
 268 114 269 102 269 90 c 0
 269 30 223 -9 162 -9 c 0
 101 -9 55 30 55 90 c 0
 55 138 84 172 127 184 c 1
 149 325 308 361 309 489 c 1
 281 438 234 400 152 400 c 0
 70 400 25 446 25 510 c 0
 25 570 71 609 132 609 c 0
EndSplineSet
PickledDataWithLists: "(dp0
Vcom.fontlab.hintData
p1
(dp2
Vvhints
p3
(lp4
(dp5
Vwidth
p6
L10L
sVposition
p7
L11L
sa(dp8
g6
L10L
sg7
L35L
sa(dp9
g6
L10L
sg7
L110L
sa(dp10
g6
L10L
sg7
L239L
sa(dp11
g6
L10L
sg7
L251L
sa(dp12
g6
L10L
sg7
L317L
sa(dp13
g6
L10L
sg7
L325L
sa(dp14
g6
L10L
sg7
L486L
sa(dp15
g6
L10L
sg7
L494L
sa(dp16
g6
L10L
sg7
L566L
sa(dp17
g6
L10L
sg7
L576L
sasVhhints
p18
(lp19
(dp20
g6
L10L
sg7
L-27L
sa(dp21
g6
L10L
sg7
L223L
sa(dp22
g6
L10L
sg7
L277L
sa(dp23
g6
L10L
sg7
L403L
sa(dp24
g6
L10L
sg7
L598L
sa(dp25
g6
L10L
sg7
L608L
sass."
EndChar

StartChar: uni0E07
Encoding: 407 3591 133
GlifName: uni0E_07
Width: 525
VWidth: 0
GlyphClass: 2
Flags: MW
AnchorPoint: "ThaiAbove.mark" 545 0 basechar 0
LayerCount: 2
Fore
SplineSet
306 556 m 0
 279 556 261 537 261 510 c 0
 261 483 279 464 306 464 c 0
 333 464 351 483 351 510 c 0
 351 537 333 556 306 556 c 0
10 328 m 1
 75 388 l 1
 353 86 l 1
 346 106 338 136 338 170 c 2
 338 300 l 2
 338 359 351 382 357 421 c 1
 342 414 325 411 306 411 c 0
 245 411 199 450 199 510 c 0
 199 570 245 609 306 609 c 0
 402 609 450 552 450 465 c 0
 450 409 442 362 442 290 c 2
 442 0 l 1
 328 0 l 1
 10 328 l 1
EndSplineSet
PickledDataWithLists: "(dp0
Vcom.fontlab.hintData
p1
(dp2
Vvhints
p3
(lp4
(dp5
Vwidth
p6
L10L
sVposition
p7
L41L
sa(dp8
g6
L10L
sg7
L151L
sa(dp9
g6
L10L
sg7
L381L
sa(dp10
g6
L10L
sg7
L469L
sasVhhints
p11
(lp12
(dp13
g6
L10L
sg7
L-26L
sa(dp14
g6
L10L
sg7
L355L
sa(dp15
g6
L10L
sg7
L504L
sa(dp16
g6
L10L
sg7
L549L
sa(dp17
g6
L10L
sg7
L611L
sass."
EndChar

StartChar: uni0E08
Encoding: 408 3592 134
GlifName: uni0E_08
Width: 590
VWidth: 0
GlyphClass: 2
Flags: MW
AnchorPoint: "ThaiBelow.mark" 560 0 basechar 0
LayerCount: 2
Fore
SplineSet
30 431 m 1
 43 527 124 619 275 619 c 0
 423 619 520 535 520 417 c 0
 520 268 460 197 460 90 c 2
 460 0 l 1
 346 0 l 1
 342 79 320 157 289 208 c 1
 271 179 237 162 197 162 c 0
 136 162 90 201 90 261 c 0
 90 321 136 360 197 360 c 0
 303 360 355 251 378 146 c 1
 381 245 414 293 414 417 c 0
 414 502 357 540 275 540 c 0
 196 540 147 498 137 424 c 1
 30 431 l 1
197 215 m 0
 224 215 242 234 242 261 c 0
 242 288 224 307 197 307 c 0
 170 307 152 288 152 261 c 0
 152 234 170 215 197 215 c 0
EndSplineSet
PickledDataWithLists: "(dp0
Vcom.fontlab.hintData
p1
(dp2
Vvhints
p3
(lp4
(dp5
Vwidth
p6
L10L
sVposition
p7
L31L
sa(dp8
g6
L10L
sg7
L101L
sa(dp9
g6
L10L
sg7
L444L
sa(dp10
g6
L10L
sg7
L529L
sasVhhints
p11
(lp12
(dp13
g6
L10L
sg7
L-11L
sa(dp14
g6
L10L
sg7
L229L
sa(dp15
g6
L10L
sg7
L307L
sa(dp16
g6
L10L
sg7
L429L
sa(dp17
g6
L9L
sg7
L552L
sa(dp18
g6
L10L
sg7
L614L
sass."
EndChar

StartChar: uni0E09
Encoding: 409 3593 135
GlifName: uni0E_09
Width: 645
VWidth: 0
GlyphClass: 2
Flags: MW
LayerCount: 2
Fore
SplineSet
137 0 m 1
 137 112 l 2
 137 132 143 149 151 162 c 1
 93 164 49 203 49 261 c 0
 49 321 95 360 156 360 c 0
 217 360 263 321 263 261 c 0
 263 209 239 187 239 136 c 2
 239 89 l 1
 286 137 351 185 448 192 c 1
 451 199 453 206 453 215 c 2
 453 409 l 2
 453 499 394 540 305 540 c 0
 220 540 168 493 157 415 c 1
 50 423 l 1
 64 523 148 619 305 619 c 0
 459 619 560 532 560 409 c 2
 560 235 l 2
 560 212 547 196 531 183 c 1
 572 170 600 137 600 90 c 0
 600 30 554 -9 493 -9 c 0
 432 -9 386 30 386 90 c 0
 386 100 387 110 390 119 c 1
 323 97 273 49 235 0 c 1
 137 0 l 1
493 136 m 0
 466 136 448 117 448 90 c 0
 448 63 466 44 493 44 c 0
 520 44 538 63 538 90 c 0
 538 117 520 136 493 136 c 0
156 307 m 0
 129 307 111 288 111 261 c 0
 111 234 129 215 156 215 c 0
 183 215 201 234 201 261 c 0
 201 288 183 307 156 307 c 0
EndSplineSet
PickledDataWithLists: "(dp0
Vcom.fontlab.hintData
p1
(dp2
Vvhints
p3
(lp4
(dp5
Vwidth
p6
L10L
sVposition
p7
L33L
sa(dp8
g6
L10L
sg7
L87L
sa(dp9
g6
L10L
sg7
L156L
sa(dp10
g6
L10L
sg7
L410L
sa(dp11
g6
L10L
sg7
L426L
sa(dp12
g6
L10L
sg7
L480L
sa(dp13
g6
L10L
sg7
L498L
sa(dp14
g6
L10L
sg7
L570L
sa(dp15
g6
L10L
sg7
L640L
sasVhhints
p16
(lp17
(dp18
g6
L10L
sg7
L-19L
sa(dp19
g6
L10L
sg7
L29L
sa(dp20
g6
L10L
sg7
L231L
sa(dp21
g6
L10L
sg7
L279L
sa(dp22
g6
L10L
sg7
L318L
sa(dp23
g6
L10L
sg7
L431L
sa(dp24
g6
L10L
sg7
L557L
sa(dp25
g6
L10L
sg7
L616L
sass."
EndChar

StartChar: uni0E0A
Encoding: 410 3594 136
GlifName: uni0E_0A_
Width: 640
VWidth: 0
GlyphClass: 2
Flags: MW
LayerCount: 2
Fore
SplineSet
122 520 m 0
 95 520 77 501 77 474 c 0
 77 447 95 428 122 428 c 0
 149 428 167 447 167 474 c 0
 167 501 149 520 122 520 c 0
374 484 m 1
 454 495 495 544 498 623 c 1
 605 614 l 1
 603 539 549 480 468 455 c 1
 520 439 555 409 555 360 c 2
 555 177 l 2
 555 68 472 -19 335 -19 c 0
 199 -19 115 53 115 150 c 0
 115 321 295 345 295 470 c 0
 295 527 254 557 184 557 c 2
 183 557 l 1
 211 540 229 511 229 474 c 0
 229 414 183 375 122 375 c 0
 61 375 15 414 15 474 c 0
 15 547 79 613 194 613 c 0
 299 613 365 561 374 484 c 1
371 427 m 1
 348 313 221 273 221 158 c 0
 221 94 271 60 335 60 c 0
 398 60 448 94 448 177 c 2
 448 360 l 2
 448 398 428 421 371 427 c 1
EndSplineSet
PickledDataWithLists: "(dp0
Vcom.fontlab.hintData
p1
(dp2
Vvhints
p3
(lp4
(dp5
Vwidth
p6
L10L
sVposition
p7
L44L
sa(dp8
g6
L10L
sg7
L186L
sa(dp9
g6
L10L
sg7
L197L
sa(dp10
g6
L10L
sg7
L268L
sa(dp11
g6
L10L
sg7
L279L
sa(dp12
g6
L10L
sg7
L473L
sa(dp13
g6
L10L
sg7
L555L
sa(dp14
g6
L10L
sg7
L586L
sasVhhints
p15
(lp16
(dp17
g6
L10L
sg7
L-29L
sa(dp18
g6
L10L
sg7
L29L
sa(dp19
g6
L10L
sg7
L437L
sa(dp20
g6
L10L
sg7
L599L
sa(dp21
g6
L10L
sg7
L644L
sass."
EndChar

StartChar: uni0E0B
Encoding: 411 3595 137
GlifName: uni0E_0B_
Width: 640
VWidth: 0
GlyphClass: 2
Flags: MW
LayerCount: 2
Fore
SplineSet
122 556 m 0
 95 556 77 537 77 510 c 0
 77 483 95 464 122 464 c 0
 149 464 167 483 167 510 c 0
 167 537 149 556 122 556 c 0
122 609 m 0
 183 609 229 570 229 510 c 0
 229 495 226 482 221 470 c 1
 258 500 282 549 293 599 c 1
 331 604 l 1
 350 580 373 542 375 484 c 1
 455 496 495 544 498 623 c 1
 605 614 l 1
 603 539 549 480 468 455 c 1
 520 439 555 409 555 360 c 2
 555 177 l 2
 555 68 472 -19 335 -19 c 0
 199 -19 115 54 115 151 c 0
 115 322 298 351 299 489 c 1
 271 438 224 400 142 400 c 0
 60 400 15 446 15 510 c 0
 15 570 61 609 122 609 c 0
448 360 m 2
 448 398 427 422 368 428 c 1
 339 321 221 270 221 159 c 0
 221 95 271 61 335 61 c 0
 398 61 448 94 448 177 c 2
 448 360 l 2
EndSplineSet
PickledDataWithLists: "(dp0
Vcom.fontlab.hintData
p1
(dp2
Vvhints
p3
(lp4
(dp5
Vwidth
p6
L10L
sVposition
p7
L11L
sa(dp8
g6
L10L
sg7
L199L
sa(dp9
g6
L10L
sg7
L226L
sa(dp10
g6
L10L
sg7
L278L
sa(dp11
g6
L10L
sg7
L296L
sa(dp12
g6
L10L
sg7
L474L
sa(dp13
g6
L10L
sg7
L556L
sa(dp14
g6
L10L
sg7
L586L
sasVhhints
p15
(lp16
(dp17
g6
L10L
sg7
L-24L
sa(dp18
g6
L10L
sg7
L34L
sa(dp19
g6
L10L
sg7
L398L
sa(dp20
g6
L10L
sg7
L603L
sa(dp21
g6
L10L
sg7
L608L
sa(dp22
g6
L10L
sg7
L644L
sass."
EndChar

StartChar: uni0E0C
Encoding: 412 3596 138
GlifName: uni0E_0C_
Width: 950
VWidth: 0
GlyphClass: 2
Flags: MW
LayerCount: 2
Fore
SplineSet
491 136 m 0
 464 136 446 117 446 90 c 0
 446 63 464 44 491 44 c 0
 518 44 536 63 536 90 c 0
 536 117 518 136 491 136 c 0
315 619 m 0
 475 619 580 527 580 399 c 2
 580 215 l 2
 580 205 581 196 582 187 c 1
 665 177 721 138 761 95 c 1
 759 126 758 160 758 190 c 2
 758 600 l 1
 865 600 l 1
 865 0 l 1
 767 0 l 1
 726 56 675 109 595 123 c 1
 597 113 598 103 598 90 c 0
 598 30 552 -9 491 -9 c 0
 430 -9 384 30 384 90 c 0
 384 148 427 187 486 189 c 1
 478 202 473 219 473 240 c 2
 473 399 l 2
 473 494 409 540 315 540 c 0
 237 540 186 502 165 440 c 1
 308 410 l 1
 297 366 l 2
 295 366 277 369 265 369 c 0
 225 369 208 344 208 304 c 2
 208 240 l 2
 208 220 204 203 197 189 c 1
 258 189 303 150 303 90 c 0
 303 30 257 -9 196 -9 c 0
 135 -9 89 30 89 90 c 0
 89 136 101 165 101 210 c 2
 101 294 l 2
 101 344 127 378 170 392 c 1
 50 416 l 1
 65 520 152 619 315 619 c 0
196 136 m 0
 169 136 151 117 151 90 c 0
 151 63 169 44 196 44 c 0
 223 44 241 63 241 90 c 0
 241 117 223 136 196 136 c 0
EndSplineSet
PickledDataWithLists: "(dp0
Vcom.fontlab.hintData
p1
(dp2
Vvhints
p3
(lp4
(dp5
Vwidth
p6
L10L
sVposition
p7
L84L
sa(dp8
g6
L10L
sg7
L93L
sa(dp9
g6
L10L
sg7
L114L
sa(dp10
g6
L10L
sg7
L166L
sa(dp11
g6
L10L
sg7
L196L
sa(dp12
g6
L10L
sg7
L343L
sa(dp13
g6
L10L
sg7
L414L
sa(dp14
g6
L10L
sg7
L502L
sa(dp15
g6
L10L
sg7
L507L
sa(dp16
g6
L10L
sg7
L576L
sa(dp17
g6
L10L
sg7
L780L
sa(dp18
g6
L10L
sg7
L789L
sa(dp19
g6
L10L
sg7
L861L
sa(dp20
g6
L10L
sg7
L871L
sasVhhints
p21
(lp22
(dp23
g6
L10L
sg7
L-26L
sa(dp24
g6
L10L
sg7
L-17L
sa(dp25
g6
L10L
sg7
L41L
sa(dp26
g6
L10L
sg7
L234L
sa(dp27
g6
L10L
sg7
L286L
sa(dp28
g6
L10L
sg7
L546L
sa(dp29
g6
L10L
sg7
L593L
sa(dp30
g6
L10L
sg7
L604L
sass."
EndChar

StartChar: uni0E0D
Encoding: 413 3597 139
GlifName: uni0E_0D_
Width: 950
VWidth: 0
GlyphClass: 2
Flags: HMW
LayerCount: 2
Fore
SplineSet
572 -113 m 0
 550 -113 536 -128 536 -150 c 0
 536 -172 550 -187 572 -187 c 0
 594 -187 608 -172 608 -150 c 0
 608 -128 594 -113 572 -113 c 0
572 -66 m 0
 624 -66 662 -99 662 -150 c 0
 662 -173 654 -192 641 -206 c 1
 645 -206 650 -206 654 -206 c 2
 674 -206 l 2
 735 -206 782 -176 782 -81 c 1
 862 -90 l 1
 862 -195 790 -258 687 -258 c 2
 627 -258 l 2
 539 -258 482 -218 482 -150 c 0
 482 -99 520 -66 572 -66 c 0
EndSplineSet
Refer: 140 63642 S 1 0 0 1 0 0 2
PickledDataWithLists: "(dp0
Vcom.fontlab.hintData
p1
(dp2
Vvhints
p3
(lp4
(dp5
Vwidth
p6
L10L
sVposition
p7
L81L
sa(dp8
g6
L10L
sg7
L101L
sa(dp9
g6
L10L
sg7
L169L
sa(dp10
g6
L10L
sg7
L189L
sa(dp11
g6
L10L
sg7
L315L
sa(dp12
g6
L10L
sg7
L471L
sa(dp13
g6
L10L
sg7
L476L
sa(dp14
g6
L10L
sg7
L513L
sa(dp15
g6
L10L
sg7
L559L
sa(dp16
g6
L10L
sg7
L564L
sa(dp17
g6
L10L
sg7
L591L
sa(dp18
g6
L10L
sg7
L771L
sa(dp19
g6
L10L
sg7
L781L
sa(dp20
g6
L10L
sg7
L859L
sa(dp21
g6
L10L
sg7
L869L
sa(dp22
g6
L10L
sg7
L879L
sasVhhints
p23
(lp24
(dp25
g6
L10L
sg7
L-252L
sa(dp26
g6
L10L
sg7
L-197L
sa(dp27
g6
L10L
sg7
L-98L
sa(dp28
g6
L10L
sg7
L-19L
sa(dp29
g6
L10L
sg7
L43L
sa(dp30
g6
L10L
sg7
L56L
sa(dp31
g6
L10L
sg7
L544L
sa(dp32
g6
L10L
sg7
L595L
sa(dp33
g6
L10L
sg7
L606L
sass."
Substitution2: "ThaiRC.rd subtable" uni0E0D.rd
Colour: ff00ff
EndChar

StartChar: uni0E0D.rd
Encoding: 832 63642 140
GlifName: uni0E_0D_.rd
Width: 950
VWidth: 0
GlyphClass: 2
Flags: MW
LayerCount: 2
Fore
SplineSet
196 136 m 0
 169 136 151 117 151 90 c 0
 151 63 169 44 196 44 c 0
 223 44 241 63 241 90 c 0
 241 117 223 136 196 136 c 0
315 619 m 0
 475 619 580 527 580 399 c 2
 580 157 l 2
 580 87 622 60 672 60 c 0
 722 60 763 87 763 157 c 2
 763 600 l 1
 870 600 l 1
 870 157 l 2
 870 61 796 -19 672 -19 c 0
 548 -19 473 61 473 157 c 2
 473 399 l 2
 473 494 409 540 315 540 c 0
 237 540 186 502 165 440 c 1
 308 410 l 1
 297 366 l 2
 295 366 277 369 265 369 c 0
 225 369 208 344 208 304 c 2
 208 240 l 2
 208 220 204 203 197 189 c 1
 258 189 303 150 303 90 c 0
 303 30 257 -9 196 -9 c 0
 135 -9 89 30 89 90 c 0
 89 136 101 165 101 210 c 2
 101 294 l 2
 101 344 127 378 170 392 c 1
 50 416 l 1
 65 520 152 619 315 619 c 0
EndSplineSet
PickledDataWithLists: "(dp0
Vcom.fontlab.hintData
p1
(dp2
Vvhints
p3
(lp4
(dp5
Vwidth
p6
L10L
sVposition
p7
L81L
sa(dp8
g6
L10L
sg7
L101L
sa(dp9
g6
L10L
sg7
L169L
sa(dp10
g6
L10L
sg7
L189L
sa(dp11
g6
L10L
sg7
L315L
sa(dp12
g6
L10L
sg7
L471L
sa(dp13
g6
L10L
sg7
L476L
sa(dp14
g6
L10L
sg7
L559L
sa(dp15
g6
L10L
sg7
L564L
sa(dp16
g6
L10L
sg7
L771L
sa(dp17
g6
L10L
sg7
L781L
sa(dp18
g6
L10L
sg7
L859L
sa(dp19
g6
L10L
sg7
L869L
sasVhhints
p20
(lp21
(dp22
g6
L10L
sg7
L-19L
sa(dp23
g6
L10L
sg7
L43L
sa(dp24
g6
L10L
sg7
L56L
sa(dp25
g6
L10L
sg7
L544L
sa(dp26
g6
L10L
sg7
L595L
sa(dp27
g6
L10L
sg7
L606L
sass."
EndChar

StartChar: uni0E0E
Encoding: 414 3598 141
GlifName: uni0E_0E_
Width: 665
VWidth: 0
GlyphClass: 2
Flags: MW
LayerCount: 2
Fore
SplineSet
147 136 m 0
 120 136 102 117 102 90 c 0
 102 63 120 44 147 44 c 0
 174 44 192 63 192 90 c 0
 192 117 174 136 147 136 c 0
325 619 m 0
 485 619 590 527 590 399 c 2
 590 -75 l 1
 590 -235 l 1
 494 -235 l 1
 442 -199 373 -160 313 -135 c 1
 315 -141 316 -148 316 -155 c 0
 316 -197 281 -247 214 -247 c 0
 152 -247 112 -208 112 -155 c 0
 112 -100 154 -62 217 -62 c 0
 292 -62 399 -112 486 -165 c 1
 484 -141 483 -110 483 -75 c 2
 483 399 l 2
 483 494 419 540 325 540 c 0
 248 540 196 503 175 441 c 1
 338 410 l 1
 327 366 l 2
 325 366 307 369 295 369 c 0
 255 369 238 344 238 304 c 2
 238 210 l 2
 238 165 254 136 254 90 c 0
 254 30 208 -9 147 -9 c 0
 86 -9 40 30 40 90 c 0
 40 149 84 187 143 189 c 1
 136 203 131 220 131 240 c 2
 131 294 l 2
 131 344 155 377 198 392 c 1
 60 415 l 1
 60 416 l 1
 75 520 162 619 325 619 c 0
249 -114 m 1
 238 -112 229 -110 220 -110 c 0
 198 -110 175 -123 175 -155 c 0
 175 -185 196 -199 217 -199 c 0
 245 -199 264 -180 264 -155 c 0
 264 -136 257 -124 249 -114 c 1
EndSplineSet
PickledDataWithLists: "(dp0
Vcom.fontlab.hintData
p1
(dp2
Vvhints
p3
(lp4
(dp5
Vwidth
p6
L10L
sVposition
p7
L26L
sa(dp8
g6
L10L
sg7
L81L
sa(dp9
g6
L10L
sg7
L126L
sa(dp10
g6
L10L
sg7
L219L
sa(dp11
g6
L10L
sg7
L470L
sa(dp12
g6
L10L
sg7
L476L
sa(dp13
g6
L10L
sg7
L556L
sa(dp14
g6
L10L
sg7
L564L
sasVhhints
p15
(lp16
(dp17
g6
L10L
sg7
L-242L
sa(dp18
g6
L10L
sg7
L-235L
sa(dp19
g6
L10L
sg7
L-137L
sa(dp20
g6
L10L
sg7
L-87L
sa(dp21
g6
L10L
sg7
L-16L
sa(dp22
g6
L10L
sg7
L66L
sa(dp23
g6
L10L
sg7
L544L
sa(dp24
g6
L10L
sg7
L606L
sass."
EndChar

StartChar: uni0E0F
Encoding: 415 3599 142
GlifName: uni0E_0F_
Width: 665
VWidth: 0
GlyphClass: 2
Flags: MW
LayerCount: 2
Fore
SplineSet
147 136 m 0
 120 136 102 117 102 90 c 0
 102 63 120 44 147 44 c 0
 174 44 192 63 192 90 c 0
 192 117 174 136 147 136 c 0
325 619 m 0
 485 619 590 527 590 399 c 2
 590 -75 l 1
 590 -235 l 1
 494 -235 l 1
 370 -138 l 1
 359 -156 344 -178 322 -197 c 0
 292 -223 250 -247 201 -247 c 0
 138 -247 96 -209 96 -154 c 0
 96 -101 136 -62 198 -62 c 0
 263 -62 298 -110 300 -151 c 1
 324 -122 340 -85 343 -75 c 1
 376 -75 l 1
 486 -165 l 1
 484 -141 483 -110 483 -75 c 2
 483 399 l 2
 483 494 419 540 325 540 c 0
 248 540 196 503 175 441 c 1
 338 410 l 1
 327 366 l 2
 325 366 307 369 295 369 c 0
 255 369 238 344 238 304 c 2
 238 210 l 2
 238 165 254 136 254 90 c 0
 254 30 208 -9 147 -9 c 0
 86 -9 40 30 40 90 c 0
 40 149 84 187 143 189 c 1
 136 203 131 220 131 240 c 2
 131 294 l 2
 131 344 155 377 198 392 c 1
 60 415 l 1
 60 416 l 1
 75 520 162 619 325 619 c 0
159 -154 m 0
 159 -186 182 -198 204 -198 c 0
 214 -198 224 -197 234 -194 c 1
 242 -185 248 -172 248 -154 c 0
 248 -129 229 -110 201 -110 c 0
 180 -110 159 -124 159 -154 c 0
EndSplineSet
PickledDataWithLists: "(dp0
Vcom.fontlab.hintData
p1
(dp2
Vvhints
p3
(lp4
(dp5
Vwidth
p6
L10L
sVposition
p7
L26L
sa(dp8
g6
L10L
sg7
L81L
sa(dp9
g6
L10L
sg7
L97L
sa(dp10
g6
L10L
sg7
L131L
sa(dp11
g6
L10L
sg7
L166L
sa(dp12
g6
L10L
sg7
L179L
sa(dp13
g6
L10L
sg7
L221L
sa(dp14
g6
L10L
sg7
L470L
sa(dp15
g6
L10L
sg7
L476L
sa(dp16
g6
L10L
sg7
L553L
sa(dp17
g6
L10L
sg7
L564L
sasVhhints
p18
(lp19
(dp20
g6
L10L
sg7
L-240L
sa(dp21
g6
L10L
sg7
L-234L
sa(dp22
g6
L10L
sg7
L-191L
sa(dp23
g6
L10L
sg7
L-88L
sa(dp24
g6
L10L
sg7
L-83L
sa(dp25
g6
L10L
sg7
L-16L
sa(dp26
g6
L10L
sg7
L66L
sa(dp27
g6
L10L
sg7
L544L
sa(dp28
g6
L10L
sg7
L606L
sass."
EndChar

StartChar: uni0E10
Encoding: 416 3600 143
GlifName: uni0E_10
Width: 555
VWidth: 0
GlyphClass: 2
Flags: HMW
AnchorPoint: "ThaiTone.mark" 535 0 basechar 0
AnchorPoint: "ThaiAbove.mark" 575 0 basechar 0
LayerCount: 2
Fore
SplineSet
133 -154 m 0
 133 -186 156 -198 178 -198 c 0
 188 -198 198 -197 208 -194 c 1
 216 -185 222 -172 222 -154 c 0
 222 -129 203 -110 175 -110 c 0
 154 -110 133 -124 133 -154 c 0
274 -151 m 1
 298 -122 314 -85 317 -75 c 1
 350 -75 l 1
 429 -156 l 1
 428 -133 427 -106 427 -75 c 1
 507 -75 l 1
 507 -235 l 1
 438 -235 l 1
 342 -141 l 1
 331 -159 316 -179 296 -197 c 0
 266 -223 224 -247 175 -247 c 0
 112 -247 70 -209 70 -154 c 0
 70 -101 110 -62 172 -62 c 0
 237 -62 272 -110 274 -151 c 1
EndSplineSet
Refer: 144 63646 S 1 0 0 1 0 0 2
PickledDataWithLists: "(dp0
Vcom.fontlab.hintData
p1
(dp2
Vvhints
p3
(lp4
(dp5
Vwidth
p6
L10L
sVposition
p7
L30L
sa(dp8
g6
L10L
sg7
L80L
sa(dp9
g6
L10L
sg7
L89L
sa(dp10
g6
L10L
sg7
L110L
sa(dp11
g6
L10L
sg7
L149L
sa(dp12
g6
L10L
sg7
L160L
sa(dp13
g6
L10L
sg7
L434L
sa(dp14
g6
L10L
sg7
L504L
sa(dp15
g6
L10L
sg7
L510L
sa(dp16
g6
L10L
sg7
L516L
sa(dp17
g6
L10L
sg7
L569L
sasVhhints
p18
(lp19
(dp20
g6
L10L
sg7
L-237L
sa(dp21
g6
L10L
sg7
L-229L
sa(dp22
g6
L10L
sg7
L-189L
sa(dp23
g6
L10L
sg7
L-92L
sa(dp24
g6
L10L
sg7
L-87L
sa(dp25
g6
L10L
sg7
L-72L
sa(dp26
g6
L10L
sg7
L-9L
sa(dp27
g6
L10L
sg7
L197L
sa(dp28
g6
L10L
sg7
L215L
sa(dp29
g6
L10L
sg7
L272L
sa(dp30
g6
L10L
sg7
L366L
sa(dp31
g6
L10L
sg7
L420L
sa(dp32
g6
L10L
sg7
L558L
sa(dp33
g6
L10L
sg7
L612L
sa(dp34
g6
L10L
sg7
L652L
sass."
Substitution2: "ThaiRC.rd subtable" uni0E10.rd
Colour: ff00ff
EndChar

StartChar: uni0E10.rd
Encoding: 836 63646 144
GlifName: uni0E_10.rd
Width: 555
VWidth: 0
GlyphClass: 2
Flags: MW
AnchorPoint: "ThaiBelow.mark" 510 0 basechar 0
AnchorPoint: "ThaiTone.mark" 535 0 basechar 0
AnchorPoint: "ThaiAbove.mark" 575 0 basechar 0
LayerCount: 2
Fore
SplineSet
157 277 m 0
 130 277 112 258 112 231 c 0
 112 204 130 185 157 185 c 0
 184 185 202 204 202 231 c 0
 202 258 184 277 157 277 c 0
157 330 m 0
 268 330 320 217 342 116 c 1
 346 172 367 234 367 293 c 0
 367 370 271 399 50 399 c 1
 50 424 l 2
 50 541 138 619 264 619 c 0
 341 619 391 589 421 560 c 1
 423 565 425 569 427 572 c 2
 451 613 l 1
 530 598 l 1
 530 593 l 1
 446 485 l 1
 413 485 l 1
 397 507 356 547 280 547 c 0
 219 547 163 520 152 450 c 1
 350 443 470 408 470 306 c 0
 470 226 420 139 420 60 c 2
 420 0 l 1
 306 0 l 1
 303 68 284 140 255 189 c 1
 239 154 202 132 157 132 c 0
 96 132 50 171 50 231 c 0
 50 291 96 330 157 330 c 0
EndSplineSet
PickledDataWithLists: "(dp0
Vcom.fontlab.hintData
p1
(dp2
Vvhints
p3
(lp4
(dp5
Vwidth
p6
L10L
sVposition
p7
L30L
sa(dp8
g6
L10L
sg7
L89L
sa(dp9
g6
L10L
sg7
L110L
sa(dp10
g6
L10L
sg7
L430L
sa(dp11
g6
L10L
sg7
L510L
sa(dp12
g6
L10L
sg7
L569L
sasVhhints
p13
(lp14
(dp15
g6
L10L
sg7
L-9L
sa(dp16
g6
L10L
sg7
L197L
sa(dp17
g6
L10L
sg7
L215L
sa(dp18
g6
L10L
sg7
L272L
sa(dp19
g6
L10L
sg7
L366L
sa(dp20
g6
L10L
sg7
L420L
sa(dp21
g6
L10L
sg7
L558L
sa(dp22
g6
L10L
sg7
L612L
sa(dp23
g6
L10L
sg7
L652L
sass."
EndChar

StartChar: uni0E11
Encoding: 417 3601 145
GlifName: uni0E_11
Width: 665
VWidth: 0
GlyphClass: 2
Flags: MW
LayerCount: 2
Fore
SplineSet
122 556 m 0
 95 556 77 537 77 510 c 0
 77 483 95 464 122 464 c 0
 149 464 167 483 167 510 c 0
 167 537 149 556 122 556 c 0
122 609 m 0
 183 609 229 570 229 510 c 0
 229 495 226 482 221 470 c 1
 258 500 282 549 293 599 c 1
 332 604 l 1
 347 585 365 557 372 517 c 1
 407 568 450 609 495 609 c 0
 575 609 585 534 585 487 c 2
 585 0 l 1
 478 0 l 1
 478 468 l 2
 478 495 473 517 455 520 c 1
 429 512 393 464 368 423 c 1
 340 319 237 269 237 159 c 2
 237 0 l 1
 130 0 l 1
 130 151 l 2
 130 322 298 351 299 489 c 1
 271 438 224 400 142 400 c 0
 60 400 15 446 15 510 c 0
 15 570 61 609 122 609 c 0
EndSplineSet
PickledDataWithLists: "(dp0
Vcom.fontlab.hintData
p1
(dp2
Vvhints
p3
(lp4
(dp5
Vwidth
p6
L10L
sVposition
p7
L11L
sa(dp8
g6
L10L
sg7
L161L
sa(dp9
g6
L10L
sg7
L235L
sa(dp10
g6
L10L
sg7
L283L
sa(dp11
g6
L10L
sg7
L524L
sa(dp12
g6
L10L
sg7
L529L
sa(dp13
g6
L10L
sg7
L606L
sa(dp14
g6
L10L
sg7
L608L
sasVhhints
p15
(lp16
(dp17
g6
L10L
sg7
L-15L
sa(dp18
g6
L10L
sg7
L-8L
sa(dp19
g6
L10L
sg7
L398L
sa(dp20
g6
L10L
sg7
L602L
sa(dp21
g6
L10L
sg7
L611L
sass."
EndChar

StartChar: uni0E12
Encoding: 418 3602 146
GlifName: uni0E_12
Width: 960
VWidth: 0
GlyphClass: 2
Flags: MW
LayerCount: 2
Fore
SplineSet
330 365 m 0
 303 365 285 346 285 319 c 0
 285 292 303 273 330 273 c 0
 357 273 375 292 375 319 c 0
 375 346 357 365 330 365 c 0
501 136 m 0
 474 136 456 117 456 90 c 0
 456 63 474 44 501 44 c 0
 528 44 546 63 546 90 c 0
 546 117 528 136 501 136 c 0
239 613 m 1
 330 533 l 1
 421 613 l 1
 565 613 590 480 590 399 c 2
 590 215 l 2
 590 205 591 196 592 187 c 1
 675 177 731 138 771 95 c 1
 769 126 768 160 768 190 c 2
 768 600 l 1
 875 600 l 1
 875 0 l 1
 777 0 l 1
 736 56 685 109 605 123 c 1
 607 113 608 103 608 90 c 0
 608 30 562 -9 501 -9 c 0
 440 -9 394 30 394 90 c 0
 394 150 440 188 500 189 c 1
 493 202 487 219 487 240 c 2
 487 399 l 2
 487 488 466 531 427 537 c 1
 342 468 l 1
 330 468 l 1
 318 468 l 1
 233 537 l 1
 194 532 169 488 169 399 c 0
 169 256 189 224 189 157 c 0
 189 134 187 108 185 92 c 1
 230 147 295 178 339 220 c 1
 336 220 333 220 330 220 c 0
 269 220 223 259 223 319 c 0
 223 379 269 418 330 418 c 0
 391 418 437 379 437 319 c 0
 437 162 240 121 206 0 c 1
 85 0 l 1
 85 0 95 71 95 118 c 0
 95 219 70 246 70 399 c 0
 70 480 95 613 239 613 c 1
EndSplineSet
PickledDataWithLists: "(dp0
Vcom.fontlab.hintData
p1
(dp2
Vvhints
p3
(lp4
(dp5
Vwidth
p6
L10L
sVposition
p7
L64L
sa(dp8
g6
L10L
sg7
L146L
sa(dp9
g6
L10L
sg7
L322L
sa(dp10
g6
L10L
sg7
L328L
sa(dp11
g6
L10L
sg7
L375L
sa(dp12
g6
L10L
sg7
L445L
sa(dp13
g6
L10L
sg7
L535L
sa(dp14
g6
L10L
sg7
L605L
sa(dp15
g6
L10L
sg7
L781L
sa(dp16
g6
L10L
sg7
L789L
sa(dp17
g6
L10L
sg7
L861L
sa(dp18
g6
L10L
sg7
L871L
sasVhhints
p19
(lp20
(dp21
g6
L10L
sg7
L-19L
sa(dp22
g6
L10L
sg7
L-15L
sa(dp23
g6
L10L
sg7
L37L
sa(dp24
g6
L10L
sg7
L241L
sa(dp25
g6
L10L
sg7
L289L
sa(dp26
g6
L10L
sg7
L412L
sa(dp27
g6
L10L
sg7
L546L
sa(dp28
g6
L10L
sg7
L587L
sa(dp29
g6
L10L
sg7
L593L
sa(dp30
g6
L10L
sg7
L603L
sass."
EndChar

StartChar: uni0E13
Encoding: 419 3603 147
GlifName: uni0E_13
Width: 960
VWidth: 0
GlyphClass: 2
Flags: MW
LayerCount: 2
Fore
SplineSet
196 136 m 0
 169 136 151 117 151 90 c 0
 151 63 169 44 196 44 c 0
 223 44 241 63 241 90 c 0
 241 117 223 136 196 136 c 0
804 136 m 0
 777 136 759 117 759 90 c 0
 759 63 777 44 804 44 c 0
 831 44 849 63 849 90 c 0
 849 117 831 136 804 136 c 0
165 440 m 1
 308 410 l 1
 297 366 l 2
 295 366 277 369 265 369 c 0
 225 369 208 344 208 304 c 2
 208 240 l 2
 208 220 204 203 197 189 c 1
 258 189 303 150 303 90 c 0
 303 30 257 -9 196 -9 c 0
 135 -9 89 30 89 90 c 0
 89 136 101 165 101 210 c 2
 101 294 l 2
 101 344 127 378 170 392 c 1
 50 416 l 1
 65 520 152 619 315 619 c 0
 475 619 580 527 580 399 c 2
 580 190 l 2
 580 162 578 129 577 100 c 1
 618 145 676 185 759 192 c 1
 762 199 764 206 764 215 c 2
 764 600 l 1
 870 600 l 1
 870 235 l 2
 870 213 858 196 842 183 c 1
 883 170 911 137 911 90 c 0
 911 30 865 -9 804 -9 c 0
 743 -9 697 30 697 90 c 0
 697 100 699 109 701 118 c 1
 644 96 603 51 571 0 c 1
 473 0 l 1
 473 399 l 2
 473 494 409 540 315 540 c 0
 237 540 186 502 165 440 c 1
EndSplineSet
PickledDataWithLists: "(dp0
Vcom.fontlab.hintData
p1
(dp2
Vvhints
p3
(lp4
(dp5
Vwidth
p6
L10L
sVposition
p7
L84L
sa(dp8
g6
L10L
sg7
L104L
sa(dp9
g6
L10L
sg7
L166L
sa(dp10
g6
L10L
sg7
L186L
sa(dp11
g6
L10L
sg7
L311L
sa(dp12
g6
L10L
sg7
L454L
sa(dp13
g6
L10L
sg7
L469L
sa(dp14
g6
L10L
sg7
L540L
sa(dp15
g6
L10L
sg7
L551L
sa(dp16
g6
L10L
sg7
L709L
sa(dp17
g6
L10L
sg7
L780L
sa(dp18
g6
L10L
sg7
L816L
sa(dp19
g6
L10L
sg7
L865L
sa(dp20
g6
L10L
sg7
L935L
sasVhhints
p21
(lp22
(dp23
g6
L10L
sg7
L-17L
sa(dp24
g6
L10L
sg7
L29L
sa(dp25
g6
L10L
sg7
L41L
sa(dp26
g6
L10L
sg7
L54L
sa(dp27
g6
L10L
sg7
L241L
sa(dp28
g6
L10L
sg7
L289L
sa(dp29
g6
L10L
sg7
L546L
sa(dp30
g6
L10L
sg7
L594L
sa(dp31
g6
L10L
sg7
L604L
sass."
EndChar

StartChar: uni0E14
Encoding: 420 3604 148
GlifName: uni0E_14
Width: 665
VWidth: 0
GlyphClass: 2
Flags: MW
LayerCount: 2
Fore
SplineSet
483 0 m 1
 483 100 l 2
 483 153 487 271 487 399 c 0
 487 495 424 540 330 540 c 0
 236 540 169 495 169 399 c 0
 169 256 189 224 189 157 c 0
 189 134 187 108 185 92 c 1
 230 147 295 178 339 220 c 1
 336 220 333 220 330 220 c 0
 269 220 223 259 223 319 c 0
 223 379 269 418 330 418 c 0
 391 418 437 379 437 319 c 0
 437 162 240 121 206 0 c 1
 85 0 l 1
 85 0 95 71 95 118 c 0
 95 219 70 246 70 399 c 0
 70 526 172 619 330 619 c 0
 488 619 590 526 590 399 c 2
 590 0 l 1
 483 0 l 1
330 365 m 0
 303 365 285 346 285 319 c 0
 285 292 303 273 330 273 c 0
 357 273 375 292 375 319 c 0
 375 346 357 365 330 365 c 0
EndSplineSet
PickledDataWithLists: "(dp0
Vcom.fontlab.hintData
p1
(dp2
Vvhints
p3
(lp4
(dp5
Vwidth
p6
L10L
sVposition
p7
L60L
sa(dp8
g6
L10L
sg7
L149L
sa(dp9
g6
L10L
sg7
L306L
sa(dp10
g6
L10L
sg7
L394L
sa(dp11
g6
L10L
sg7
L495L
sa(dp12
g6
L10L
sg7
L501L
sa(dp13
g6
L10L
sg7
L584L
sa(dp14
g6
L10L
sg7
L589L
sasVhhints
p15
(lp16
(dp17
g6
L10L
sg7
L-23L
sa(dp18
g6
L10L
sg7
L-15L
sa(dp19
g6
L10L
sg7
L40L
sa(dp20
g6
L10L
sg7
L140L
sa(dp21
g6
L10L
sg7
L547L
sa(dp22
g6
L10L
sg7
L609L
sass."
EndChar

StartChar: uni0E15
Encoding: 421 3605 149
GlifName: uni0E_15
Width: 665
VWidth: 0
GlyphClass: 2
Flags: MW
LayerCount: 2
Fore
SplineSet
483 0 m 1
 483 100 l 2
 483 153 487 271 487 399 c 0
 487 488 466 531 427 537 c 1
 342 468 l 1
 330 468 l 1
 318 468 l 1
 233 537 l 1
 194 532 169 488 169 399 c 0
 169 256 189 224 189 157 c 0
 189 134 187 108 185 92 c 1
 230 147 295 178 339 220 c 1
 336 220 333 220 330 220 c 0
 269 220 223 259 223 319 c 0
 223 379 269 418 330 418 c 0
 391 418 437 379 437 319 c 0
 437 162 240 121 206 0 c 1
 85 0 l 1
 85 0 95 71 95 118 c 0
 95 219 70 246 70 399 c 0
 70 480 95 613 239 613 c 1
 330 533 l 1
 421 613 l 1
 565 613 590 480 590 399 c 2
 590 0 l 1
 483 0 l 1
330 365 m 0
 303 365 285 346 285 319 c 0
 285 292 303 273 330 273 c 0
 357 273 375 292 375 319 c 0
 375 346 357 365 330 365 c 0
EndSplineSet
PickledDataWithLists: "(dp0
Vcom.fontlab.hintData
p1
(dp2
Vvhints
p3
(lp4
(dp5
Vwidth
p6
L10L
sVposition
p7
L64L
sa(dp8
g6
L10L
sg7
L146L
sa(dp9
g6
L10L
sg7
L309L
sa(dp10
g6
L10L
sg7
L332L
sa(dp11
g6
L10L
sg7
L337L
sa(dp12
g6
L10L
sg7
L391L
sa(dp13
g6
L10L
sg7
L405L
sa(dp14
g6
L10L
sg7
L513L
sa(dp15
g6
L10L
sg7
L597L
sa(dp16
g6
L10L
sg7
L602L
sasVhhints
p17
(lp18
(dp19
g6
L10L
sg7
L-21L
sa(dp20
g6
L10L
sg7
L-13L
sa(dp21
g6
L10L
sg7
L36L
sa(dp22
g6
L10L
sg7
L133L
sa(dp23
g6
L10L
sg7
L412L
sa(dp24
g6
L10L
sg7
L546L
sa(dp25
g6
L10L
sg7
L590L
sa(dp26
g6
L10L
sg7
L603L
sass."
EndChar

StartChar: uni0E16
Encoding: 422 3606 150
GlifName: uni0E_16
Width: 655
VWidth: 0
GlyphClass: 2
Flags: MW
LayerCount: 2
Fore
SplineSet
315 619 m 0
 475 619 580 527 580 399 c 2
 580 0 l 1
 473 0 l 1
 473 399 l 2
 473 494 409 540 315 540 c 0
 237 540 186 502 165 440 c 1
 308 410 l 1
 297 366 l 2
 295 366 277 369 265 369 c 0
 225 369 208 344 208 304 c 2
 208 240 l 2
 208 220 204 203 197 189 c 1
 258 189 303 150 303 90 c 0
 303 30 257 -9 196 -9 c 0
 135 -9 89 30 89 90 c 0
 89 136 101 165 101 210 c 2
 101 294 l 2
 101 344 127 378 170 392 c 1
 50 416 l 1
 65 520 152 619 315 619 c 0
196 136 m 0
 169 136 151 117 151 90 c 0
 151 63 169 44 196 44 c 0
 223 44 241 63 241 90 c 0
 241 117 223 136 196 136 c 0
EndSplineSet
PickledDataWithLists: "(dp0
Vcom.fontlab.hintData
p1
(dp2
Vvhints
p3
(lp4
(dp5
Vwidth
p6
L10L
sVposition
p7
L81L
sa(dp8
g6
L10L
sg7
L86L
sa(dp9
g6
L10L
sg7
L111L
sa(dp10
g6
L10L
sg7
L169L
sa(dp11
g6
L10L
sg7
L199L
sa(dp12
g6
L10L
sg7
L315L
sa(dp13
g6
L10L
sg7
L465L
sa(dp14
g6
L10L
sg7
L476L
sa(dp15
g6
L10L
sg7
L556L
sa(dp16
g6
L10L
sg7
L564L
sasVhhints
p17
(lp18
(dp19
g6
L10L
sg7
L-19L
sa(dp20
g6
L10L
sg7
L43L
sa(dp21
g6
L10L
sg7
L56L
sa(dp22
g6
L10L
sg7
L544L
sa(dp23
g6
L10L
sg7
L606L
sass."
EndChar

StartChar: uni0E17
Encoding: 423 3607 151
GlifName: uni0E_17
Width: 660
VWidth: 0
GlyphClass: 2
Flags: MW
LayerCount: 2
Fore
SplineSet
138 464 m 0
 165 464 183 483 183 510 c 0
 183 537 165 556 138 556 c 0
 111 556 93 537 93 510 c 0
 93 483 111 464 138 464 c 0
227 282 m 1
 271 428 347 609 464 609 c 0
 555 609 580 532 580 485 c 2
 580 0 l 1
 474 0 l 1
 474 467 l 2
 474 492 465 516 444 519 c 1
 351 488 252 209 227 99 c 1
 227 0 l 1
 120 0 l 1
 120 360 l 2
 120 380 126 397 133 411 c 1
 75 413 31 452 31 510 c 0
 31 570 77 609 138 609 c 0
 199 609 245 570 245 510 c 0
 245 464 227 435 227 390 c 2
 227 282 l 1
EndSplineSet
PickledDataWithLists: "(dp0
Vcom.fontlab.hintData
p1
(dp2
Vvhints
p3
(lp4
(dp5
Vwidth
p6
L10L
sVposition
p7
L58L
sa(dp8
g6
L10L
sg7
L104L
sa(dp9
g6
L10L
sg7
L479L
sa(dp10
g6
L10L
sg7
L484L
sa(dp11
g6
L10L
sg7
L561L
sa(dp12
g6
L10L
sg7
L566L
sasVhhints
p13
(lp14
(dp15
g6
L10L
sg7
L-13L
sa(dp16
g6
L10L
sg7
L-8L
sa(dp17
g6
L10L
sg7
L546L
sa(dp18
g6
L10L
sg7
L604L
sass."
EndChar

StartChar: uni0E18
Encoding: 424 3608 152
GlifName: uni0E_18
Width: 585
VWidth: 0
GlyphClass: 2
Flags: MW
AnchorPoint: "ThaiTone.mark" 565 0 basechar 0
LayerCount: 2
Fore
SplineSet
75 177 m 2
 75 300 l 1
 182 300 l 1
 182 177 l 2
 182 94 232 61 295 61 c 0
 358 61 408 94 408 177 c 2
 408 284 l 2
 408 363 293 392 65 392 c 1
 65 424 l 2
 65 541 153 619 279 619 c 0
 356 619 406 589 436 560 c 1
 438 565 440 569 442 572 c 2
 466 613 l 1
 545 598 l 1
 545 593 l 1
 461 485 l 1
 428 485 l 1
 412 507 371 547 295 547 c 0
 233 547 175 519 166 446 c 1
 374 439 515 400 515 297 c 2
 515 177 l 2
 515 68 432 -19 295 -19 c 0
 158 -19 75 68 75 177 c 2
EndSplineSet
PickledDataWithLists: "(dp0
Vcom.fontlab.hintData
p1
(dp2
Vvhints
p3
(lp4
(dp5
Vwidth
p6
L10L
sVposition
p7
L64L
sa(dp8
g6
L10L
sg7
L109L
sa(dp9
g6
L10L
sg7
L146L
sa(dp10
g6
L10L
sg7
L195L
sa(dp11
g6
L10L
sg7
L430L
sa(dp12
g6
L10L
sg7
L513L
sasVhhints
p13
(lp14
(dp15
g6
L10L
sg7
L-14L
sa(dp16
g6
L10L
sg7
L44L
sa(dp17
g6
L10L
sg7
L294L
sa(dp18
g6
L10L
sg7
L496L
sa(dp19
g6
L10L
sg7
L555L
sa(dp20
g6
L10L
sg7
L612L
sass."
EndChar

StartChar: uni0E19
Encoding: 425 3609 153
GlifName: uni0E_19
Width: 650
VWidth: 0
GlyphClass: 2
Flags: MW
LayerCount: 2
Fore
SplineSet
120 0 m 1
 120 360 l 2
 120 381 125 398 133 411 c 1
 74 413 31 452 31 510 c 0
 31 570 77 609 138 609 c 0
 199 609 245 570 245 510 c 0
 245 458 227 436 227 385 c 2
 227 190 l 2
 227 159 226 125 224 94 c 1
 275 141 346 185 449 192 c 1
 452 199 454 206 454 215 c 2
 454 600 l 1
 560 600 l 1
 560 235 l 2
 560 213 548 196 532 183 c 1
 573 170 601 137 601 90 c 0
 601 30 555 -9 494 -9 c 0
 433 -9 387 30 387 90 c 0
 387 101 389 112 392 122 c 1
 314 101 258 51 218 0 c 1
 120 0 l 1
494 136 m 0
 467 136 449 117 449 90 c 0
 449 63 467 44 494 44 c 0
 521 44 539 63 539 90 c 0
 539 117 521 136 494 136 c 0
138 464 m 0
 165 464 183 483 183 510 c 0
 183 537 165 556 138 556 c 0
 111 556 93 537 93 510 c 0
 93 483 111 464 138 464 c 0
EndSplineSet
PickledDataWithLists: "(dp0
Vcom.fontlab.hintData
p1
(dp2
Vvhints
p3
(lp4
(dp5
Vwidth
p6
L10L
sVposition
p7
L64L
sa(dp8
g6
L10L
sg7
L84L
sa(dp9
g6
L10L
sg7
L168L
sa(dp10
g6
L10L
sg7
L387L
sa(dp11
g6
L10L
sg7
L457L
sa(dp12
g6
L10L
sg7
L491L
sa(dp13
g6
L10L
sg7
L550L
sa(dp14
g6
L10L
sg7
L625L
sasVhhints
p15
(lp16
(dp17
g6
L10L
sg7
L-27L
sa(dp18
g6
L10L
sg7
L-20L
sa(dp19
g6
L10L
sg7
L22L
sa(dp20
g6
L10L
sg7
L248L
sa(dp21
g6
L10L
sg7
L307L
sa(dp22
g6
L10L
sg7
L589L
sa(dp23
g6
L10L
sg7
L598L
sass."
EndChar

StartChar: uni0E1A
Encoding: 426 3610 154
GlifName: uni0E_1A_
Width: 700
VWidth: 0
GlyphClass: 2
Flags: MW
LayerCount: 2
Fore
SplineSet
133 464 m 0
 160 464 178 483 178 510 c 0
 178 537 160 556 133 556 c 0
 106 556 88 537 88 510 c 0
 88 483 106 464 133 464 c 0
240 510 m 0
 240 464 222 435 222 390 c 2
 222 188 l 2
 222 101 280 60 365 60 c 0
 450 60 508 101 508 188 c 2
 508 600 l 1
 615 600 l 1
 615 188 l 2
 615 68 516 -19 365 -19 c 0
 214 -19 115 68 115 188 c 2
 115 360 l 2
 115 380 121 397 128 411 c 1
 70 413 26 452 26 510 c 0
 26 570 72 609 133 609 c 0
 194 609 240 570 240 510 c 0
EndSplineSet
PickledDataWithLists: "(dp0
Vcom.fontlab.hintData
p1
(dp2
Vvhints
p3
(lp4
(dp5
Vwidth
p6
L10L
sVposition
p7
L81L
sa(dp8
g6
L10L
sg7
L106L
sa(dp9
g6
L10L
sg7
L194L
sa(dp10
g6
L10L
sg7
L511L
sa(dp11
g6
L10L
sg7
L516L
sa(dp12
g6
L10L
sg7
L599L
sa(dp13
g6
L10L
sg7
L604L
sasVhhints
p14
(lp15
(dp16
g6
L10L
sg7
L-26L
sa(dp17
g6
L10L
sg7
L36L
sa(dp18
g6
L10L
sg7
L596L
sass."
EndChar

StartChar: uni0E1B
Encoding: 427 3611 155
GlifName: uni0E_1B_
Width: 700
VWidth: 0
GlyphClass: 2
Flags: MW
LayerCount: 2
Fore
SplineSet
133 464 m 0
 160 464 178 483 178 510 c 0
 178 537 160 556 133 556 c 0
 106 556 88 537 88 510 c 0
 88 483 106 464 133 464 c 0
240 510 m 0
 240 464 222 435 222 390 c 2
 222 188 l 2
 222 101 280 60 365 60 c 0
 450 60 508 101 508 188 c 2
 508 810 l 1
 615 810 l 1
 615 188 l 2
 615 68 516 -19 365 -19 c 0
 214 -19 115 68 115 188 c 2
 115 360 l 2
 115 380 121 397 128 411 c 1
 70 413 26 452 26 510 c 0
 26 570 72 609 133 609 c 0
 194 609 240 570 240 510 c 0
EndSplineSet
PickledDataWithLists: "(dp0
Vcom.fontlab.hintData
p1
(dp2
Vvhints
p3
(lp4
(dp5
Vwidth
p6
L10L
sVposition
p7
L81L
sa(dp8
g6
L10L
sg7
L106L
sa(dp9
g6
L10L
sg7
L194L
sa(dp10
g6
L10L
sg7
L521L
sa(dp11
g6
L10L
sg7
L526L
sa(dp12
g6
L10L
sg7
L609L
sa(dp13
g6
L10L
sg7
L614L
sasVhhints
p14
(lp15
(dp16
g6
L10L
sg7
L-26L
sa(dp17
g6
L10L
sg7
L36L
sa(dp18
g6
L10L
sg7
L600L
sa(dp19
g6
L10L
sg7
L836L
sass."
EndChar

StartChar: uni0E1C
Encoding: 428 3612 156
GlifName: uni0E_1C_
Width: 715
VWidth: 0
GlyphClass: 2
Flags: MW
LayerCount: 2
Fore
SplineSet
527 187 m 2
 527 600 l 1
 630 600 l 1
 630 0 l 1
 530 0 l 1
 358 283 l 1
 186 0 l 1
 86 0 l 1
 86 290 l 2
 86 363 70 409 70 465 c 0
 70 552 124 609 220 609 c 0
 281 609 327 570 327 510 c 0
 327 450 281 411 220 411 c 0
 199 411 179 416 163 425 c 1
 171 384 189 361 189 300 c 2
 189 187 l 2
 189 165 186 142 183 123 c 1
 326 360 l 1
 358 360 l 1
 390 360 l 1
 533 123 l 1
 530 142 527 165 527 187 c 2
220 464 m 0
 247 464 265 483 265 510 c 0
 265 537 247 556 220 556 c 0
 193 556 175 537 175 510 c 0
 175 483 193 464 220 464 c 0
EndSplineSet
PickledDataWithLists: "(dp0
Vcom.fontlab.hintData
p1
(dp2
Vvhints
p3
(lp4
(dp5
Vwidth
p6
L10L
sVposition
p7
L64L
sa(dp8
g6
L10L
sg7
L148L
sa(dp9
g6
L10L
sg7
L372L
sa(dp10
g6
L10L
sg7
L559L
sa(dp11
g6
L10L
sg7
L643L
sa(dp12
g6
L10L
sg7
L653L
sasVhhints
p13
(lp14
(dp15
g6
L10L
sg7
L-14L
sa(dp16
g6
L10L
sg7
L-8L
sa(dp17
g6
L10L
sg7
L318L
sa(dp18
g6
L10L
sg7
L514L
sa(dp19
g6
L10L
sg7
L544L
sa(dp20
g6
L10L
sg7
L599L
sa(dp21
g6
L10L
sg7
L604L
sass."
EndChar

StartChar: uni0E1D
Encoding: 429 3613 157
GlifName: uni0E_1D_
Width: 715
VWidth: 0
GlyphClass: 2
Flags: MW
LayerCount: 2
Fore
SplineSet
527 187 m 2
 527 810 l 1
 630 810 l 1
 630 0 l 1
 530 0 l 1
 358 283 l 1
 186 0 l 1
 86 0 l 1
 86 290 l 2
 86 363 70 409 70 465 c 0
 70 552 124 609 220 609 c 0
 281 609 327 570 327 510 c 0
 327 450 281 411 220 411 c 0
 199 411 179 416 163 425 c 1
 171 384 189 361 189 300 c 2
 189 187 l 2
 189 165 186 142 183 123 c 1
 326 360 l 1
 358 360 l 1
 390 360 l 1
 533 123 l 1
 530 142 527 165 527 187 c 2
220 464 m 0
 247 464 265 483 265 510 c 0
 265 537 247 556 220 556 c 0
 193 556 175 537 175 510 c 0
 175 483 193 464 220 464 c 0
EndSplineSet
PickledDataWithLists: "(dp0
Vcom.fontlab.hintData
p1
(dp2
Vvhints
p3
(lp4
(dp5
Vwidth
p6
L10L
sVposition
p7
L64L
sa(dp8
g6
L10L
sg7
L148L
sa(dp9
g6
L10L
sg7
L372L
sa(dp10
g6
L10L
sg7
L559L
sa(dp11
g6
L10L
sg7
L643L
sa(dp12
g6
L10L
sg7
L653L
sasVhhints
p13
(lp14
(dp15
g6
L10L
sg7
L-14L
sa(dp16
g6
L10L
sg7
L-8L
sa(dp17
g6
L10L
sg7
L318L
sa(dp18
g6
L10L
sg7
L514L
sa(dp19
g6
L10L
sg7
L544L
sa(dp20
g6
L10L
sg7
L604L
sa(dp21
g6
L10L
sg7
L834L
sass."
EndChar

StartChar: uni0E1E
Encoding: 430 3614 158
GlifName: uni0E_1E_
Width: 735
VWidth: 0
GlyphClass: 2
Flags: MW
LayerCount: 2
Fore
SplineSet
650 600 m 1
 650 0 l 1
 558 0 l 1
 385 388 l 1
 212 0 l 1
 120 0 l 1
 120 360 l 2
 120 381 125 398 133 411 c 1
 74 413 30 451 30 510 c 0
 30 570 76 609 137 609 c 0
 198 609 244 570 244 510 c 0
 244 461 223 435 223 387 c 2
 223 230 l 2
 223 213 221 193 219 175 c 1
 359 495 l 1
 385 495 l 1
 411 495 l 1
 551 173 l 1
 549 191 547 213 547 230 c 2
 547 600 l 1
 650 600 l 1
137 464 m 0
 164 464 182 483 182 510 c 0
 182 537 164 556 137 556 c 0
 110 556 92 537 92 510 c 0
 92 483 110 464 137 464 c 0
EndSplineSet
PickledDataWithLists: "(dp0
Vcom.fontlab.hintData
p1
(dp2
Vvhints
p3
(lp4
(dp5
Vwidth
p6
L10L
sVposition
p7
L58L
sa(dp8
g6
L10L
sg7
L104L
sa(dp9
g6
L10L
sg7
L182L
sa(dp10
g6
L10L
sg7
L556L
sa(dp11
g6
L10L
sg7
L656L
sasVhhints
p12
(lp13
(dp14
g6
L10L
sg7
L-12L
sa(dp15
g6
L10L
sg7
L540L
sa(dp16
g6
L10L
sg7
L604L
sass."
EndChar

StartChar: uni0E1F
Encoding: 431 3615 159
GlifName: uni0E_1F_
Width: 735
VWidth: 0
GlyphClass: 2
Flags: MW
LayerCount: 2
Fore
SplineSet
650 810 m 1
 650 0 l 1
 558 0 l 1
 385 388 l 1
 212 0 l 1
 120 0 l 1
 120 360 l 2
 120 381 125 398 133 411 c 1
 74 413 30 451 30 510 c 0
 30 570 76 609 137 609 c 0
 198 609 244 570 244 510 c 0
 244 461 223 435 223 387 c 2
 223 230 l 2
 223 213 221 193 219 175 c 1
 359 495 l 1
 385 495 l 1
 411 495 l 1
 551 173 l 1
 549 191 547 213 547 230 c 2
 547 810 l 1
 650 810 l 1
137 464 m 0
 164 464 182 483 182 510 c 0
 182 537 164 556 137 556 c 0
 110 556 92 537 92 510 c 0
 92 483 110 464 137 464 c 0
EndSplineSet
PickledDataWithLists: "(dp0
Vcom.fontlab.hintData
p1
(dp2
Vvhints
p3
(lp4
(dp5
Vwidth
p6
L10L
sVposition
p7
L58L
sa(dp8
g6
L10L
sg7
L104L
sa(dp9
g6
L10L
sg7
L182L
sa(dp10
g6
L10L
sg7
L565L
sa(dp11
g6
L9L
sg7
L641L
sa(dp12
g6
L11L
sg7
L686L
sasVhhints
p13
(lp14
(dp15
g6
L10L
sg7
L-12L
sa(dp16
g6
L10L
sg7
L540L
sa(dp17
g6
L10L
sg7
L604L
sa(dp18
g6
L10L
sg7
L834L
sass."
EndChar

StartChar: uni0E20
Encoding: 432 3616 160
GlifName: uni0E_20
Width: 665
VWidth: 0
GlyphClass: 2
Flags: MW
LayerCount: 2
Fore
SplineSet
147 136 m 0
 120 136 102 117 102 90 c 0
 102 63 120 44 147 44 c 0
 174 44 192 63 192 90 c 0
 192 117 174 136 147 136 c 0
325 619 m 0
 485 619 590 527 590 399 c 2
 590 0 l 1
 483 0 l 1
 483 399 l 2
 483 494 419 540 325 540 c 0
 248 540 196 503 175 441 c 1
 338 410 l 1
 327 366 l 2
 325 366 307 369 295 369 c 0
 255 369 238 344 238 304 c 2
 238 210 l 2
 238 165 254 136 254 90 c 0
 254 30 208 -9 147 -9 c 0
 86 -9 40 30 40 90 c 0
 40 149 84 187 143 189 c 1
 136 203 131 220 131 240 c 2
 131 294 l 2
 131 344 156 377 199 392 c 1
 60 416 l 1
 75 520 162 619 325 619 c 0
EndSplineSet
PickledDataWithLists: "(dp0
Vcom.fontlab.hintData
p1
(dp2
Vvhints
p3
(lp4
(dp5
Vwidth
p6
L10L
sVposition
p7
L26L
sa(dp8
g6
L10L
sg7
L81L
sa(dp9
g6
L10L
sg7
L131L
sa(dp10
g6
L10L
sg7
L219L
sa(dp11
g6
L10L
sg7
L465L
sa(dp12
g6
L10L
sg7
L476L
sa(dp13
g6
L10L
sg7
L556L
sa(dp14
g6
L10L
sg7
L564L
sasVhhints
p15
(lp16
(dp17
g6
L10L
sg7
L-16L
sa(dp18
g6
L10L
sg7
L66L
sa(dp19
g6
L10L
sg7
L544L
sa(dp20
g6
L10L
sg7
L606L
sass."
EndChar

StartChar: uni0E21
Encoding: 433 3617 161
GlifName: uni0E_21
Width: 645
VWidth: 0
GlyphClass: 2
Flags: MW
LayerCount: 2
Fore
SplineSet
158 136 m 0
 131 136 113 117 113 90 c 0
 113 63 131 44 158 44 c 0
 185 44 203 63 203 90 c 0
 203 117 185 136 158 136 c 0
148 464 m 0
 175 464 193 483 193 510 c 0
 193 537 175 556 148 556 c 0
 121 556 103 537 103 510 c 0
 103 483 121 464 148 464 c 0
146 188 m 1
 137 201 130 219 130 240 c 2
 130 360 l 2
 130 381 135 398 143 411 c 1
 84 413 41 452 41 510 c 0
 41 570 87 609 148 609 c 0
 209 609 255 570 255 510 c 0
 255 458 237 436 237 385 c 2
 237 215 l 2
 237 205 238 196 240 188 c 1
 337 177 407 136 456 93 c 1
 454 124 453 159 453 190 c 2
 453 600 l 1
 560 600 l 1
 560 0 l 1
 462 0 l 1
 420 53 354 106 261 123 c 1
 263 113 265 102 265 90 c 0
 265 30 219 -9 158 -9 c 0
 97 -9 51 30 51 90 c 0
 51 146 91 183 146 188 c 1
EndSplineSet
PickledDataWithLists: "(dp0
Vcom.fontlab.hintData
p1
(dp2
Vvhints
p3
(lp4
(dp5
Vwidth
p6
L10L
sVposition
p7
L25L
sa(dp8
g6
L10L
sg7
L56L
sa(dp9
g6
L10L
sg7
L100L
sa(dp10
g6
L10L
sg7
L200L
sa(dp11
g6
L10L
sg7
L280L
sa(dp12
g6
L10L
sg7
L476L
sa(dp13
g6
L10L
sg7
L484L
sa(dp14
g6
L10L
sg7
L556L
sa(dp15
g6
L10L
sg7
L566L
sasVhhints
p16
(lp17
(dp18
g6
L10L
sg7
L-27L
sa(dp19
g6
L10L
sg7
L243L
sa(dp20
g6
L10L
sg7
L297L
sa(dp21
g6
L10L
sg7
L528L
sa(dp22
g6
L10L
sg7
L548L
sa(dp23
g6
L10L
sg7
L588L
sa(dp24
g6
L10L
sg7
L602L
sass."
EndChar

StartChar: uni0E22
Encoding: 434 3618 162
GlifName: uni0E_22
Width: 645
VWidth: 0
GlyphClass: 2
Flags: MW
LayerCount: 2
Fore
SplineSet
225 464 m 0
 252 464 270 483 270 510 c 0
 270 537 252 556 225 556 c 0
 198 556 180 537 180 510 c 0
 180 483 198 464 225 464 c 0
458 600 m 1
 565 600 l 1
 565 188 l 2
 565 68 466 -19 315 -19 c 0
 164 -19 65 63 65 178 c 0
 65 253 110 293 168 312 c 1
 110 338 65 391 65 465 c 0
 65 551 125 609 225 609 c 0
 286 609 332 570 332 510 c 0
 332 450 286 411 225 411 c 0
 189 411 158 425 139 448 c 1
 150 373 221 346 328 346 c 1
 328 284 l 1
 234 284 172 254 172 182 c 0
 172 100 230 60 315 60 c 0
 400 60 458 101 458 188 c 2
 458 600 l 1
EndSplineSet
PickledDataWithLists: "(dp0
Vcom.fontlab.hintData
p1
(dp2
Vvhints
p3
(lp4
(dp5
Vwidth
p6
L10L
sVposition
p7
L44L
sa(dp8
g6
L10L
sg7
L114L
sa(dp9
g6
L10L
sg7
L126L
sa(dp10
g6
L10L
sg7
L196L
sa(dp11
g6
L10L
sg7
L335L
sa(dp12
g6
L10L
sg7
L352L
sa(dp13
g6
L10L
sg7
L474L
sa(dp14
g6
L10L
sg7
L562L
sasVhhints
p15
(lp16
(dp17
g6
L10L
sg7
L-26L
sa(dp18
g6
L10L
sg7
L36L
sa(dp19
g6
L10L
sg7
L517L
sa(dp20
g6
L10L
sg7
L546L
sa(dp21
g6
L10L
sg7
L596L
sa(dp22
g6
L10L
sg7
L604L
sass."
EndChar

StartChar: uni0E23
Encoding: 435 3619 163
GlifName: uni0E_23
Width: 530
VWidth: 0
GlyphClass: 2
Flags: MW
AnchorPoint: "ThaiBelow.mark" 500 0 basechar 0
AnchorPoint: "ThaiTone.mark" 510 0 basechar 0
AnchorPoint: "ThaiAbove.mark" 560 0 basechar 0
LayerCount: 2
Fore
SplineSet
386 560 m 1
 388 565 390 570 392 573 c 2
 415 613 l 1
 495 598 l 1
 495 593 l 1
 410 485 l 1
 377 485 l 1
 361 507 325 547 250 547 c 0
 189 547 135 518 126 446 c 1
 296 439 415 406 415 306 c 2
 415 185 l 1
 415 114 l 2
 415 41 366 -9 285 -9 c 0
 224 -9 178 30 178 90 c 0
 178 150 224 189 285 189 c 0
 294 189 303 188 312 186 c 1
 310 196 308 207 308 217 c 2
 308 293 l 2
 308 370 213 393 25 393 c 1
 25 424 l 2
 25 541 109 619 233 619 c 0
 309 619 357 589 386 560 c 1
285 136 m 0
 258 136 240 117 240 90 c 0
 240 63 258 44 285 44 c 0
 312 44 330 63 330 90 c 0
 330 117 312 136 285 136 c 0
EndSplineSet
PickledDataWithLists: "(dp0
Vcom.fontlab.hintData
p1
(dp2
Vvhints
p3
(lp4
(dp5
Vwidth
p6
L10L
sVposition
p7
L31L
sa(dp8
g6
L10L
sg7
L111L
sa(dp9
g6
L10L
sg7
L116L
sa(dp10
g6
L10L
sg7
L362L
sa(dp11
g6
L10L
sg7
L446L
sa(dp12
g6
L10L
sg7
L479L
sasVhhints
p13
(lp14
(dp15
g6
L10L
sg7
L-16L
sa(dp16
g6
L10L
sg7
L46L
sa(dp17
g6
L10L
sg7
L91L
sa(dp18
g6
L10L
sg7
L494L
sa(dp19
g6
L10L
sg7
L548L
sa(dp20
g6
L10L
sg7
L610L
sass."
EndChar

StartChar: uni0E24
Encoding: 436 3620 164
GlifName: uni0E_24
Width: 655
VWidth: 0
GlyphClass: 2
Flags: MW
LayerCount: 2
Fore
SplineSet
315 619 m 0
 475 619 580 527 580 399 c 2
 580 -210 l 1
 473 -210 l 1
 473 399 l 2
 473 494 409 540 315 540 c 0
 237 540 186 502 165 440 c 1
 308 410 l 1
 297 366 l 2
 295 366 277 369 265 369 c 0
 225 369 208 344 208 304 c 2
 208 240 l 2
 208 220 204 203 197 189 c 1
 258 189 303 150 303 90 c 0
 303 30 257 -9 196 -9 c 0
 135 -9 89 30 89 90 c 0
 89 136 101 165 101 210 c 2
 101 294 l 2
 101 344 127 378 170 392 c 1
 50 416 l 1
 65 520 152 619 315 619 c 0
196 136 m 0
 169 136 151 117 151 90 c 0
 151 63 169 44 196 44 c 0
 223 44 241 63 241 90 c 0
 241 117 223 136 196 136 c 0
EndSplineSet
PickledDataWithLists: "(dp0
Vcom.fontlab.hintData
p1
(dp2
Vvhints
p3
(lp4
(dp5
Vwidth
p6
L10L
sVposition
p7
L81L
sa(dp8
g6
L10L
sg7
L86L
sa(dp9
g6
L10L
sg7
L111L
sa(dp10
g6
L10L
sg7
L169L
sa(dp11
g6
L10L
sg7
L199L
sa(dp12
g6
L10L
sg7
L315L
sa(dp13
g6
L10L
sg7
L465L
sa(dp14
g6
L10L
sg7
L476L
sa(dp15
g6
L10L
sg7
L556L
sa(dp16
g6
L10L
sg7
L564L
sasVhhints
p17
(lp18
(dp19
g6
L10L
sg7
L-246L
sa(dp20
g6
L10L
sg7
L-19L
sa(dp21
g6
L10L
sg7
L43L
sa(dp22
g6
L10L
sg7
L56L
sa(dp23
g6
L10L
sg7
L544L
sa(dp24
g6
L10L
sg7
L606L
sass."
EndChar

StartChar: uni0E240E45.liga
Encoding: 808 63617 165
GlifName: uni0E_240E_45.liga
Width: 950
VWidth: 0
GlyphClass: 3
Flags: MW
LayerCount: 2
Fore
SplineSet
196 136 m 0
 169 136 151 117 151 90 c 0
 151 63 169 44 196 44 c 0
 223 44 241 63 241 90 c 0
 241 117 223 136 196 136 c 0
528 537 m 1
 557 579 606 613 680 613 c 0
 802 613 870 533 870 437 c 2
 870 -210 l 1
 764 -210 l 1
 764 437 l 2
 764 509 723 534 677 534 c 0
 618 534 589 487 577 436 c 1
 579 424 580 412 580 399 c 2
 580 -210 l 1
 473 -210 l 1
 473 399 l 2
 473 494 409 540 315 540 c 0
 237 540 186 502 165 440 c 1
 308 410 l 1
 297 366 l 2
 295 366 277 369 265 369 c 0
 225 369 208 344 208 304 c 2
 208 240 l 2
 208 220 204 203 197 189 c 1
 258 189 303 150 303 90 c 0
 303 30 257 -9 196 -9 c 0
 135 -9 89 30 89 90 c 0
 89 136 101 165 101 210 c 2
 101 294 l 2
 101 344 127 378 170 392 c 1
 50 416 l 1
 65 520 152 619 315 619 c 0
 408 619 482 588 528 537 c 1
EndSplineSet
PickledDataWithLists: "(dp0
Vcom.fontlab.hintData
p1
(dp2
Vvhints
p3
(lp4
(dp5
Vwidth
p6
L10L
sVposition
p7
L81L
sa(dp8
g6
L10L
sg7
L86L
sa(dp9
g6
L10L
sg7
L111L
sa(dp10
g6
L10L
sg7
L169L
sa(dp11
g6
L10L
sg7
L199L
sa(dp12
g6
L10L
sg7
L315L
sa(dp13
g6
L10L
sg7
L465L
sa(dp14
g6
L10L
sg7
L476L
sa(dp15
g6
L10L
sg7
L556L
sa(dp16
g6
L10L
sg7
L563L
sa(dp17
g6
L10L
sg7
L756L
sa(dp18
g6
L10L
sg7
L782L
sa(dp19
g6
L10L
sg7
L844L
sa(dp20
g6
L10L
sg7
L870L
sasVhhints
p21
(lp22
(dp23
g6
L10L
sg7
L-245L
sa(dp24
g6
L10L
sg7
L-19L
sa(dp25
g6
L10L
sg7
L43L
sa(dp26
g6
L10L
sg7
L56L
sa(dp27
g6
L10L
sg7
L544L
sa(dp28
g6
L10L
sg7
L606L
sass."
Ligature2: "Thai.liga subtable" uni0E24 uni200D uni0E45
Ligature2: "Thai.liga subtable" uni0E24 uni0E45
Colour: ff00ff
EndChar

StartChar: uni0E25
Encoding: 437 3621 166
GlifName: uni0E_25
Width: 635
VWidth: 0
GlyphClass: 2
Flags: MW
LayerCount: 2
Fore
SplineSet
70 107 m 2
 70 202 l 2
 70 273 102 356 227 356 c 0
 330 356 405 293 453 226 c 1
 453 409 l 2
 453 499 394 540 305 540 c 0
 220 540 168 493 157 415 c 1
 50 423 l 1
 64 523 148 619 305 619 c 0
 459 619 560 532 560 409 c 2
 560 0 l 1
 453 0 l 1
 453 105 l 1
 431 172 346 284 234 284 c 0
 191 284 170 257 170 219 c 0
 170 207 167 195 164 186 c 1
 173 188 183 189 193 189 c 0
 254 189 300 150 300 90 c 0
 300 30 254 -9 193 -9 c 0
 120 -9 70 41 70 107 c 2
193 136 m 0
 166 136 148 117 148 90 c 0
 148 63 166 44 193 44 c 0
 220 44 238 63 238 90 c 0
 238 117 220 136 193 136 c 0
EndSplineSet
PickledDataWithLists: "(dp0
Vcom.fontlab.hintData
p1
(dp2
Vvhints
p3
(lp4
(dp5
Vwidth
p6
L10L
sVposition
p7
L41L
sa(dp8
g6
L10L
sg7
L91L
sa(dp9
g6
L10L
sg7
L179L
sa(dp10
g6
L10L
sg7
L504L
sa(dp11
g6
L10L
sg7
L589L
sasVhhints
p12
(lp13
(dp14
g6
L10L
sg7
L-16L
sa(dp15
g6
L10L
sg7
L-6L
sa(dp16
g6
L10L
sg7
L296L
sa(dp17
g6
L10L
sg7
L414L
sa(dp18
g6
L10L
sg7
L549L
sa(dp19
g6
L10L
sg7
L610L
sass."
EndChar

StartChar: uni0E26
Encoding: 438 3622 167
GlifName: uni0E_26
Width: 670
VWidth: 0
GlyphClass: 2
Flags: MW
LayerCount: 2
Fore
SplineSet
147 136 m 0
 120 136 102 117 102 90 c 0
 102 63 120 44 147 44 c 0
 174 44 192 63 192 90 c 0
 192 117 174 136 147 136 c 0
325 619 m 0
 485 619 590 527 590 399 c 2
 590 -210 l 1
 483 -210 l 1
 483 399 l 2
 483 494 419 540 325 540 c 0
 248 540 196 503 175 441 c 1
 338 410 l 1
 327 366 l 2
 325 366 307 369 295 369 c 0
 255 369 238 344 238 304 c 2
 238 210 l 2
 238 165 254 136 254 90 c 0
 254 30 208 -9 147 -9 c 0
 86 -9 40 30 40 90 c 0
 40 149 84 187 143 189 c 1
 136 203 131 220 131 240 c 2
 131 294 l 2
 131 344 156 377 199 392 c 1
 60 416 l 1
 75 520 162 619 325 619 c 0
EndSplineSet
PickledDataWithLists: "(dp0
Vcom.fontlab.hintData
p1
(dp2
Vvhints
p3
(lp4
(dp5
Vwidth
p6
L10L
sVposition
p7
L26L
sa(dp8
g6
L10L
sg7
L81L
sa(dp9
g6
L10L
sg7
L131L
sa(dp10
g6
L10L
sg7
L219L
sa(dp11
g6
L10L
sg7
L465L
sa(dp12
g6
L10L
sg7
L476L
sa(dp13
g6
L10L
sg7
L556L
sa(dp14
g6
L10L
sg7
L564L
sasVhhints
p15
(lp16
(dp17
g6
L10L
sg7
L-246L
sa(dp18
g6
L10L
sg7
L-16L
sa(dp19
g6
L10L
sg7
L66L
sa(dp20
g6
L10L
sg7
L544L
sa(dp21
g6
L10L
sg7
L606L
sass."
EndChar

StartChar: uni0E260E45.liga
Encoding: 809 63618 168
GlifName: uni0E_260E_45.liga
Width: 960
VWidth: 0
GlyphClass: 3
Flags: MW
LayerCount: 2
Fore
SplineSet
147 136 m 0
 120 136 102 117 102 90 c 0
 102 63 120 44 147 44 c 0
 174 44 192 63 192 90 c 0
 192 117 174 136 147 136 c 0
538 537 m 1
 567 579 616 613 690 613 c 0
 812 613 880 533 880 437 c 2
 880 -210 l 1
 774 -210 l 1
 774 437 l 2
 774 509 733 534 687 534 c 0
 628 534 599 487 587 436 c 1
 589 424 590 412 590 399 c 2
 590 -210 l 1
 483 -210 l 1
 483 399 l 2
 483 494 419 540 325 540 c 0
 248 540 196 503 175 441 c 1
 338 410 l 1
 327 366 l 2
 325 366 307 369 295 369 c 0
 255 369 238 344 238 304 c 2
 238 210 l 2
 238 165 254 136 254 90 c 0
 254 30 208 -9 147 -9 c 0
 86 -9 40 30 40 90 c 0
 40 149 84 187 143 189 c 1
 136 203 131 220 131 240 c 2
 131 294 l 2
 131 344 156 377 199 392 c 1
 60 416 l 1
 75 520 162 619 325 619 c 0
 418 619 492 588 538 537 c 1
EndSplineSet
PickledDataWithLists: "(dp0
Vcom.fontlab.hintData
p1
(dp2
Vvhints
p3
(lp4
(dp5
Vwidth
p6
L10L
sVposition
p7
L26L
sa(dp8
g6
L10L
sg7
L81L
sa(dp9
g6
L10L
sg7
L131L
sa(dp10
g6
L10L
sg7
L219L
sa(dp11
g6
L10L
sg7
L465L
sa(dp12
g6
L10L
sg7
L476L
sa(dp13
g6
L10L
sg7
L556L
sa(dp14
g6
L10L
sg7
L563L
sa(dp15
g6
L10L
sg7
L756L
sa(dp16
g6
L10L
sg7
L782L
sa(dp17
g6
L10L
sg7
L844L
sa(dp18
g6
L10L
sg7
L870L
sasVhhints
p19
(lp20
(dp21
g6
L10L
sg7
L-245L
sa(dp22
g6
L10L
sg7
L-16L
sa(dp23
g6
L10L
sg7
L66L
sa(dp24
g6
L10L
sg7
L544L
sa(dp25
g6
L10L
sg7
L606L
sass."
Ligature2: "Thai.liga subtable" uni0E26 uni200D uni0E45
Ligature2: "Thai.liga subtable" uni0E26 uni0E45
Colour: ff00ff
EndChar

StartChar: uni0E27
Encoding: 439 3623 169
GlifName: uni0E_27
Width: 535
VWidth: 0
GlyphClass: 2
Flags: MW
AnchorPoint: "ThaiAbove.mark" 545 0 basechar 0
LayerCount: 2
Fore
SplineSet
15 451 m 1
 28 533 98 619 235 619 c 0
 372 619 455 532 455 423 c 2
 455 185 l 1
 455 114 l 2
 455 41 406 -9 325 -9 c 0
 264 -9 218 30 218 90 c 0
 218 150 264 189 325 189 c 0
 334 189 343 188 352 186 c 1
 350 196 348 207 348 217 c 2
 348 423 l 2
 348 506 298 540 235 540 c 0
 172 540 131 505 121 443 c 1
 15 451 l 1
325 136 m 0
 298 136 280 117 280 90 c 0
 280 63 298 44 325 44 c 0
 352 44 370 63 370 90 c 0
 370 117 352 136 325 136 c 0
EndSplineSet
PickledDataWithLists: "(dp0
Vcom.fontlab.hintData
p1
(dp2
Vvhints
p3
(lp4
(dp5
Vwidth
p6
L10L
sVposition
p7
L21L
sa(dp8
g6
L10L
sg7
L168L
sa(dp9
g6
L10L
sg7
L255L
sa(dp10
g6
L10L
sg7
L411L
sa(dp11
g6
L10L
sg7
L499L
sasVhhints
p12
(lp13
(dp14
g6
L10L
sg7
L-15L
sa(dp15
g6
L10L
sg7
L46L
sa(dp16
g6
L10L
sg7
L136L
sa(dp17
g6
L10L
sg7
L394L
sa(dp18
g6
L9L
sg7
L552L
sa(dp19
g6
L10L
sg7
L614L
sass."
EndChar

StartChar: uni0E28
Encoding: 440 3624 170
GlifName: uni0E_28
Width: 680
VWidth: 0
GlyphClass: 2
Flags: MW
LayerCount: 2
Fore
SplineSet
330 365 m 0
 303 365 285 346 285 319 c 0
 285 292 303 273 330 273 c 0
 357 273 375 292 375 319 c 0
 375 346 357 365 330 365 c 0
483 0 m 1
 483 100 l 2
 483 153 487 271 487 399 c 0
 487 430 480 455 468 476 c 1
 438 454 408 431 380 408 c 1
 415 393 437 361 437 319 c 0
 437 259 391 220 330 220 c 0
 292 220 260 235 241 261 c 1
 222 224 207 172 203 100 c 2
 200 0 l 1
 85 0 l 1
 85 0 95 71 95 118 c 0
 95 219 70 246 70 399 c 0
 70 526 172 619 330 619 c 0
 395 619 450 603 493 576 c 1
 524 607 565 638 622 643 c 1
 640 550 l 1
 604 549 575 541 548 526 c 1
 575 491 590 447 590 399 c 2
 590 0 l 1
 483 0 l 1
431 515 m 1
 405 532 370 540 330 540 c 0
 236 540 173 495 173 399 c 0
 173 326 176 277 179 241 c 1
 193 301 217 357 255 390 c 0
 270 404 291 414 314 417 c 1
 350 449 391 484 431 515 c 1
EndSplineSet
PickledDataWithLists: "(dp0
Vcom.fontlab.hintData
p1
(dp2
Vvhints
p3
(lp4
(dp5
Vwidth
p6
L10L
sVposition
p7
L59L
sa(dp8
g6
L10L
sg7
L142L
sa(dp9
g6
L10L
sg7
L439L
sa(dp10
g6
L10L
sg7
L508L
sa(dp11
g6
L10L
sg7
L590L
sa(dp12
g6
L10L
sg7
L637L
sasVhhints
p13
(lp14
(dp15
g6
L10L
sg7
L-18L
sa(dp16
g6
L10L
sg7
L-4L
sa(dp17
g6
L10L
sg7
L551L
sa(dp18
g6
L10L
sg7
L608L
sa(dp19
g6
L10L
sg7
L654L
sass."
EndChar

StartChar: uni0E29
Encoding: 441 3625 171
GlifName: uni0E_29
Width: 710
VWidth: 0
GlyphClass: 2
Flags: MW
LayerCount: 2
Fore
SplineSet
133 464 m 0
 160 464 178 483 178 510 c 0
 178 537 160 556 133 556 c 0
 106 556 88 537 88 510 c 0
 88 483 106 464 133 464 c 0
375 380 m 0
 354 380 340 365 340 345 c 0
 340 325 354 310 375 310 c 0
 396 310 410 325 410 345 c 0
 410 365 396 380 375 380 c 0
375 422 m 0
 423 422 459 392 459 345 c 0
 459 325 452 308 441 295 c 1
 447 296 452 296 456 296 c 0
 473 296 491 297 508 300 c 1
 508 600 l 1
 615 600 l 1
 615 329 l 1
 641 339 665 350 684 360 c 1
 703 304 l 1
 678 292 649 281 615 272 c 1
 615 188 l 2
 615 68 516 -19 365 -19 c 0
 214 -19 115 68 115 188 c 2
 115 360 l 2
 115 380 121 397 128 411 c 1
 70 413 26 452 26 510 c 0
 26 570 72 609 133 609 c 0
 194 609 240 570 240 510 c 0
 240 464 222 435 222 390 c 2
 222 188 l 2
 222 101 280 60 365 60 c 0
 450 60 508 101 508 188 c 2
 508 252 l 1
 482 249 454 248 426 248 c 0
 344 248 291 281 291 345 c 0
 291 392 327 422 375 422 c 0
EndSplineSet
PickledDataWithLists: "(dp0
Vcom.fontlab.hintData
p1
(dp2
Vvhints
p3
(lp4
(dp5
Vwidth
p6
L10L
sVposition
p7
L84L
sa(dp8
g6
L10L
sg7
L109L
sa(dp9
g6
L10L
sg7
L191L
sa(dp10
g6
L10L
sg7
L312L
sa(dp11
g6
L10L
sg7
L375L
sa(dp12
g6
L10L
sg7
L524L
sa(dp13
g6
L10L
sg7
L529L
sa(dp14
g6
L10L
sg7
L606L
sa(dp15
g6
L10L
sg7
L708L
sasVhhints
p16
(lp17
(dp18
g6
L10L
sg7
L-24L
sa(dp19
g6
L10L
sg7
L34L
sa(dp20
g6
L10L
sg7
L391L
sa(dp21
g6
L10L
sg7
L439L
sa(dp22
g6
L10L
sg7
L561L
sa(dp23
g6
L10L
sg7
L599L
sa(dp24
g6
L10L
sg7
L609L
sa(dp25
g6
L10L
sg7
L629L
sass."
EndChar

StartChar: uni0E2A
Encoding: 442 3626 172
GlifName: uni0E_2A_
Width: 650
VWidth: 0
GlyphClass: 2
Flags: MW
LayerCount: 2
Fore
SplineSet
70 107 m 2
 70 202 l 2
 70 273 102 356 227 356 c 0
 228 356 229 356 230 356 c 0
 273 399 341 460 407 512 c 1
 381 531 347 540 305 540 c 0
 220 540 168 493 157 415 c 1
 50 423 l 1
 64 523 148 619 305 619 c 0
 372 619 429 603 472 574 c 1
 503 605 544 638 602 643 c 1
 620 550 l 1
 582 549 552 540 524 524 c 1
 547 492 560 453 560 409 c 2
 560 0 l 1
 453 0 l 1
 453 105 l 1
 431 172 346 284 234 284 c 0
 191 284 170 257 170 219 c 0
 170 207 167 195 164 186 c 1
 173 188 183 189 193 189 c 0
 254 189 300 150 300 90 c 0
 300 30 254 -9 193 -9 c 0
 120 -9 70 41 70 107 c 2
193 136 m 0
 166 136 148 117 148 90 c 0
 148 63 166 44 193 44 c 0
 220 44 238 63 238 90 c 0
 238 117 220 136 193 136 c 0
290 348 m 1
 361 329 416 279 453 226 c 1
 453 409 l 2
 453 433 449 454 441 471 c 1
 385 430 329 385 290 348 c 1
EndSplineSet
PickledDataWithLists: "(dp0
Vcom.fontlab.hintData
p1
(dp2
Vvhints
p3
(lp4
(dp5
Vwidth
p6
L10L
sVposition
p7
L54L
sa(dp8
g6
L10L
sg7
L94L
sa(dp9
g6
L10L
sg7
L136L
sa(dp10
g6
L10L
sg7
L176L
sa(dp11
g6
L10L
sg7
L504L
sa(dp12
g6
L10L
sg7
L586L
sa(dp13
g6
L10L
sg7
L616L
sasVhhints
p14
(lp15
(dp16
g6
L10L
sg7
L-14L
sa(dp17
g6
L10L
sg7
L-4L
sa(dp18
g6
L10L
sg7
L294L
sa(dp19
g6
L10L
sg7
L370L
sa(dp20
g6
L10L
sg7
L429L
sa(dp21
g6
L10L
sg7
L548L
sa(dp22
g6
L10L
sg7
L606L
sa(dp23
g6
L10L
sg7
L654L
sass."
EndChar

StartChar: uni0E2B
Encoding: 443 3627 173
GlifName: uni0E_2B_
Width: 660
VWidth: 0
GlyphClass: 2
Flags: MW
LayerCount: 2
Fore
SplineSet
494 464 m 0
 521 464 539 483 539 510 c 0
 539 537 521 556 494 556 c 0
 467 556 449 537 449 510 c 0
 449 483 467 464 494 464 c 0
138 464 m 0
 165 464 183 483 183 510 c 0
 183 537 165 556 138 556 c 0
 111 556 93 537 93 510 c 0
 93 483 111 464 138 464 c 0
473 381 m 1
 358 351 248 216 227 87 c 1
 227 0 l 1
 120 0 l 1
 120 360 l 2
 120 380 126 397 133 411 c 1
 75 413 31 452 31 510 c 0
 31 570 77 609 138 609 c 0
 199 609 245 570 245 510 c 0
 245 464 227 435 227 390 c 2
 227 256 l 1
 273 332 340 402 421 435 c 1
 400 452 387 478 387 510 c 0
 387 570 433 609 494 609 c 0
 555 609 601 570 601 510 c 0
 601 466 576 433 539 419 c 1
 561 405 580 386 580 360 c 2
 580 0 l 1
 473 0 l 1
 473 380 l 2
 473 381 l 1
EndSplineSet
PickledDataWithLists: "(dp0
Vcom.fontlab.hintData
p1
(dp2
Vvhints
p3
(lp4
(dp5
Vwidth
p6
L10L
sVposition
p7
L84L
sa(dp8
g6
L10L
sg7
L166L
sa(dp9
g6
L11L
sg7
L191L
sa(dp10
g6
L10L
sg7
L320L
sa(dp11
g6
L10L
sg7
L395L
sa(dp12
g6
L10L
sg7
L493L
sa(dp13
g6
L10L
sg7
L525L
sa(dp14
g6
L10L
sg7
L600L
sa(dp15
g6
L10L
sg7
L638L
sasVhhints
p16
(lp17
(dp18
g6
L10L
sg7
L-24L
sa(dp19
g6
L10L
sg7
L-12L
sa(dp20
g6
L10L
sg7
L553L
sa(dp21
g6
L10L
sg7
L589L
sa(dp22
g6
L10L
sg7
L602L
sass."
EndChar

StartChar: uni0E2C
Encoding: 444 3628 174
GlifName: uni0E_2C_
Width: 760
VWidth: 0
GlyphClass: 2
Flags: MW
AnchorPoint: "ThaiBelow.mark" 720 0 basechar 0
AnchorPoint: "ThaiTone.mark" 720 0 basechar 0
AnchorPoint: "ThaiAbove.mark" 720 0 basechar 0
LayerCount: 2
Fore
SplineSet
547 232 m 2
 547 412 l 2
 547 424 549 434 553 443 c 1
 551 443 549 443 547 443 c 0
 486 443 440 482 440 542 c 0
 440 602 486 641 547 641 c 0
 608 641 654 602 654 542 c 0
 654 541 l 2
 655 542 l 2
 655 541 655 539 655 538 c 1
 668 559 675 587 678 630 c 1
 740 623 l 1
 731 545 697 502 652 475 c 1
 651 463 650 449 650 432 c 2
 650 2 l 1
 558 2 l 1
 385 360 l 1
 212 2 l 1
 120 2 l 1
 120 362 l 2
 120 383 125 400 133 413 c 1
 74 415 30 453 30 512 c 0
 30 572 76 611 137 611 c 0
 198 611 244 572 244 512 c 0
 244 463 223 437 223 389 c 2
 223 232 l 2
 223 211 220 185 217 165 c 1
 359 467 l 1
 385 467 l 1
 411 467 l 1
 553 163 l 1
 550 184 547 211 547 232 c 2
547 496 m 0
 574 496 592 515 592 542 c 0
 592 569 574 588 547 588 c 0
 520 588 502 569 502 542 c 0
 502 515 520 496 547 496 c 0
137 466 m 0
 164 466 182 485 182 512 c 0
 182 539 164 558 137 558 c 0
 110 558 92 539 92 512 c 0
 92 485 110 466 137 466 c 0
EndSplineSet
PickledDataWithLists: "(dp0
Vcom.fontlab.hintData
p1
(dp2
Vvhints
p3
(lp4
(dp5
Vwidth
p6
L10L
sVposition
p7
L58L
sa(dp8
g6
L10L
sg7
L104L
sa(dp9
g6
L10L
sg7
L185L
sa(dp10
g6
L10L
sg7
L367L
sa(dp11
g6
L10L
sg7
L430L
sa(dp12
g6
L10L
sg7
L587L
sa(dp13
g6
L10L
sg7
L661L
sa(dp14
g6
L10L
sg7
L760L
sasVhhints
p15
(lp16
(dp17
g6
L10L
sg7
L-18L
sa(dp18
g6
L10L
sg7
L-13L
sa(dp19
g6
L10L
sg7
L329L
sa(dp20
g6
L10L
sg7
L391L
sa(dp21
g6
L10L
sg7
L439L
sa(dp22
g6
L10L
sg7
L561L
sa(dp23
g6
L10L
sg7
L604L
sa(dp24
g6
L10L
sg7
L609L
sa(dp25
g6
L10L
sg7
L629L
sass."
EndChar

StartChar: uni0E2D
Encoding: 445 3629 175
GlifName: uni0E_2D_
Width: 635
VWidth: 0
GlyphClass: 2
Flags: MW
LayerCount: 2
Fore
SplineSet
50 423 m 1
 64 523 148 619 305 619 c 0
 459 619 560 532 560 409 c 2
 560 184 l 2
 560 68 467 -19 320 -19 c 0
 173 -19 80 68 80 184 c 2
 80 261 l 2
 80 321 126 360 187 360 c 0
 248 360 294 321 294 261 c 0
 294 201 248 162 187 162 c 0
 185 162 184 162 182 162 c 1
 192 92 250 60 320 60 c 0
 397 60 453 99 453 184 c 2
 453 409 l 2
 453 499 394 540 305 540 c 0
 220 540 168 493 157 415 c 1
 50 423 l 1
187 307 m 0
 160 307 142 288 142 261 c 0
 142 234 160 215 187 215 c 0
 214 215 232 234 232 261 c 0
 232 288 214 307 187 307 c 0
EndSplineSet
PickledDataWithLists: "(dp0
Vcom.fontlab.hintData
p1
(dp2
Vvhints
p3
(lp4
(dp5
Vwidth
p6
L10L
sVposition
p7
L50L
sa(dp8
g6
L10L
sg7
L61L
sa(dp9
g6
L10L
sg7
L149L
sa(dp10
g6
L10L
sg7
L289L
sa(dp11
g6
L10L
sg7
L481L
sa(dp12
g6
L10L
sg7
L569L
sasVhhints
p13
(lp14
(dp15
g6
L10L
sg7
L-19L
sa(dp16
g6
L10L
sg7
L43L
sa(dp17
g6
L10L
sg7
L215L
sa(dp18
g6
L10L
sg7
L230L
sa(dp19
g6
L10L
sg7
L292L
sa(dp20
g6
L10L
sg7
L414L
sa(dp21
g6
L9L
sg7
L549L
sa(dp22
g6
L10L
sg7
L611L
sass."
EndChar

StartChar: uni0E2E
Encoding: 446 3630 176
GlifName: uni0E_2E_
Width: 640
VWidth: 0
GlyphClass: 2
Flags: MW
LayerCount: 2
Fore
SplineSet
182 307 m 0
 155 307 137 288 137 261 c 0
 137 234 155 215 182 215 c 0
 209 215 227 234 227 261 c 0
 227 288 209 307 182 307 c 0
182 360 m 0
 243 360 289 321 289 261 c 0
 289 201 243 162 182 162 c 0
 180 162 179 162 177 162 c 1
 187 92 245 60 315 60 c 0
 392 60 448 99 448 184 c 2
 448 300 l 2
 448 363 456 381 456 417 c 0
 456 419 456 422 456 424 c 1
 419 404 366 388 289 388 c 0
 150 388 55 432 55 490 c 0
 55 545 127 619 286 619 c 0
 392 619 456 576 489 541 c 1
 504 569 511 605 512 639 c 1
 605 630 l 1
 604 578 579 523 537 489 c 1
 547 470 555 443 555 417 c 2
 555 184 l 2
 555 68 462 -19 315 -19 c 0
 168 -19 75 68 75 184 c 2
 75 261 l 2
 75 321 121 360 182 360 c 0
155 490 m 0
 155 473 179 451 289 451 c 0
 360 451 408 465 439 485 c 1
 414 528 362 552 289 552 c 0
 198 552 155 522 155 490 c 0
EndSplineSet
PickledDataWithLists: "(dp0
Vcom.fontlab.hintData
p1
(dp2
Vvhints
p3
(lp4
(dp5
Vwidth
p6
L10L
sVposition
p7
L54L
sa(dp8
g6
L10L
sg7
L64L
sa(dp9
g6
L10L
sg7
L136L
sa(dp10
g6
L10L
sg7
L146L
sa(dp11
g6
L10L
sg7
L286L
sa(dp12
g6
L10L
sg7
L484L
sa(dp13
g6
L10L
sg7
L566L
sa(dp14
g6
L10L
sg7
L616L
sasVhhints
p15
(lp16
(dp17
g6
L10L
sg7
L-18L
sa(dp18
g6
L10L
sg7
L40L
sa(dp19
g6
L10L
sg7
L216L
sa(dp20
g6
L10L
sg7
L233L
sa(dp21
g6
L10L
sg7
L289L
sa(dp22
g6
L10L
sg7
L363L
sa(dp23
g6
L10L
sg7
L420L
sa(dp24
g6
L10L
sg7
L552L
sa(dp25
g6
L10L
sg7
L610L
sa(dp26
g6
L10L
sg7
L654L
sass."
EndChar

StartChar: uni0E2F
Encoding: 447 3631 177
GlifName: uni0E_2F_
Width: 495
VWidth: 0
GlyphClass: 2
Flags: MW
LayerCount: 2
Fore
SplineSet
147 556 m 0
 120 556 102 537 102 510 c 0
 102 483 120 464 147 464 c 0
 174 464 192 483 192 510 c 0
 192 537 174 556 147 556 c 0
147 609 m 0
 208 609 254 570 254 510 c 0
 254 491 249 474 241 460 c 1
 302 483 335 536 348 595 c 1
 397 600 l 1
 418 578 420 539 420 477 c 2
 420 152 l 2
 420 32 286 -5 159 -19 c 1
 143 58 l 1
 263 72 313 92 313 152 c 2
 313 383 l 2
 313 415 323 434 330 456 c 1
 293 423 241 400 171 400 c 0
 87 400 40 446 40 510 c 0
 40 570 86 609 147 609 c 0
EndSplineSet
PickledDataWithLists: "(dp0
Vcom.fontlab.hintData
p1
(dp2
Vvhints
p3
(lp4
(dp5
Vwidth
p6
L10L
sVposition
p7
L31L
sa(dp8
g6
L10L
sg7
L119L
sa(dp9
g6
L10L
sg7
L153L
sa(dp10
g6
L10L
sg7
L356L
sa(dp11
g6
L10L
sg7
L356L
sa(dp12
g6
L10L
sg7
L434L
sa(dp13
g6
L10L
sg7
L439L
sasVhhints
p14
(lp15
(dp16
g6
L10L
sg7
L-16L
sa(dp17
g6
L10L
sg7
L394L
sa(dp18
g6
L10L
sg7
L456L
sa(dp19
g6
L10L
sg7
L589L
sa(dp20
g6
L10L
sg7
L596L
sass."
EndChar

StartChar: uni0E30
Encoding: 448 3632 178
GlifName: uni0E_30
Width: 540
VWidth: 0
GlyphClass: 2
Flags: MW
LayerCount: 2
Fore
SplineSet
167 506 m 0
 140 506 122 487 122 460 c 0
 122 433 140 414 167 414 c 0
 194 414 212 433 212 460 c 0
 212 487 194 506 167 506 c 0
167 559 m 0
 228 559 274 520 274 460 c 0
 274 436 267 415 254 399 c 1
 255 399 256 399 257 399 c 2
 287 399 l 2
 353 399 387 456 390 539 c 1
 480 528 l 1
 477 426 416 343 290 343 c 2
 215 343 l 2
 113 343 60 395 60 460 c 0
 60 520 106 559 167 559 c 0
167 206 m 0
 140 206 122 187 122 160 c 0
 122 133 140 114 167 114 c 0
 194 114 212 133 212 160 c 0
 212 187 194 206 167 206 c 0
167 259 m 0
 228 259 274 220 274 160 c 0
 274 136 267 115 254 99 c 1
 255 99 256 99 257 99 c 2
 287 99 l 2
 353 99 387 156 390 239 c 1
 480 228 l 1
 477 126 416 43 290 43 c 2
 215 43 l 2
 113 43 60 95 60 160 c 0
 60 220 106 259 167 259 c 0
EndSplineSet
PickledDataWithLists: "(dp0
Vcom.fontlab.hintData
p1
(dp2
Vvhints
p3
(lp4
(dp5
Vwidth
p6
L10L
sVposition
p7
L51L
sa(dp8
g6
L10L
sg7
L60L
sa(dp9
g6
L10L
sg7
L139L
sa(dp10
g6
L10L
sg7
L144L
sa(dp11
g6
L10L
sg7
L154L
sa(dp12
g6
L10L
sg7
L450L
sasVhhints
p13
(lp14
(dp15
g6
L10L
sg7
L60L
sa(dp16
g6
L10L
sg7
L122L
sa(dp17
g6
L10L
sg7
L228L
sa(dp18
g6
L10L
sg7
L360L
sa(dp19
g6
L10L
sg7
L421L
sa(dp20
g6
L10L
sg7
L536L
sass."
EndChar

StartChar: uni0E31
Encoding: 449 3633 179
GlifName: uni0E_31
Width: 0
VWidth: 0
GlyphClass: 4
Flags: MW
AnchorPoint: "ThaiExtendedAbove.mkmk" 0 0 basemark 0
AnchorPoint: "ThaiAbove.mark" 0 0 mark 0
LayerCount: 2
Fore
SplineSet
-270 847 m 0
 -292 847 -306 832 -306 810 c 0
 -306 788 -292 773 -270 773 c 0
 -248 773 -234 788 -234 810 c 0
 -234 832 -248 847 -270 847 c 0
-270 894 m 0
 -218 894 -180 861 -180 810 c 0
 -180 787 -188 768 -201 754 c 1
 -197 754 -192 754 -188 754 c 2
 -168 754 l 2
 -107 754 -60 784 -60 879 c 1
 20 870 l 1
 20 765 -52 702 -155 702 c 2
 -215 702 l 2
 -303 702 -360 742 -360 810 c 0
 -360 861 -322 894 -270 894 c 0
EndSplineSet
PickledDataWithLists: "(dp0
Vcom.fontlab.hintData
p1
(dp2
Vvhints
p3
(lp4
(dp5
Vwidth
p6
L10L
sVposition
p7
L-391L
sa(dp8
g6
L10L
sg7
L-313L
sa(dp9
g6
L10L
sg7
L-306L
sa(dp10
g6
L10L
sg7
L55L
sasVhhints
p11
(lp12
(dp13
g6
L10L
sg7
L717L
sa(dp14
g6
L10L
sg7
L772L
sa(dp15
g6
L10L
sg7
L882L
sa(dp16
g6
L10L
sg7
L952L
sass."
Substitution2: "Thai.sl subtable" uni0E31.sl
EndChar

StartChar: uni0E32
Encoding: 450 3634 180
GlifName: uni0E_32
Width: 485
VWidth: 0
GlyphClass: 2
Flags: MW
LayerCount: 2
Fore
SplineSet
15 468 m 1
 26 540 87 619 210 619 c 0
 333 619 405 539 405 443 c 2
 405 0 l 1
 298 0 l 1
 298 443 l 2
 298 515 257 540 210 540 c 0
 162 540 130 513 122 460 c 1
 15 468 l 1
EndSplineSet
PickledDataWithLists: "(dp0
Vcom.fontlab.hintData
p1
(dp2
Vvhints
p3
(lp4
(dp5
Vwidth
p6
L10L
sVposition
p7
L15L
sa(dp8
g6
L10L
sg7
L291L
sa(dp9
g6
L10L
sg7
L312L
sa(dp10
g6
L10L
sg7
L379L
sa(dp11
g6
L10L
sg7
L400L
sasVhhints
p12
(lp13
(dp14
g6
L10L
sg7
L-25L
sa(dp15
g6
L10L
sg7
L399L
sa(dp16
g6
L10L
sg7
L545L
sa(dp17
g6
L10L
sg7
L606L
sass."
EndChar

StartChar: uni0E34
Encoding: 452 3636 182
GlifName: uni0E_34
Width: 0
VWidth: 0
GlyphClass: 4
Flags: MW
AnchorPoint: "ThaiExtendedAbove.mkmk" 0 0 basemark 0
AnchorPoint: "ThaiAbove.mark" 0 0 mark 0
LayerCount: 2
Fore
SplineSet
-435 772 m 1
 -185 730 l 1
 -212 774 -263 832 -350 832 c 0
 -390 832 -424 813 -435 772 c 1
-105 692 m 1
 -114 675 l 1
 -525 739 l 1
 -525 813 -472 890 -353 890 c 0
 -179 890 -118 723 -105 692 c 1
EndSplineSet
PickledDataWithLists: "(dp0
Vcom.fontlab.hintData
p1
(dp2
Vvhints
p3
(lp4
(dp5
Vwidth
p6
L10L
sVposition
p7
L-534L
sa(dp8
g6
L10L
sg7
L-456L
sasVhhints
p9
(lp10
(dp11
g6
L10L
sg7
L682L
sa(dp12
g6
L9L
sg7
L871L
sa(dp13
g6
L10L
sg7
L919L
sass."
Substitution2: "Thai.sl subtable" uni0E34.sl
EndChar

StartChar: uni0E35
Encoding: 453 3637 183
GlifName: uni0E_35
Width: 0
VWidth: 0
GlyphClass: 4
Flags: MW
AnchorPoint: "ThaiExtendedAbove.mkmk" 0 0 basemark 0
AnchorPoint: "ThaiAbove.mark" 0 0 mark 0
LayerCount: 2
Fore
SplineSet
-175 822 m 2
 -175 895 l 1
 -95 881 l 1
 -95 683 l 1
 -107 670 l 1
 -525 734 l 1
 -525 808 -473 886 -361 886 c 0
 -264 886 -201 823 -164 767 c 1
 -170 786 -175 806 -175 822 c 2
-435 767 m 1
 -169 722 l 1
 -198 766 -256 828 -351 828 c 0
 -391 828 -424 809 -435 767 c 1
EndSplineSet
PickledDataWithLists: "(dp0
Vcom.fontlab.hintData
p1
(dp2
Vvhints
p3
(lp4
(dp5
Vwidth
p6
L10L
sVposition
p7
L-530L
sa(dp8
g6
L10L
sg7
L-460L
sa(dp9
g6
L10L
sg7
L-189L
sa(dp10
g6
L10L
sg7
L-175L
sa(dp11
g6
L10L
sg7
L-116L
sasVhhints
p12
(lp13
(dp14
g6
L10L
sg7
L691L
sa(dp15
g6
L10L
sg7
L861L
sa(dp16
g6
L10L
sg7
L909L
sa(dp17
g6
L10L
sg7
L929L
sass."
Substitution2: "Thai.sl subtable" uni0E35.sl
EndChar

StartChar: uni0E36
Encoding: 454 3638 184
GlifName: uni0E_36
Width: 0
VWidth: 0
GlyphClass: 4
Flags: MW
AnchorPoint: "ThaiExtendedAbove.mkmk" 0 0 basemark 0
AnchorPoint: "ThaiAbove.mark" 0 0 mark 0
LayerCount: 2
Fore
SplineSet
-182 831 m 0
 -209 831 -227 812 -227 785 c 0
 -227 758 -209 739 -182 739 c 0
 -155 739 -137 758 -137 785 c 0
 -137 812 -155 831 -182 831 c 0
-182 884 m 0
 -121 884 -75 845 -75 785 c 0
 -75 725 -121 686 -182 686 c 0
 -203 686 -223 690 -239 699 c 1
 -525 734 l 1
 -525 808 -473 886 -361 886 c 0
 -320 886 -289 872 -264 852 c 1
 -245 872 -215 884 -182 884 c 0
-286 811 m 1
 -303 821 -324 828 -351 828 c 0
 -390 828 -424 809 -435 768 c 1
 -282 746 l 1
 -287 758 -289 771 -289 785 c 0
 -289 794 -288 803 -286 811 c 1
EndSplineSet
PickledDataWithLists: "(dp0
Vcom.fontlab.hintData
p1
(dp2
Vvhints
p3
(lp4
(dp5
Vwidth
p6
L10L
sVposition
p7
L-544L
sa(dp8
g6
L10L
sg7
L-466L
sa(dp9
g6
L10L
sg7
L-208L
sa(dp10
g6
L10L
sg7
L-134L
sa(dp11
g6
L10L
sg7
L-84L
sasVhhints
p12
(lp13
(dp14
g6
L10L
sg7
L689L
sa(dp15
g6
L10L
sg7
L723L
sa(dp16
g6
L21L
sg7
L824L
sa(dp17
g6
L10L
sg7
L861L
sa(dp18
g6
L10L
sg7
L892L
sa(dp19
g6
L10L
sg7
L909L
sass."
Substitution2: "Thai.sl subtable" uni0E36.sl
EndChar

StartChar: uni0E37
Encoding: 455 3639 185
GlifName: uni0E_37
Width: 0
VWidth: 0
GlyphClass: 4
Flags: MW
AnchorPoint: "ThaiExtendedAbove.mkmk" 0 0 basemark 0
AnchorPoint: "ThaiAbove.mark" 0 0 mark 0
LayerCount: 2
Fore
SplineSet
-274 872 m 2
 -274 920 l 1
 -208 906 l 1
 -208 728 l 1
 -151 718 l 1
 -156 730 -161 745 -161 762 c 2
 -161 895 l 1
 -95 881 l 1
 -95 683 l 1
 -106 670 l 1
 -525 733 l 1
 -525 807 -479 885 -370 885 c 0
 -324 885 -291 868 -268 845 c 1
 -272 855 -274 864 -274 872 c 2
-233 732 m 1
 -254 779 -293 827 -360 827 c 0
 -396 827 -425 807 -435 766 c 1
 -233 732 l 1
EndSplineSet
PickledDataWithLists: "(dp0
Vcom.fontlab.hintData
p1
(dp2
Vvhints
p3
(lp4
(dp5
Vwidth
p6
L10L
sVposition
p7
L-554L
sa(dp8
g6
L10L
sg7
L-476L
sa(dp9
g6
L10L
sg7
L-280L
sa(dp10
g6
L10L
sg7
L-218L
sa(dp11
g6
L10L
sg7
L-159L
sa(dp12
g6
L10L
sg7
L-148L
sa(dp13
g6
L10L
sg7
L-100L
sasVhhints
p14
(lp15
(dp16
g6
L10L
sg7
L698L
sa(dp17
g6
L10L
sg7
L861L
sa(dp18
g6
L10L
sg7
L909L
sa(dp19
g6
L10L
sg7
L922L
sa(dp20
g6
L10L
sg7
L932L
sass."
Substitution2: "Thai.sl subtable" uni0E37.sl
EndChar

StartChar: uni0E38
Encoding: 456 3640 186
GlifName: uni0E_38
Width: 0
VWidth: 0
GlyphClass: 4
Flags: MW
AnchorPoint: "ThaiExtendedBelow.mkmk" 0 0 mark 0
AnchorPoint: "ThaiExtendedBelow.mkmk" 0 -280 basemark 0
AnchorPoint: "ThaiBelow.mark" 0 0 mark 0
LayerCount: 2
Fore
SplineSet
-180 -113 m 0
 -202 -113 -216 -128 -216 -150 c 0
 -216 -172 -202 -187 -180 -187 c 0
 -158 -187 -144 -172 -144 -150 c 0
 -144 -128 -158 -113 -180 -113 c 0
-170 -305 m 1
 -170 -255 l 2
 -170 -247 -168 -239 -165 -233 c 1
 -170 -234 -175 -234 -180 -234 c 0
 -232 -234 -270 -201 -270 -150 c 0
 -270 -99 -232 -66 -180 -66 c 0
 -128 -66 -90 -99 -90 -150 c 0
 -90 -191 -97 -205 -97 -239 c 2
 -97 -305 l 1
 -170 -305 l 1
EndSplineSet
PickledDataWithLists: "(dp0
Vcom.fontlab.hintData
p1
(dp2
Vvhints
p3
(lp4
(dp5
Vwidth
p6
L10L
sVposition
p7
L-285L
sa(dp8
g6
L10L
sg7
L-185L
sa(dp9
g6
L10L
sg7
L-104L
sasVhhints
p10
(lp11
(dp12
g6
L10L
sg7
L-322L
sa(dp13
g6
L10L
sg7
L-172L
sa(dp14
g6
L10L
sg7
L-98L
sass."
Substitution2: "ThaiBV.sd subtable" uni0E38.sd
EndChar

StartChar: uni0E39
Encoding: 457 3641 187
GlifName: uni0E_39
Width: 0
VWidth: 0
GlyphClass: 4
Flags: MW
AnchorPoint: "ThaiExtendedBelow.mkmk" 0 0 mark 0
AnchorPoint: "ThaiExtendedBelow.mkmk" 0 -280 basemark 0
AnchorPoint: "ThaiBelow.mark" -30 0 mark 0
LayerCount: 2
Fore
SplineSet
-340 -113 m 0
 -362 -113 -376 -128 -376 -150 c 0
 -376 -172 -362 -187 -340 -187 c 0
 -318 -187 -304 -172 -304 -150 c 0
 -304 -128 -318 -113 -340 -113 c 0
-250 -150 m 0
 -250 -187 -260 -198 -260 -219 c 2
 -260 -235 l 2
 -260 -249 -249 -261 -213 -261 c 0
 -177 -261 -166 -249 -166 -235 c 2
 -166 -73 l 1
 -93 -73 l 1
 -93 -241 l 2
 -93 -286 -143 -310 -213 -310 c 0
 -283 -310 -330 -293 -330 -248 c 2
 -330 -234 l 2
 -333 -234 -337 -234 -340 -234 c 0
 -392 -234 -430 -201 -430 -150 c 0
 -430 -99 -392 -66 -340 -66 c 0
 -288 -66 -250 -99 -250 -150 c 0
EndSplineSet
PickledDataWithLists: "(dp0
Vcom.fontlab.hintData
p1
(dp2
Vvhints
p3
(lp4
(dp5
Vwidth
p6
L10L
sVposition
p7
L-401L
sa(dp8
g6
L10L
sg7
L-115L
sasVhhints
p9
(lp10
(dp11
g6
L10L
sg7
L-331L
sa(dp12
g6
L21L
sg7
L-267L
sa(dp13
g6
L10L
sg7
L-154L
sa(dp14
g6
L10L
sg7
L-106L
sass."
Substitution2: "ThaiBV.sd subtable" uni0E39.sd
EndChar

StartChar: uni0E3A
Encoding: 458 3642 188
GlifName: uni0E_3A_
Width: 0
VWidth: 0
GlyphClass: 4
Flags: MW
AnchorPoint: "ThaiExtendedBelow.mkmk" 0 0 mark 0
AnchorPoint: "ThaiExtendedBelow.mkmk" 0 -210 basemark 0
AnchorPoint: "ThaiBelow.mark" 0 0 mark 0
LayerCount: 2
Fore
SplineSet
-150 -76 m 0
 -105 -76 -70 -104 -70 -150 c 0
 -70 -196 -105 -224 -150 -224 c 0
 -195 -224 -230 -196 -230 -150 c 0
 -230 -104 -195 -76 -150 -76 c 0
EndSplineSet
PickledDataWithLists: "(dp0
Vcom.fontlab.hintData
p1
(dp2
Vvhints
p3
(lp4
(dp5
Vwidth
p6
L10L
sVposition
p7
L-229L
sa(dp8
g6
L10L
sg7
L-81L
sasVhhints
p9
(lp10
(dp11
g6
L10L
sg7
L-231L
sa(dp12
g6
L10L
sg7
L-110L
sass."
Substitution2: "ThaiBV.sd subtable" uni0E3A.sd
EndChar

StartChar: uni0E3F
Encoding: 459 3647 189
GlifName: uni0E_3F_
Width: 720
VWidth: 0
GlyphClass: 2
Flags: MW
LayerCount: 2
Fore
SplineSet
330 450 m 1
 395 457 458 499 458 583 c 0
 458 668 389 704 286 704 c 0
 252 704 223 702 203 701 c 1
 203 447 l 1
 238 449 282 450 330 450 c 1
470 433 m 1
 580 403 650 334 650 226 c 0
 650 90 538 6 376 -7 c 1
 376 -120 l 1
 290 -120 l 1
 290 -9 l 1
 187 -8 106 -1 90 0 c 1
 90 780 l 1
 106 781 187 789 290 789 c 1
 290 900 l 1
 376 900 l 1
 376 783 l 1
 490 764 575 699 575 593 c 0
 575 514 530 463 470 433 c 1
203 81 m 1
 231 79 270 77 316 77 c 0
 435 77 532 115 532 226 c 0
 532 337 435 371 316 371 c 0
 270 371 231 369 203 367 c 1
 203 81 l 1
EndSplineSet
PickledDataWithLists: "(dp0
Vcom.fontlab.hintData
p1
(dp2
Vvhints
p3
(lp4
(dp5
Vwidth
p6
L10L
sVposition
p7
L26L
sa(dp8
g6
L10L
sg7
L116L
sa(dp9
g6
L10L
sg7
L121L
sa(dp10
g6
L10L
sg7
L223L
sa(dp11
g6
L10L
sg7
L343L
sa(dp12
g6
L10L
sg7
L350L
sa(dp13
g6
L10L
sg7
L407L
sa(dp14
g6
L10L
sg7
L412L
sa(dp15
g6
L10L
sg7
L537L
sa(dp16
g6
L10L
sg7
L636L
sa(dp17
g6
L10L
sg7
L735L
sasVhhints
p18
(lp19
(dp20
g6
L10L
sg7
L-127L
sa(dp21
g6
L10L
sg7
L-22L
sa(dp22
g6
L10L
sg7
L49L
sa(dp23
g6
L10L
sg7
L395L
sa(dp24
g6
L10L
sg7
L634L
sa(dp25
g6
L10L
sg7
L661L
sa(dp26
g6
L10L
sg7
L916L
sass."
EndChar

StartChar: uni0E40
Encoding: 460 3648 190
GlifName: uni0E_40
Width: 330
VWidth: 0
GlyphClass: 2
Flags: MW
LayerCount: 2
Fore
SplineSet
197 136 m 0
 170 136 152 117 152 90 c 0
 152 63 170 44 197 44 c 0
 224 44 242 63 242 90 c 0
 242 117 224 136 197 136 c 0
90 90 m 0
 90 136 102 165 102 210 c 2
 102 600 l 1
 209 600 l 1
 209 240 l 2
 209 220 205 203 198 189 c 1
 259 189 304 150 304 90 c 0
 304 30 258 -9 197 -9 c 0
 136 -9 90 30 90 90 c 0
EndSplineSet
PickledDataWithLists: "(dp0
Vcom.fontlab.hintData
p1
(dp2
Vvhints
p3
(lp4
(dp5
Vwidth
p6
L10L
sVposition
p7
L116L
sa(dp8
g6
L10L
sg7
L121L
sa(dp9
g6
L10L
sg7
L204L
sa(dp10
g6
L10L
sg7
L209L
sa(dp11
g6
L10L
sg7
L244L
sasVhhints
p12
(lp13
(dp14
g6
L10L
sg7
L-30L
sa(dp15
g6
L10L
sg7
L586L
sass."
EndChar

StartChar: uni0E42
Encoding: 462 3650 192
GlifName: uni0E_42
Width: 380
VWidth: 0
GlyphClass: 2
Flags: MW
LayerCount: 2
Fore
SplineSet
240 136 m 0
 213 136 195 117 195 90 c 0
 195 63 213 44 240 44 c 0
 267 44 285 63 285 90 c 0
 285 117 267 136 240 136 c 0
133 90 m 0
 133 136 145 165 145 210 c 2
 145 620 l 2
 145 687 125 711 -1 711 c 1
 -1 737 l 2
 -1 837 67 913 184 913 c 0
 247 913 292 884 320 855 c 1
 322 859 323 863 325 866 c 2
 349 907 l 1
 428 892 l 1
 428 887 l 1
 344 779 l 1
 311 779 l 1
 295 801 263 841 197 841 c 0
 147 841 106 815 99 755 c 1
 208 743 252 704 252 620 c 2
 252 240 l 2
 252 220 248 203 241 189 c 1
 302 189 347 150 347 90 c 0
 347 30 301 -9 240 -9 c 0
 179 -9 133 30 133 90 c 0
EndSplineSet
PickledDataWithLists: "(dp0
Vcom.fontlab.hintData
p1
(dp2
Vvhints
p3
(lp4
(dp5
Vwidth
p6
L10L
sVposition
p7
L37L
sa(dp8
g6
L10L
sg7
L165L
sa(dp9
g6
L10L
sg7
L175L
sa(dp10
g6
L10L
sg7
L248L
sa(dp11
g6
L10L
sg7
L257L
sa(dp12
g6
L10L
sg7
L268L
sa(dp13
g6
L10L
sg7
L517L
sasVhhints
p14
(lp15
(dp16
g6
L10L
sg7
L-29L
sa(dp17
g6
L10L
sg7
L924L
sa(dp18
g6
L10L
sg7
L984L
sass."
EndChar

StartChar: uni0E43
Encoding: 463 3651 193
GlifName: uni0E_43
Width: 380
VWidth: 0
GlyphClass: 2
Flags: MW
LayerCount: 2
Fore
SplineSet
113 820 m 0
 86 820 68 801 68 774 c 0
 68 747 86 728 113 728 c 0
 140 728 158 747 158 774 c 0
 158 801 140 820 113 820 c 0
240 136 m 0
 213 136 195 117 195 90 c 0
 195 63 213 44 240 44 c 0
 267 44 285 63 285 90 c 0
 285 117 267 136 240 136 c 0
133 90 m 0
 133 136 145 165 145 210 c 2
 145 510 l 2
 145 643 286 662 286 771 c 0
 286 828 245 858 175 858 c 0
 174 858 174 858 173 858 c 1
 202 841 220 812 220 774 c 0
 220 714 174 675 113 675 c 0
 52 675 6 714 6 774 c 0
 6 847 70 913 185 913 c 0
 299 913 366 852 366 764 c 0
 366 642 252 625 252 510 c 2
 252 240 l 2
 252 220 248 203 241 189 c 1
 302 189 347 150 347 90 c 0
 347 30 301 -9 240 -9 c 0
 179 -9 133 30 133 90 c 0
EndSplineSet
PickledDataWithLists: "(dp0
Vcom.fontlab.hintData
p1
(dp2
Vvhints
p3
(lp4
(dp5
Vwidth
p6
L10L
sVposition
p7
L1L
sa(dp8
g6
L10L
sg7
L82L
sa(dp9
g6
L10L
sg7
L189L
sa(dp10
g6
L10L
sg7
L232L
sa(dp11
g6
L10L
sg7
L270L
sa(dp12
g6
L10L
sg7
L279L
sa(dp13
g6
L10L
sg7
L311L
sasVhhints
p14
(lp15
(dp16
g6
L10L
sg7
L-24L
sa(dp17
g6
L10L
sg7
L642L
sa(dp18
g6
L10L
sg7
L948L
sa(dp19
g6
L10L
sg7
L1002L
sass."
EndChar

StartChar: uni0E44
Encoding: 464 3652 194
GlifName: uni0E_44
Width: 380
VWidth: 0
GlyphClass: 2
Flags: MW
LayerCount: 2
Fore
SplineSet
240 136 m 0
 213 136 195 117 195 90 c 0
 195 63 213 44 240 44 c 0
 267 44 285 63 285 90 c 0
 285 117 267 136 240 136 c 0
-1 884 m 1
 -1 889 l 1
 70 909 l 1
 121 821 l 2
 129 806 136 790 141 776 c 1
 154 799 171 827 185 849 c 0
 197 869 220 909 282 909 c 0
 351 909 373 862 373 830 c 0
 373 736 252 660 252 520 c 2
 252 240 l 2
 252 220 248 203 241 189 c 1
 302 189 347 150 347 90 c 0
 347 30 301 -9 240 -9 c 0
 179 -9 133 30 133 90 c 0
 133 136 145 165 145 210 c 2
 145 520 l 2
 145 638 299 767 299 826 c 0
 299 838 290 854 272 854 c 1
 256 847 237 820 232 811 c 0
 223 795 155 700 155 700 c 1
 116 700 l 1
 -1 884 l 1
EndSplineSet
PickledDataWithLists: "(dp0
Vcom.fontlab.hintData
p1
(dp2
Vvhints
p3
(lp4
(dp5
Vwidth
p6
L10L
sVposition
p7
L-47L
sa(dp8
g6
L10L
sg7
L152L
sa(dp9
g6
L10L
sg7
L234L
sa(dp10
g6
L10L
sg7
L415L
sasVhhints
p11
(lp12
(dp13
g6
L10L
sg7
L-28L
sa(dp14
g6
L10L
sg7
L849L
sa(dp15
g6
L10L
sg7
L906L
sa(dp16
g6
L10L
sg7
L1003L
sass."
EndChar

StartChar: uni0E45
Encoding: 465 3653 195
GlifName: uni0E_45
Width: 485
VWidth: 0
GlyphClass: 2
Flags: MW
LayerCount: 2
Fore
SplineSet
15 468 m 1
 26 540 87 619 210 619 c 0
 333 619 405 539 405 443 c 2
 405 -210 l 1
 298 -210 l 1
 298 443 l 2
 298 515 257 540 210 540 c 0
 162 540 130 513 122 460 c 1
 15 468 l 1
EndSplineSet
PickledDataWithLists: "(dp0
Vcom.fontlab.hintData
p1
(dp2
Vvhints
p3
(lp4
(dp5
Vwidth
p6
L10L
sVposition
p7
L15L
sa(dp8
g6
L10L
sg7
L291L
sa(dp9
g6
L10L
sg7
L312L
sa(dp10
g6
L10L
sg7
L379L
sa(dp11
g6
L10L
sg7
L400L
sasVhhints
p12
(lp13
(dp14
g6
L10L
sg7
L-245L
sa(dp15
g6
L10L
sg7
L399L
sa(dp16
g6
L10L
sg7
L545L
sa(dp17
g6
L10L
sg7
L606L
sass."
EndChar

StartChar: uni0E46
Encoding: 466 3654 196
GlifName: uni0E_46
Width: 590
VWidth: 0
Flags: MW
LayerCount: 2
Fore
SplineSet
207 372 m 0
 180 372 162 353 162 326 c 0
 162 299 180 280 207 280 c 0
 234 280 252 299 252 326 c 0
 252 353 234 372 207 372 c 0
207 425 m 0
 268 425 314 386 314 326 c 0
 314 266 268 227 207 227 c 0
 104 227 50 312 50 412 c 0
 50 546 132 608 188 613 c 1
 280 533 l 1
 372 613 l 1
 428 608 510 546 510 412 c 2
 510 -210 l 1
 403 -210 l 1
 403 412 l 2
 403 461 389 497 364 521 c 1
 288 460 l 1
 280 460 l 1
 272 460 l 1
 185 530 l 1
 154 506 137 467 137 412 c 0
 137 410 137 406 137 403 c 1
 155 417 180 425 207 425 c 0
EndSplineSet
PickledDataWithLists: "(dp0
Vcom.fontlab.hintData
p1
(dp2
Vvhints
p3
(lp4
(dp5
Vwidth
p6
L10L
sVposition
p7
L54L
sa(dp8
g6
L10L
sg7
L136L
sa(dp9
g6
L10L
sg7
L262L
sa(dp10
g6
L10L
sg7
L434L
sa(dp11
g6
L10L
sg7
L444L
sa(dp12
g6
L10L
sg7
L516L
sa(dp13
g6
L10L
sg7
L526L
sasVhhints
p14
(lp15
(dp16
g6
L10L
sg7
L-244L
sa(dp17
g6
L10L
sg7
L216L
sa(dp18
g6
L10L
sg7
L274L
sa(dp19
g6
L10L
sg7
L390L
sa(dp20
g6
L10L
sg7
L536L
sa(dp21
g6
L10L
sg7
L588L
sa(dp22
g6
L10L
sg7
L594L
sass."
EndChar

StartChar: uni0E47
Encoding: 467 3655 197
GlifName: uni0E_47
Width: 0
VWidth: 0
GlyphClass: 4
Flags: MW
AnchorPoint: "ThaiExtendedAbove.mkmk" -80 0 basemark 0
AnchorPoint: "ThaiAbove.mark" 0 0 mark 0
LayerCount: 2
Fore
SplineSet
-173 778 m 0
 -194 778 -208 763 -208 743 c 0
 -208 723 -194 708 -173 708 c 0
 -152 708 -138 723 -138 743 c 0
 -138 763 -152 778 -173 778 c 0
-173 820 m 0
 -125 820 -89 790 -89 743 c 0
 -89 696 -125 666 -173 666 c 0
 -219 666 -255 694 -257 738 c 1
 -300 671 l 1
 -383 671 -440 709 -440 785 c 0
 -440 861 -383 899 -300 899 c 2
 -187 899 l 2
 -149 899 -116 904 -96 922 c 1
 -70 873 l 1
 -100 850 -140 847 -184 847 c 2
 -300 847 l 2
 -347 847 -374 827 -374 785 c 0
 -374 750 -355 730 -321 725 c 1
 -275 795 l 1
 -268 795 l 1
 -248 781 l 1
 -234 806 -206 820 -173 820 c 0
EndSplineSet
PickledDataWithLists: "(dp0
Vcom.fontlab.hintData
p1
(dp2
Vvhints
p3
(lp4
(dp5
Vwidth
p6
L10L
sVposition
p7
L-460L
sa(dp8
g6
L10L
sg7
L-390L
sa(dp9
g6
L10L
sg7
L-265L
sa(dp10
g6
L10L
sg7
L-100L
sa(dp11
g6
L10L
sg7
L-71L
sasVhhints
p12
(lp13
(dp14
g6
L10L
sg7
L691L
sa(dp15
g6
L10L
sg7
L739L
sa(dp16
g6
L10L
sg7
L806L
sa(dp17
g6
L10L
sg7
L861L
sa(dp18
g6
L10L
sg7
L909L
sa(dp19
g6
L10L
sg7
L929L
sass."
Substitution2: "Thai.sul subtable" uni0E47.sul
Substitution2: "Thai.su subtable" uni0E47.su
Substitution2: "Thai.sl subtable" uni0E47.sl
EndChar

StartChar: uni0E48
Encoding: 468 3656 198
GlifName: uni0E_48
Width: 0
VWidth: 0
GlyphClass: 4
Flags: MW
AnchorPoint: "ThaiExtendedAbove.mkmk" 0 0 mark 0
AnchorPoint: "ThaiExtendedAbove.mkmk" 0 240 basemark 0
LayerCount: 2
Fore
SplineSet
-175 955 m 1
 -175 1130 l 1
 -95 1130 l 1
 -95 941 l 1
 -175 955 l 1
EndSplineSet
PickledDataWithLists: "(dp0
Vcom.fontlab.hintData
p1
(dp2
Vvhints
p3
(lp4
(dp5
Vwidth
p6
L10L
sVposition
p7
L-127L
sasVhhints
p8
(lp9
(dp10
g6
L10L
sg7
L985L
sa(dp11
g6
L10L
sg7
L1197L
sass."
Substitution2: "Thai.sl subtable" uni0E48.sl
Substitution2: "Thai.sdl subtable" uni0E48.sdl
Substitution2: "Thai.sd subtable" uni0E48.sd
Substitution2: "ThaiT.0E4D subtable" uni0E4D
EndChar

StartChar: uni0E49
Encoding: 469 3657 199
GlifName: uni0E_49
Width: 0
VWidth: 0
GlyphClass: 4
Flags: MW
AnchorPoint: "ThaiExtendedAbove.mkmk" 0 0 mark 0
AnchorPoint: "ThaiExtendedAbove.mkmk" 0 240 basemark 0
LayerCount: 2
Fore
SplineSet
-278 1092 m 0
 -293 1092 -302 1082 -302 1066 c 0
 -302 1050 -293 1040 -278 1040 c 0
 -263 1040 -254 1050 -254 1066 c 0
 -254 1082 -263 1092 -278 1092 c 0
-245 962 m 2
 -244 974 -243 985 -243 996 c 0
 -243 1004 -244 1010 -244 1017 c 1
 -254 1012 -265 1009 -278 1009 c 0
 -313 1009 -339 1031 -339 1066 c 0
 -339 1101 -313 1123 -278 1123 c 0
 -228 1123 -202 1090 -198 1040 c 0
 -197 1022 -196 1006 -196 993 c 1
 -150 1003 -118 1037 -116 1121 c 1
 -40 1110 l 1
 -42 1008 -109 950 -223 950 c 2
 -245 950 l 1
 -245 962 l 2
EndSplineSet
PickledDataWithLists: "(dp0
Vcom.fontlab.hintData
p1
(dp2
Vvhints
p3
(lp4
(dp5
Vwidth
p6
L10L
sVposition
p7
L-309L
sa(dp8
g6
L10L
sg7
L-263L
sa(dp9
g6
L10L
sg7
L-247L
sa(dp10
g6
L10L
sg7
L-188L
sa(dp11
g6
L10L
sg7
L7L
sasVhhints
p12
(lp13
(dp14
g6
L10L
sg7
L990L
sa(dp15
g6
L10L
sg7
L1197L
sass."
Substitution2: "Thai.sl subtable" uni0E49.sl
Substitution2: "Thai.sdl subtable" uni0E49.sdl
Substitution2: "Thai.sd subtable" uni0E49.sd
Substitution2: "ThaiT.0E4D subtable" uni0E4D
EndChar

StartChar: uni0E4A
Encoding: 470 3658 200
GlifName: uni0E_4A_
Width: 0
VWidth: 0
GlyphClass: 4
Flags: MW
AnchorPoint: "ThaiExtendedAbove.mkmk" 0 0 mark 0
AnchorPoint: "ThaiExtendedAbove.mkmk" 0 240 basemark 0
LayerCount: 2
Fore
SplineSet
-228 1025 m 0
 -243 1025 -252 1015 -252 999 c 0
 -252 983 -243 973 -228 973 c 0
 -213 973 -204 983 -204 999 c 0
 -204 1015 -213 1025 -228 1025 c 0
-228 1056 m 0
 -193 1056 -167 1034 -167 999 c 0
 -167 964 -193 942 -228 942 c 0
 -290 942 -311 987 -311 1030 c 0
 -311 1100 -257 1125 -233 1127 c 1
 -184 1098 l 1
 -134 1127 l 1
 -110 1125 -63 1100 -63 1030 c 0
 -63 1021 -65 1012 -68 1004 c 1
 -50 1028 -40 1063 -36 1103 c 1
 20 1093 l 1
 11 1015 -42 948 -139 945 c 1
 -146 974 l 1
 -124 986 -112 1002 -112 1030 c 0
 -112 1061 -125 1076 -139 1084 c 1
 -181 1060 l 1
 -184 1060 l 1
 -187 1060 l 1
 -231 1085 l 1
 -242 1079 -252 1069 -256 1051 c 1
 -248 1054 -238 1056 -228 1056 c 0
EndSplineSet
PickledDataWithLists: "(dp0
Vcom.fontlab.hintData
p1
(dp2
Vvhints
p3
(lp4
(dp5
Vwidth
p6
L10L
sVposition
p7
L-365L
sa(dp8
g6
L10L
sg7
L-305L
sa(dp9
g6
L10L
sg7
L-243L
sa(dp10
g6
L10L
sg7
L-152L
sa(dp11
g6
L10L
sg7
L-130L
sa(dp12
g6
L10L
sg7
L-79L
sa(dp13
g6
L10L
sg7
L24L
sasVhhints
p14
(lp15
(dp16
g6
L10L
sg7
L980L
sa(dp17
g6
L10L
sg7
L1097L
sa(dp18
g6
L10L
sg7
L1185L
sa(dp19
g6
L10L
sg7
L1195L
sass."
Substitution2: "Thai.sl subtable" uni0E4A.sl
Substitution2: "Thai.sdl subtable" uni0E4A.sdl
Substitution2: "Thai.sd subtable" uni0E4A.sd
Substitution2: "ThaiT.0E4D subtable" uni0E4D
EndChar

StartChar: uni0E4B
Encoding: 471 3659 201
GlifName: uni0E_4B_
Width: 0
VWidth: 0
GlyphClass: 4
Flags: MW
AnchorPoint: "ThaiExtendedAbove.mkmk" 0 0 mark 0
AnchorPoint: "ThaiExtendedAbove.mkmk" 0 240 basemark 0
LayerCount: 2
Fore
SplineSet
-260 1015 m 1
 -260 1060 l 1
 -171 1060 l 1
 -171 1130 l 1
 -98 1130 l 1
 -98 1060 l 1
 -10 1060 l 1
 -10 1015 l 1
 -98 1015 l 1
 -98 941 l 1
 -171 955 l 1
 -171 1015 l 1
 -260 1015 l 1
EndSplineSet
PickledDataWithLists: "(dp0
Vcom.fontlab.hintData
p1
(dp2
Vvhints
p3
(lp4
(dp5
Vwidth
p6
L10L
sVposition
p7
L-193L
sa(dp8
g6
L10L
sg7
L-131L
sa(dp9
g6
L10L
sg7
L-23L
sasVhhints
p10
(lp11
(dp12
g6
L10L
sg7
L985L
sa(dp13
g6
L10L
sg7
L1073L
sa(dp14
g6
L10L
sg7
L1078L
sa(dp15
g6
L10L
sg7
L1117L
sa(dp16
g6
L10L
sg7
L1122L
sa(dp17
g6
L10L
sg7
L1207L
sass."
Substitution2: "Thai.sl subtable" uni0E4B.sl
Substitution2: "Thai.sdl subtable" uni0E4B.sdl
Substitution2: "Thai.sd subtable" uni0E4B.sd
Substitution2: "ThaiT.0E4D subtable" uni0E4D
EndChar

StartChar: uni0E4C
Encoding: 472 3660 202
GlifName: uni0E_4C_
Width: 0
VWidth: 0
GlyphClass: 4
Flags: MW
AnchorPoint: "ThaiExtendedAbove.mkmk" 0 0 mark 0
AnchorPoint: "ThaiExtendedAbove.mkmk" 0 240 basemark 0
LayerCount: 2
Fore
SplineSet
-180 1064 m 0
 -202 1064 -216 1049 -216 1027 c 0
 -216 1005 -202 990 -180 990 c 0
 -158 990 -144 1005 -144 1027 c 0
 -144 1049 -158 1064 -180 1064 c 0
-270 1027 m 0
 -270 1076 -241 1116 -178 1116 c 2
 -150 1116 l 2
 -99 1116 -77 1132 -77 1176 c 1
 0 1167 l 1
 0 1116 -35 1080 -103 1073 c 1
 -95 1060 -90 1045 -90 1027 c 0
 -90 976 -128 943 -180 943 c 0
 -232 943 -270 976 -270 1027 c 0
EndSplineSet
PickledDataWithLists: "(dp0
Vcom.fontlab.hintData
p1
(dp2
Vvhints
p3
(lp4
(dp5
Vwidth
p6
L10L
sVposition
p7
L-277L
sa(dp8
g6
L10L
sg7
L-200L
sa(dp9
g6
L10L
sg7
L-185L
sa(dp10
g6
L10L
sg7
L-10L
sasVhhints
p11
(lp12
(dp13
g6
L10L
sg7
L978L
sa(dp14
g6
L10L
sg7
L1212L
sass."
Substitution2: "Thai.sl subtable" uni0E4C.sl
Substitution2: "Thai.sdl subtable" uni0E4C.sdl
Substitution2: "Thai.sd subtable" uni0E4C.sd
Substitution2: "ThaiT.0E4D subtable" uni0E4D
EndChar

StartChar: uni0E4D
Encoding: 473 3661 203
GlifName: uni0E_4D_
Width: 0
VWidth: 0
GlyphClass: 4
Flags: MW
AnchorPoint: "ThaiExtendedAbove.mkmk" 0 0 basemark 0
AnchorPoint: "ThaiAbove.mark" 0 0 mark 0
LayerCount: 2
Fore
SplineSet
-180 879 m 0
 -119 879 -73 840 -73 780 c 0
 -73 720 -119 681 -180 681 c 0
 -241 681 -287 720 -287 780 c 0
 -287 840 -241 879 -180 879 c 0
-180 826 m 0
 -207 826 -225 807 -225 780 c 0
 -225 753 -207 734 -180 734 c 0
 -153 734 -135 753 -135 780 c 0
 -135 807 -153 826 -180 826 c 0
EndSplineSet
PickledDataWithLists: "(dp0
Vcom.fontlab.hintData
p1
(dp2
Vvhints
p3
(lp4
(dp5
Vwidth
p6
L10L
sVposition
p7
L-282L
sa(dp8
g6
L10L
sg7
L-218L
sa(dp9
g6
L10L
sg7
L-122L
sa(dp10
g6
L10L
sg7
L-58L
sasVhhints
p11
(lp12
(dp13
g6
L10L
sg7
L703L
sa(dp14
g6
L10L
sg7
L747L
sa(dp15
g6
L10L
sg7
L863L
sa(dp16
g6
L10L
sg7
L907L
sass."
Substitution2: "Thai.sul subtable" uni0E4D.sul
Substitution2: "Thai.su subtable" uni0E4D.su
Substitution2: "Thai.sl subtable" uni0E4D.sl
Substitution2: "Thai0E4D.0E4B subtable" uni0E4B
Substitution2: "Thai0E4D.0E4A subtable" uni0E4A
Substitution2: "Thai0E4D.0E49 subtable" uni0E49
Substitution2: "Thai0E4D.0E48 subtable" uni0E48
EndChar

StartChar: uni0E4E
Encoding: 474 3662 204
GlifName: uni0E_4E_
Width: 0
VWidth: 0
GlyphClass: 4
Flags: MW
AnchorPoint: "ThaiExtendedAbove.mkmk" 0 -240 mark 0
AnchorPoint: "ThaiAbove.mark" 0 0 mark 0
LayerCount: 2
Fore
SplineSet
-360 759 m 0
 -360 798 -329 838 -272 838 c 0
 -269 838 -265 838 -262 837 c 1
 -262 838 -262 838 -262 839 c 0
 -262 878 -236 920 -179 920 c 0
 -151 920 -127 908 -109 890 c 2
 -70 850 l 1
 -109 816 l 1
 -156 863 l 2
 -166 873 -175 875 -179 875 c 0
 -190 875 -211 864 -211 839 c 0
 -211 828 -208 818 -200 809 c 2
 -163 770 l 1
 -201 736 l 1
 -249 783 l 2
 -259 793 -268 795 -272 795 c 0
 -283 795 -301 784 -301 759 c 0
 -301 748 -296 735 -286 725 c 2
 -246 686 l 1
 -286 650 l 1
 -333 698 l 2
 -351 716 -360 738 -360 759 c 0
EndSplineSet
PickledDataWithLists: "(dp0
Vcom.fontlab.hintData
p1
(dp2
Vvhints
p3
(lp4
(dp5
Vwidth
p6
L10L
sVposition
p7
L-400L
sa(dp8
g6
L10L
sg7
L-363L
sa(dp9
g6
L10L
sg7
L-335L
sa(dp10
g6
L10L
sg7
L-298L
sa(dp11
g6
L10L
sg7
L-211L
sa(dp12
g6
L10L
sg7
L-192L
sa(dp13
g6
L10L
sg7
L-141L
sasVhhints
p14
(lp15
(dp16
g6
L10L
sg7
L661L
sa(dp17
g6
L10L
sg7
L709L
sa(dp18
g6
L10L
sg7
L805L
sa(dp19
g6
L10L
sg7
L853L
sa(dp20
g6
L10L
sg7
L930L
sa(dp21
g6
L10L
sg7
L943L
sa(dp22
g6
L10L
sg7
L989L
sass."
Substitution2: "Thai.sl subtable" uni0E4E.sl
EndChar

StartChar: uni0E4F
Encoding: 475 3663 205
GlifName: uni0E_4F_
Width: 660
VWidth: 0
GlyphClass: 2
Flags: MW
LayerCount: 2
Fore
SplineSet
330 346 m 0
 303 346 285 327 285 300 c 0
 285 273 303 254 330 254 c 0
 357 254 375 273 375 300 c 0
 375 327 357 346 330 346 c 0
330 399 m 0
 391 399 437 360 437 300 c 0
 437 240 391 201 330 201 c 0
 269 201 223 240 223 300 c 0
 223 360 269 399 330 399 c 0
330 52 m 0
 168 52 70 162 70 300 c 0
 70 438 168 548 330 548 c 0
 492 548 590 438 590 300 c 0
 590 162 492 52 330 52 c 0
330 111 m 0
 441 111 517 183 517 300 c 0
 517 417 441 489 330 489 c 0
 219 489 143 417 143 300 c 0
 143 183 219 111 330 111 c 0
EndSplineSet
PickledDataWithLists: "(dp0
Vcom.fontlab.hintData
p1
(dp2
Vvhints
p3
(lp4
(dp5
Vwidth
p6
L10L
sVposition
p7
L80L
sa(dp8
g6
L10L
sg7
L150L
sa(dp9
g6
L10L
sg7
L267L
sa(dp10
g6
L10L
sg7
L472L
sa(dp11
g6
L10L
sg7
L477L
sa(dp12
g6
L10L
sg7
L488L
sa(dp13
g6
L10L
sg7
L590L
sa(dp14
g6
L10L
sg7
L660L
sasVhhints
p15
(lp16
(dp17
g6
L10L
sg7
L1L
sa(dp18
g6
L10L
sg7
L49L
sa(dp19
g6
L10L
sg7
L199L
sa(dp20
g6
L10L
sg7
L391L
sa(dp21
g6
L10L
sg7
L523L
sa(dp22
g6
L10L
sg7
L531L
sa(dp23
g6
L10L
sg7
L543L
sa(dp24
g6
L10L
sg7
L579L
sass."
EndChar

StartChar: uni0E4F.extra
Encoding: 807 63616 206
GlifName: uni0E_4F_.extra
Width: 660
VWidth: 0
GlyphClass: 3
Flags: MW
LayerCount: 2
Fore
SplineSet
380 890 m 1
 467 890 l 1
 452 630 l 1
 394 630 l 1
 380 890 l 1
193 890 m 1
 280 890 l 1
 266 630 l 1
 208 630 l 1
 193 890 l 1
EndSplineSet
Refer: 205 3663 S 1 0 0 1 0 0 2
PickledDataWithLists: "(dp0
Vcom.fontlab.hintData
p1
(dp2
Vvhints
p3
(lp4
(dp5
Vwidth
p6
L10L
sVposition
p7
L80L
sa(dp8
g6
L10L
sg7
L150L
sa(dp9
g6
L10L
sg7
L227L
sa(dp10
g6
L10L
sg7
L267L
sa(dp11
g6
L10L
sg7
L316L
sa(dp12
g6
L10L
sg7
L424L
sa(dp13
g6
L10L
sg7
L433L
sa(dp14
g6
L10L
sg7
L472L
sa(dp15
g6
L10L
sg7
L477L
sa(dp16
g6
L10L
sg7
L488L
sa(dp17
g6
L10L
sg7
L513L
sa(dp18
g6
L10L
sg7
L590L
sa(dp19
g6
L10L
sg7
L660L
sasVhhints
p20
(lp21
(dp22
g6
L10L
sg7
L1L
sa(dp23
g6
L10L
sg7
L49L
sa(dp24
g6
L10L
sg7
L199L
sa(dp25
g6
L10L
sg7
L391L
sa(dp26
g6
L10L
sg7
L523L
sa(dp27
g6
L10L
sg7
L531L
sa(dp28
g6
L10L
sg7
L543L
sa(dp29
g6
L10L
sg7
L579L
sa(dp30
g6
L10L
sg7
L668L
sa(dp31
g6
L10L
sg7
L673L
sa(dp32
g6
L10L
sg7
L947L
sass."
Ligature2: "Thai.extra subtable" uni0E4F uni200D uni0E48 uni200D uni0E48
Ligature2: "Thai.extra subtable" uni0E4F uni0E48 uni0E48
Ligature2: "Thai.liga subtable" uni0E4F uni200D period uni200D period
Ligature2: "Thai.liga subtable" uni0E4F period period
Colour: ff00ff
EndChar

StartChar: uni0E50
Encoding: 476 3664 207
GlifName: uni0E_50
Width: 720
VWidth: 0
GlyphClass: 2
Flags: MW
LayerCount: 2
Fore
SplineSet
65 286 m 2
 65 314 l 2
 65 457 137 619 360 619 c 0
 583 619 655 457 655 314 c 2
 655 286 l 2
 655 143 583 -19 360 -19 c 0
 137 -19 65 143 65 286 c 2
360 60 m 0
 487 60 548 150 548 286 c 2
 548 314 l 2
 548 450 487 540 360 540 c 0
 233 540 172 450 172 314 c 2
 172 286 l 2
 172 150 233 60 360 60 c 0
EndSplineSet
PickledDataWithLists: "(dp0
Vcom.fontlab.hintData
p1
(dp2
Vvhints
p3
(lp4
(dp5
Vwidth
p6
L10L
sVposition
p7
L61L
sa(dp8
g6
L10L
sg7
L149L
sa(dp9
g6
L10L
sg7
L561L
sa(dp10
g6
L10L
sg7
L649L
sasVhhints
p11
(lp12
(dp13
g6
L10L
sg7
L-26L
sa(dp14
g6
L10L
sg7
L36L
sa(dp15
g6
L10L
sg7
L533L
sa(dp16
g6
L10L
sg7
L544L
sa(dp17
g6
L10L
sg7
L571L
sa(dp18
g6
L10L
sg7
L606L
sass."
EndChar

StartChar: uni0E51
Encoding: 477 3665 208
GlifName: uni0E_51
Width: 720
VWidth: 0
GlyphClass: 2
Flags: MW
LayerCount: 2
Fore
SplineSet
65 334 m 0
 65 466 147 619 360 619 c 0
 583 619 655 456 655 315 c 2
 655 293 l 2
 655 140 520 -24 309 -39 c 1
 298 40 l 1
 436 50 551 167 551 293 c 2
 551 315 l 2
 551 447 490 541 360 541 c 0
 235 541 165 452 165 334 c 0
 165 255 219 210 281 210 c 0
 311 210 339 218 360 231 c 1
 299 231 253 270 253 330 c 0
 253 390 299 429 360 429 c 0
 421 429 467 390 467 330 c 0
 467 238 402 144 266 144 c 0
 131 144 65 249 65 334 c 0
360 376 m 0
 333 376 315 357 315 330 c 0
 315 303 333 284 360 284 c 0
 387 284 405 303 405 330 c 0
 405 357 387 376 360 376 c 0
EndSplineSet
PickledDataWithLists: "(dp0
Vcom.fontlab.hintData
p1
(dp2
Vvhints
p3
(lp4
(dp5
Vwidth
p6
L10L
sVposition
p7
L61L
sa(dp8
g6
L10L
sg7
L149L
sa(dp9
g6
L10L
sg7
L290L
sa(dp10
g6
L10L
sg7
L311L
sa(dp11
g6
L10L
sg7
L399L
sa(dp12
g6
L10L
sg7
L561L
sa(dp13
g6
L10L
sg7
L649L
sasVhhints
p14
(lp15
(dp16
g6
L10L
sg7
L-36L
sa(dp17
g6
L10L
sg7
L144L
sa(dp18
g6
L10L
sg7
L206L
sa(dp19
g6
L10L
sg7
L320L
sa(dp20
g6
L10L
sg7
L544L
sa(dp21
g6
L10L
sg7
L606L
sass."
EndChar

StartChar: uni0E52
Encoding: 478 3666 209
GlifName: uni0E_52
Width: 810
VWidth: 0
GlyphClass: 2
Flags: MW
LayerCount: 2
Fore
SplineSet
80 189 m 2
 80 750 l 1
 183 750 l 1
 183 189 l 2
 183 118 237 79 283 79 c 2
 540 79 l 2
 586 79 640 118 640 189 c 2
 640 412 l 2
 640 463 625 500 598 524 c 1
 518 460 l 1
 510 460 l 1
 502 460 l 1
 415 530 l 1
 384 506 367 467 367 412 c 0
 367 410 367 406 367 403 c 1
 385 417 410 425 437 425 c 0
 498 425 544 386 544 326 c 0
 544 266 498 227 437 227 c 0
 334 227 280 312 280 412 c 0
 280 546 362 608 418 613 c 1
 510 533 l 1
 602 613 l 1
 658 608 740 546 740 412 c 2
 740 189 l 2
 740 98 671 0 537 0 c 2
 283 0 l 2
 149 0 80 98 80 189 c 2
437 372 m 0
 410 372 392 353 392 326 c 0
 392 299 410 280 437 280 c 0
 464 280 482 299 482 326 c 0
 482 353 464 372 437 372 c 0
EndSplineSet
PickledDataWithLists: "(dp0
Vcom.fontlab.hintData
p1
(dp2
Vvhints
p3
(lp4
(dp5
Vwidth
p6
L10L
sVposition
p7
L89L
sa(dp8
g6
L10L
sg7
L101L
sa(dp9
g6
L10L
sg7
L183L
sa(dp10
g6
L10L
sg7
L249L
sa(dp11
g6
L10L
sg7
L331L
sa(dp12
g6
L10L
sg7
L463L
sa(dp13
g6
L10L
sg7
L528L
sa(dp14
g6
L10L
sg7
L634L
sa(dp15
g6
L10L
sg7
L716L
sa(dp16
g6
L10L
sg7
L721L
sasVhhints
p17
(lp18
(dp19
g6
L10L
sg7
L6L
sa(dp20
g6
L10L
sg7
L14L
sa(dp21
g6
L10L
sg7
L65L
sa(dp22
g6
L10L
sg7
L72L
sa(dp23
g6
L10L
sg7
L216L
sa(dp24
g6
L10L
sg7
L274L
sa(dp25
g6
L10L
sg7
L390L
sa(dp26
g6
L10L
sg7
L536L
sa(dp27
g6
L10L
sg7
L583L
sa(dp28
g6
L10L
sg7
L594L
sa(dp29
g6
L10L
sg7
L794L
sass."
EndChar

StartChar: uni0E53
Encoding: 479 3667 210
GlifName: uni0E_53
Width: 720
VWidth: 0
GlyphClass: 2
Flags: MW
LayerCount: 2
Fore
SplineSet
227 136 m 0
 200 136 182 117 182 90 c 0
 182 63 200 44 227 44 c 0
 254 44 272 63 272 90 c 0
 272 117 254 136 227 136 c 0
227 189 m 0
 288 189 334 150 334 90 c 0
 334 30 288 -9 227 -9 c 0
 155 -9 105 38 89 98 c 0
 81 131 75 190 75 213 c 2
 75 425 l 2
 75 514 109 619 233 619 c 0
 293 619 335 584 360 535 c 1
 385 584 427 619 487 619 c 0
 611 619 645 514 645 425 c 2
 645 181 l 2
 645 90 628 35 569 -9 c 1
 491 45 l 1
 521 67 542 96 542 181 c 2
 542 425 l 2
 542 510 516 540 479 540 c 0
 438 540 410 491 410 425 c 2
 410 225 l 1
 310 225 l 1
 310 425 l 2
 310 491 282 540 241 540 c 0
 204 540 178 510 178 425 c 2
 178 204 l 2
 178 195 178 187 177 179 c 1
 192 186 209 189 227 189 c 0
EndSplineSet
PickledDataWithLists: "(dp0
Vcom.fontlab.hintData
p1
(dp2
Vvhints
p3
(lp4
(dp5
Vwidth
p6
L10L
sVposition
p7
L61L
sa(dp8
g6
L10L
sg7
L149L
sa(dp9
g6
L10L
sg7
L378L
sa(dp10
g6
L10L
sg7
L500L
sa(dp11
g6
L10L
sg7
L561L
sa(dp12
g6
L10L
sg7
L649L
sasVhhints
p13
(lp14
(dp15
g6
L10L
sg7
L-21L
sa(dp16
g6
L10L
sg7
L-15L
sa(dp17
g6
L10L
sg7
L41L
sa(dp18
g6
L10L
sg7
L77L
sa(dp19
g6
L10L
sg7
L237L
sa(dp20
g6
L10L
sg7
L606L
sass."
EndChar

StartChar: uni0E54
Encoding: 480 3668 211
GlifName: uni0E_54
Width: 720
VWidth: 0
GlyphClass: 2
Flags: MW
LayerCount: 2
Fore
SplineSet
508 351 m 0
 481 351 463 332 463 305 c 0
 463 278 481 259 508 259 c 0
 535 259 553 278 553 305 c 0
 553 332 535 351 508 351 c 0
65 297 m 2
 65 312 l 2
 65 461 163 599 356 609 c 0
 394 611 450 616 470 618 c 0
 549 628 588 628 598 753 c 1
 705 742 l 1
 694 594 609 556 488 541 c 0
 461 537 405 532 363 530 c 0
 249 524 172 439 172 312 c 2
 172 297 l 2
 172 172 239 79 359 79 c 2
 428 79 l 1
 387 116 362 170 362 233 c 0
 362 327 409 404 508 404 c 0
 569 404 615 365 615 305 c 0
 615 245 569 206 508 206 c 0
 482 206 459 213 441 226 c 1
 442 134 515 79 593 79 c 2
 645 79 l 1
 645 0 l 1
 359 0 l 2
 146 0 65 158 65 297 c 2
EndSplineSet
PickledDataWithLists: "(dp0
Vcom.fontlab.hintData
p1
(dp2
Vvhints
p3
(lp4
(dp5
Vwidth
p6
L10L
sVposition
p7
L61L
sa(dp8
g6
L10L
sg7
L149L
sa(dp9
g6
L10L
sg7
L400L
sa(dp10
g6
L10L
sg7
L488L
sa(dp11
g6
L10L
sg7
L527L
sa(dp12
g6
L10L
sg7
L591L
sa(dp13
g6
L10L
sg7
L662L
sa(dp14
g6
L10L
sg7
L679L
sasVhhints
p15
(lp16
(dp17
g6
L10L
sg7
L0L
sa(dp18
g6
L10L
sg7
L63L
sa(dp19
g6
L10L
sg7
L351L
sa(dp20
g6
L10L
sg7
L796L
sass."
EndChar

StartChar: uni0E55
Encoding: 481 3669 212
GlifName: uni0E_55
Width: 720
VWidth: 0
GlyphClass: 2
Flags: MW
LayerCount: 2
Fore
SplineSet
382 704 m 0
 355 704 337 685 337 658 c 0
 337 631 355 612 382 612 c 0
 409 612 427 631 427 658 c 0
 427 685 409 704 382 704 c 0
382 757 m 0
 443 757 489 718 489 658 c 0
 489 638 484 621 475 606 c 1
 478 606 481 606 484 606 c 0
 558 611 591 638 598 753 c 1
 705 742 l 1
 697 605 616 549 502 538 c 0
 491 537 478 537 464 537 c 0
 435 537 404 539 388 542 c 1
 245 527 172 445 172 312 c 2
 172 297 l 2
 172 172 239 79 359 79 c 2
 428 79 l 1
 387 116 362 170 362 233 c 0
 362 327 409 404 508 404 c 0
 569 404 615 365 615 305 c 0
 615 245 569 206 508 206 c 0
 482 206 459 213 441 226 c 1
 442 134 515 79 593 79 c 2
 645 79 l 1
 645 0 l 1
 359 0 l 2
 146 0 65 158 65 297 c 2
 65 312 l 2
 65 445 139 561 298 594 c 1
 284 611 275 632 275 658 c 0
 275 718 321 757 382 757 c 0
508 351 m 0
 481 351 463 332 463 305 c 0
 463 278 481 259 508 259 c 0
 535 259 553 278 553 305 c 0
 553 332 535 351 508 351 c 0
EndSplineSet
PickledDataWithLists: "(dp0
Vcom.fontlab.hintData
p1
(dp2
Vvhints
p3
(lp4
(dp5
Vwidth
p6
L10L
sVposition
p7
L61L
sa(dp8
g6
L10L
sg7
L149L
sa(dp9
g6
L10L
sg7
L224L
sa(dp10
g6
L10L
sg7
L301L
sa(dp11
g6
L10L
sg7
L394L
sa(dp12
g6
L10L
sg7
L400L
sa(dp13
g6
L10L
sg7
L471L
sa(dp14
g6
L10L
sg7
L488L
sa(dp15
g6
L10L
sg7
L527L
sa(dp16
g6
L10L
sg7
L594L
sa(dp17
g6
L10L
sg7
L662L
sa(dp18
g6
L10L
sg7
L677L
sasVhhints
p19
(lp20
(dp21
g6
L10L
sg7
L0L
sa(dp22
g6
L10L
sg7
L62L
sa(dp23
g6
L10L
sg7
L351L
sa(dp24
g6
L10L
sg7
L506L
sa(dp25
g6
L10L
sg7
L564L
sa(dp26
g6
L10L
sg7
L701L
sa(dp27
g6
L10L
sg7
L754L
sa(dp28
g6
L10L
sg7
L794L
sass."
EndChar

StartChar: uni0E56
Encoding: 482 3670 213
GlifName: uni0E_56
Width: 720
VWidth: 0
GlyphClass: 2
Flags: MW
LayerCount: 2
Fore
SplineSet
212 206 m 0
 185 206 167 187 167 160 c 0
 167 133 185 114 212 114 c 0
 239 114 257 133 257 160 c 0
 257 187 239 206 212 206 c 0
212 259 m 0
 273 259 319 220 319 160 c 0
 319 120 299 89 267 73 c 1
 292 64 325 58 367 58 c 0
 492 58 548 150 548 286 c 2
 548 314 l 2
 548 450 488 536 373 536 c 0
 267 536 216 460 207 413 c 1
 124 420 l 1
 65 742 l 1
 172 753 l 1
 194 536 l 1
 228 581 285 619 377 619 c 0
 578 619 655 457 655 314 c 2
 655 286 l 2
 655 143 583 -19 373 -19 c 0
 177 -19 105 81 105 160 c 0
 105 220 151 259 212 259 c 0
EndSplineSet
PickledDataWithLists: "(dp0
Vcom.fontlab.hintData
p1
(dp2
Vvhints
p3
(lp4
(dp5
Vwidth
p6
L10L
sVposition
p7
L31L
sa(dp8
g6
L10L
sg7
L123L
sa(dp9
g6
L10L
sg7
L211L
sa(dp10
g6
L10L
sg7
L298L
sa(dp11
g6
L10L
sg7
L561L
sa(dp12
g6
L10L
sg7
L649L
sasVhhints
p13
(lp14
(dp15
g6
L10L
sg7
L-16L
sa(dp16
g6
L10L
sg7
L46L
sa(dp17
g6
L10L
sg7
L316L
sa(dp18
g6
L10L
sg7
L481L
sa(dp19
g6
L10L
sg7
L544L
sa(dp20
g6
L10L
sg7
L606L
sa(dp21
g6
L10L
sg7
L795L
sass."
EndChar

StartChar: uni0E57
Encoding: 483 3671 214
GlifName: uni0E_57
Width: 905
VWidth: 0
GlyphClass: 2
Flags: MW
LayerCount: 2
Fore
SplineSet
227 136 m 0
 200 136 182 117 182 90 c 0
 182 63 200 44 227 44 c 0
 254 44 272 63 272 90 c 0
 272 117 254 136 227 136 c 0
227 189 m 0
 288 189 334 150 334 90 c 0
 334 30 288 -9 227 -9 c 0
 155 -9 105 38 89 98 c 0
 81 131 75 190 75 213 c 2
 75 425 l 2
 75 514 109 619 233 619 c 0
 293 619 335 584 360 535 c 1
 385 584 427 619 487 619 c 0
 611 619 638 514 638 425 c 2
 638 181 l 2
 638 132 631 93 615 61 c 1
 676 79 728 120 728 190 c 2
 728 750 l 1
 825 750 l 1
 825 190 l 2
 825 74 726 -9 555 -9 c 1
 491 45 l 1
 521 67 542 96 542 181 c 2
 542 425 l 2
 542 510 516 540 479 540 c 0
 438 540 410 491 410 425 c 2
 410 225 l 1
 310 225 l 1
 310 425 l 2
 310 491 282 540 241 540 c 0
 204 540 178 510 178 425 c 2
 178 204 l 2
 178 195 178 187 177 179 c 1
 192 186 209 189 227 189 c 0
EndSplineSet
PickledDataWithLists: "(dp0
Vcom.fontlab.hintData
p1
(dp2
Vvhints
p3
(lp4
(dp5
Vwidth
p6
L10L
sVposition
p7
L61L
sa(dp8
g6
L10L
sg7
L149L
sa(dp9
g6
L10L
sg7
L378L
sa(dp10
g6
L10L
sg7
L505L
sa(dp11
g6
L10L
sg7
L561L
sa(dp12
g6
L10L
sg7
L639L
sa(dp13
g6
L10L
sg7
L716L
sa(dp14
g6
L10L
sg7
L799L
sasVhhints
p15
(lp16
(dp17
g6
L10L
sg7
L-21L
sa(dp18
g6
L10L
sg7
L-15L
sa(dp19
g6
L10L
sg7
L41L
sa(dp20
g6
L10L
sg7
L77L
sa(dp21
g6
L10L
sg7
L237L
sa(dp22
g6
L10L
sg7
L606L
sa(dp23
g6
L10L
sg7
L625L
sass."
EndChar

StartChar: uni0E58
Encoding: 484 3672 215
GlifName: uni0E_58
Width: 750
VWidth: 0
GlyphClass: 2
Flags: MW
LayerCount: 2
Fore
SplineSet
548 351 m 0
 521 351 503 332 503 305 c 0
 503 278 521 259 548 259 c 0
 575 259 593 278 593 305 c 0
 593 332 575 351 548 351 c 0
65 296 m 2
 65 312 l 2
 65 457 163 593 356 603 c 0
 394 605 458 610 478 612 c 0
 555 622 588 629 598 754 c 1
 705 743 l 1
 694 593 613 550 496 535 c 0
 469 531 405 526 363 524 c 0
 249 518 172 438 172 312 c 2
 172 296 l 2
 172 213 197 160 212 109 c 1
 317 260 l 1
 398 260 l 1
 398 132 426 66 498 66 c 0
 563 66 593 124 595 215 c 1
 581 209 565 206 548 206 c 0
 487 206 441 245 441 305 c 0
 441 365 487 404 548 404 c 0
 652 404 678 310 678 227 c 0
 678 121 641 -9 498 -9 c 0
 389 -9 343 71 328 158 c 1
 219 0 l 1
 130 0 l 1
 130 29 l 2
 130 102 65 176 65 296 c 2
EndSplineSet
PickledDataWithLists: "(dp0
Vcom.fontlab.hintData
p1
(dp2
Vvhints
p3
(lp4
(dp5
Vwidth
p6
L10L
sVposition
p7
L61L
sa(dp8
g6
L10L
sg7
L149L
sa(dp9
g6
L10L
sg7
L369L
sa(dp10
g6
L10L
sg7
L435L
sa(dp11
g6
L10L
sg7
L556L
sa(dp12
g6
L10L
sg7
L581L
sa(dp13
g6
L10L
sg7
L591L
sa(dp14
g6
L10L
sg7
L669L
sa(dp15
g6
L10L
sg7
L679L
sasVhhints
p16
(lp17
(dp18
g6
L10L
sg7
L4L
sa(dp19
g6
L10L
sg7
L66L
sa(dp20
g6
L10L
sg7
L246L
sa(dp21
g6
L10L
sg7
L315L
sa(dp22
g6
L10L
sg7
L796L
sass."
EndChar

StartChar: uni0E59
Encoding: 485 3673 216
GlifName: uni0E_59
Width: 720
VWidth: 0
GlyphClass: 2
Flags: MW
LayerCount: 2
Fore
SplineSet
545 196 m 0
 518 196 500 177 500 150 c 0
 500 123 518 104 545 104 c 0
 572 104 590 123 590 150 c 0
 590 177 572 196 545 196 c 0
173 445 m 0
 173 529 242 585 342 596 c 0
 392 601 446 604 463 606 c 0
 541 616 578 620 588 753 c 1
 695 742 l 1
 684 586 598 546 481 531 c 0
 451 527 392 525 347 520 c 0
 301 515 270 492 270 442 c 0
 270 413 281 398 292 390 c 1
 311 392 332 393 354 393 c 2
 560 393 l 1
 560 314 l 1
 354 314 l 2
 205 314 162 254 162 185 c 0
 162 118 205 57 354 57 c 0
 409 57 449 62 477 71 c 1
 453 88 438 116 438 150 c 0
 438 210 484 249 545 249 c 0
 606 249 652 210 652 150 c 0
 652 64 567 -19 354 -19 c 0
 140 -19 55 78 55 185 c 0
 55 263 98 337 203 372 c 1
 185 390 173 414 173 445 c 0
EndSplineSet
PickledDataWithLists: "(dp0
Vcom.fontlab.hintData
p1
(dp2
Vvhints
p3
(lp4
(dp5
Vwidth
p6
L10L
sVposition
p7
L61L
sa(dp8
g6
L10L
sg7
L149L
sa(dp9
g6
L10L
sg7
L205L
sa(dp10
g6
L10L
sg7
L293L
sa(dp11
g6
L10L
sg7
L531L
sa(dp12
g6
L10L
sg7
L619L
sa(dp13
g6
L10L
sg7
L679L
sasVhhints
p14
(lp15
(dp16
g6
L10L
sg7
L-26L
sa(dp17
g6
L10L
sg7
L36L
sa(dp18
g6
L10L
sg7
L155L
sa(dp19
g6
L10L
sg7
L314L
sa(dp20
g6
L10L
sg7
L370L
sa(dp21
g6
L10L
sg7
L796L
sass."
EndChar

StartChar: uni0E5A
Encoding: 486 3674 217
GlifName: uni0E_5A_
Width: 675
VWidth: 0
GlyphClass: 2
Flags: MW
LayerCount: 2
Fore
SplineSet
590 0 m 1
 497 0 l 1
 497 600 l 1
 590 600 l 1
 590 0 l 1
147 556 m 0
 120 556 102 537 102 510 c 0
 102 483 120 464 147 464 c 0
 174 464 192 483 192 510 c 0
 192 537 174 556 147 556 c 0
147 609 m 0
 208 609 254 570 254 510 c 0
 254 491 249 474 241 460 c 1
 302 483 335 536 348 595 c 1
 383 600 l 1
 404 578 406 539 406 477 c 2
 406 152 l 2
 406 32 286 -5 159 -19 c 1
 143 58 l 1
 263 72 313 92 313 152 c 2
 313 383 l 2
 313 415 323 434 330 456 c 1
 293 423 241 400 171 400 c 0
 87 400 40 446 40 510 c 0
 40 570 86 609 147 609 c 0
EndSplineSet
PickledDataWithLists: "(dp0
Vcom.fontlab.hintData
p1
(dp2
Vvhints
p3
(lp4
(dp5
Vwidth
p6
L10L
sVposition
p7
L34L
sa(dp8
g6
L10L
sg7
L116L
sa(dp9
g6
L10L
sg7
L136L
sa(dp10
g6
L10L
sg7
L334L
sa(dp11
g6
L10L
sg7
L334L
sa(dp12
g6
L10L
sg7
L411L
sa(dp13
g6
L10L
sg7
L416L
sa(dp14
g6
L10L
sg7
L504L
sa(dp15
g6
L10L
sg7
L509L
sa(dp16
g6
L10L
sg7
L586L
sa(dp17
g6
L10L
sg7
L592L
sasVhhints
p18
(lp19
(dp20
g6
L10L
sg7
L-14L
sa(dp21
g6
L10L
sg7
L7L
sa(dp22
g6
L10L
sg7
L396L
sa(dp23
g6
L10L
sg7
L454L
sa(dp24
g6
L10L
sg7
L588L
sa(dp25
g6
L10L
sg7
L594L
sass."
EndChar

StartChar: uni0E5B
Encoding: 487 3675 218
GlifName: uni0E_5B_
Width: 900
VWidth: 0
GlyphClass: 2
Flags: MW
LayerCount: 2
Fore
SplineSet
70 300 m 0
 70 438 168 548 330 548 c 1
 330 489 l 1
 219 489 143 417 143 300 c 0
 143 183 219 111 330 111 c 0
 441 111 517 183 517 300 c 0
 517 359 495 412 470 439 c 1
 521 475 l 1
 540 453 557 426 569 396 c 2
 645 222 l 1
 682 429 l 1
 722 434 l 1
 783 319 l 1
 870 319 l 1
 870 281 l 1
 760 281 l 1
 716 359 l 1
 677 145 l 1
 629 140 l 1
 579 251 l 1
 560 137 472 52 330 52 c 0
 168 52 70 162 70 300 c 0
330 346 m 0
 303 346 285 327 285 300 c 0
 285 273 303 254 330 254 c 0
 357 254 375 273 375 300 c 0
 375 327 357 346 330 346 c 0
330 399 m 0
 391 399 437 360 437 300 c 0
 437 240 391 201 330 201 c 0
 269 201 223 240 223 300 c 0
 223 360 269 399 330 399 c 0
EndSplineSet
PickledDataWithLists: "(dp0
Vcom.fontlab.hintData
p1
(dp2
Vvhints
p3
(lp4
(dp5
Vwidth
p6
L10L
sVposition
p7
L80L
sa(dp8
g6
L10L
sg7
L150L
sa(dp9
g6
L10L
sg7
L306L
sa(dp10
g6
L10L
sg7
L430L
sa(dp11
g6
L10L
sg7
L500L
sa(dp12
g6
L16L
sg7
L633L
sa(dp13
g6
L10L
sg7
L639L
sa(dp14
g6
L10L
sg7
L1147L
sasVhhints
p15
(lp16
(dp17
g6
L10L
sg7
L1L
sa(dp18
g6
L10L
sg7
L49L
sa(dp19
g6
L10L
sg7
L124L
sa(dp20
g6
L10L
sg7
L191L
sa(dp21
g6
L10L
sg7
L239L
sa(dp22
g6
L10L
sg7
L261L
sa(dp23
g6
L10L
sg7
L302L
sa(dp24
g6
L10L
sg7
L427L
sa(dp25
g6
L10L
sg7
L513L
sa(dp26
g6
L10L
sg7
L531L
sa(dp27
g6
L10L
sg7
L579L
sass."
EndChar

StartChar: uni0E48.sd
Encoding: 817 63627 222
GlifName: uni0E_48.sd
Width: 0
VWidth: 0
GlyphClass: 4
Flags: MW
AnchorPoint: "ThaiExtendedAbove.mkmk" 0 0 basemark 0
AnchorPoint: "ThaiTone.mark" 0 0 mark 0
LayerCount: 2
Fore
SplineSet
-181 704 m 1
 -181 890 l 1
 -95 890 l 1
 -95 690 l 1
 -181 704 l 1
EndSplineSet
PickledDataWithLists: "(dp0
Vcom.fontlab.hintData
p1
(dp2
Vvhints
p3
(lp4
(dp5
Vwidth
p6
L10L
sVposition
p7
L-127L
sasVhhints
p8
(lp9
(dp10
g6
L10L
sg7
L715L
sa(dp11
g6
L10L
sg7
L927L
sass."
Substitution2: "Thai.su subtable" uni0E48
EndChar

StartChar: uni0E49.sd
Encoding: 820 63630 223
GlifName: uni0E_49.sd
Width: 0
VWidth: 0
GlyphClass: 4
Flags: MW
AnchorPoint: "ThaiExtendedAbove.mkmk" 0 0 basemark 0
AnchorPoint: "ThaiTone.mark" 0 0 mark 0
LayerCount: 2
Fore
SplineSet
-309 864 m 0
 -324 864 -333 854 -333 838 c 0
 -333 822 -324 812 -309 812 c 0
 -294 812 -285 822 -285 838 c 0
 -285 854 -294 864 -309 864 c 0
-284 785 m 1
 -291 782 -300 781 -309 781 c 0
 -344 781 -370 803 -370 838 c 0
 -370 873 -344 895 -309 895 c 0
 -254 895 -236 853 -230 808 c 0
 -228 793 -226 774 -226 763 c 0
 -226 762 -226 760 -226 759 c 1
 -170 768 -124 804 -124 900 c 1
 -40 889 l 1
 -40 771 -140 705 -253 705 c 2
 -274 705 l 1
 -285 721 l 1
 -283 730 -282 743 -282 760 c 0
 -282 769 -283 777 -284 785 c 1
EndSplineSet
PickledDataWithLists: "(dp0
Vcom.fontlab.hintData
p1
(dp2
Vvhints
p3
(lp4
(dp5
Vwidth
p6
L10L
sVposition
p7
L-309L
sa(dp8
g6
L10L
sg7
L-263L
sa(dp9
g6
L10L
sg7
L-247L
sa(dp10
g6
L10L
sg7
L-188L
sa(dp11
g6
L10L
sg7
L7L
sasVhhints
p12
(lp13
(dp14
g6
L10L
sg7
L720L
sa(dp15
g6
L10L
sg7
L927L
sass."
Substitution2: "Thai.su subtable" uni0E49
EndChar

StartChar: uni0E4A.sd
Encoding: 823 63633 224
GlifName: uni0E_4A_.sd
Width: 0
VWidth: 0
GlyphClass: 4
Flags: MW
AnchorPoint: "ThaiExtendedAbove.mkmk" 0 0 basemark 0
AnchorPoint: "ThaiTone.mark" 0 0 mark 0
LayerCount: 2
Fore
SplineSet
-289 783 m 0
 -304 783 -313 773 -313 757 c 0
 -313 741 -304 731 -289 731 c 0
 -274 731 -265 741 -265 757 c 0
 -265 773 -274 783 -289 783 c 0
-289 814 m 0
 -254 814 -228 792 -228 757 c 0
 -228 722 -254 700 -289 700 c 0
 -357 700 -380 748 -380 797 c 0
 -380 875 -321 898 -295 900 c 1
 -239 865 l 1
 -183 900 l 1
 -157 898 -110 870 -110 797 c 0
 -110 781 -114 766 -120 753 c 1
 -88 781 -77 836 -73 895 c 1
 -10 885 l 1
 -23 793 -70 714 -174 705 c 1
 -188 732 l 1
 -168 743 -159 765 -159 797 c 0
 -159 826 -168 845 -182 856 c 1
 -235 823 l 1
 -239 823 l 1
 -242 823 l 1
 -295 856 l 1
 -312 848 -325 834 -327 803 c 1
 -317 810 -304 814 -289 814 c 0
EndSplineSet
PickledDataWithLists: "(dp0
Vcom.fontlab.hintData
p1
(dp2
Vvhints
p3
(lp4
(dp5
Vwidth
p6
L10L
sVposition
p7
L-365L
sa(dp8
g6
L10L
sg7
L-305L
sa(dp9
g6
L10L
sg7
L-243L
sa(dp10
g6
L10L
sg7
L-152L
sa(dp11
g6
L10L
sg7
L-130L
sa(dp12
g6
L10L
sg7
L-79L
sa(dp13
g6
L10L
sg7
L24L
sasVhhints
p14
(lp15
(dp16
g6
L10L
sg7
L710L
sa(dp17
g6
L10L
sg7
L827L
sa(dp18
g6
L21L
sg7
L869L
sa(dp19
g6
L10L
sg7
L915L
sa(dp20
g6
L10L
sg7
L925L
sass."
Substitution2: "Thai.su subtable" uni0E4A
EndChar

